<?xml version="1.0" encoding="utf-8"?>
<!-- Generator: Adobe Illustrator 18.1.1, SVG Export Plug-In . SVG Version: 6.00 Build 0)  -->
<svg version="1.1" id="Layer_1" xmlns="http://www.w3.org/2000/svg" xmlns:xlink="http://www.w3.org/1999/xlink" x="0px" y="0px"
	 viewBox="0 0 100 100" enable-background="new 0 0 100 100" xml:space="preserve">
<g>
	<circle fill="#3C5A92" cx="-146.6" cy="50" r="49.9"/>
	<path fill="#FFFFFF" d="M-152.9,80.2V52.5h-9.2V41.7h9.2c0,0-0.1-8.8,0-11.4c0.8-13.9,21.9-10,21.9-10V30h-7.7c0,0-3,0.7-3,3.1
		s0,8.8,0,8.8h10.6l-1.5,10.6h-9.1v27.7H-152.9z"/>
</g>
<g>
	<circle fill="#35465A" cx="246.3" cy="50" r="49.9"/>
	<path fill="#FFFFFF" d="M230.2,37.2v8.5h6.2c0,0,0,15.9,0,17.1c0,7.1,6,21.1,26.1,12.3l-2.6-8.3c-3.7,0.8-9.5,2.6-10.2-3.8
		c-0.4-3.4,0-8.9,0-17.4h9.8v-9.5h-10.2V22h-8.5C240.8,22,240.6,33.9,230.2,37.2z"/>
</g>
<g>
	<circle fill="#4399F6" cx="49.8" cy="50" r="49.9"/>
	<path fill="#FFFFFF" d="M76.5,28.1c0,0-1.2,4.6-4.5,6.2c0,0,4.9-0.1,6.2-1.6c0,0-3.6,4.9-5.8,5.9c2.1,6.4-8,48.5-50.9,29.6
		c0,0,10.9,0.6,17-5c-2.4,0-9-2-10.6-7.9c0,0,4.7,0.2,5-0.7c0,0-8.3-1-9.2-11.5c1.2,0.5,3.5,2.1,5.2,1.6c-2-0.7-7.7-7.1-3.5-15.7
		c0,0,9,11.9,24.5,12.6c-4.6-4.6,6.4-22.5,19.5-10.7C69.3,31,76,29,76.5,28.1z"/>
</g>
<g>
	<circle fill="#35465A" cx="639.3" cy="50" r="49.9"/>
	<path fill-rule="evenodd" clip-rule="evenodd" fill="#FFFFFF" d="M659.4,47.8h-4.5c0.3,1.3,0.5,2.6,0.5,4c0,8.8-7.2,16-16,16
		c-8.8,0-16-7.2-16-16c0-1.4,0.2-2.7,0.5-4h-4.5v22c0,1.1,0.9,2,2,2h36c1.1,0,2-0.9,2-2V47.8z M659.4,33.8c0-1.1-0.9-2-2-2h-6
		c-1.1,0-2,0.9-2,2v6c0,1.1,0.9,2,2,2h6c1.1,0,2-0.9,2-2V33.8z M639.3,41.8c-5.5,0-10,4.5-10,10c0,5.5,4.5,10,10,10s10-4.5,10-10
		C649.4,46.3,644.9,41.8,639.3,41.8 M659.4,77.9h-40c-3.3,0-6-2.7-6-6v-40c0-3.3,2.7-6,6-6h40c3.3,0,6,2.7,6,6v40
		C665.4,75.2,662.7,77.9,659.4,77.9"/>
</g>
<g>
	<circle fill="#3C5A92" cx="442.8" cy="50" r="49.9"/>
	<g>
		<rect x="410.6" y="30.1" fill="#FFFFFF" stroke="#3C5A92" stroke-width="3" stroke-miterlimit="10" width="64.5" height="43.5"/>
		<path fill="#FFFFFF" stroke="#3C5A92" stroke-width="3" stroke-miterlimit="10" d="M410.6,30.1L440,61.7c1.5,1.6,4.1,1.6,5.6,0
			l29.5-31.6"/>
		<line fill="#FFFFFF" stroke="#3C5A92" stroke-width="3" stroke-miterlimit="10" x1="410.6" y1="73.6" x2="430.8" y2="51.8"/>
		<line fill="#FFFFFF" stroke="#3C5A92" stroke-width="3" stroke-miterlimit="10" x1="454.8" y1="51.8" x2="475.1" y2="73.6"/>
	</g>
</g>
</svg>
