<?xml version="1.0" encoding="utf-8"?>
<!-- Generator: Adobe Illustrator 18.1.1, SVG Export Plug-In . SVG Version: 6.00 Build 0)  -->
<svg version="1.1" id="Layer_1" xmlns="http://www.w3.org/2000/svg" xmlns:xlink="http://www.w3.org/1999/xlink" x="0px" y="0px"
	 viewBox="0 0 800 600" enable-background="new 0 0 800 600" xml:space="preserve">
<g>
	<g>
		
			<line fill="none" stroke="#E46644" stroke-width="4" stroke-linecap="round" stroke-linejoin="round" x1="707" y1="266" x2="707" y2="268"/>
		
			<path fill="none" stroke="#E46644" stroke-width="4" stroke-linecap="round" stroke-linejoin="round" stroke-dasharray="4.0035,14.0121" d="
			M707.1,282l0.9,166.5c0,3.6-2.9,6.5-6.5,6.5H669"/>
		
			<line fill="none" stroke="#E46644" stroke-width="4" stroke-linecap="round" stroke-linejoin="round" x1="662" y1="455" x2="660" y2="455"/>
	</g>
</g>
<path fill="none" stroke="#63E0DC" stroke-width="4" stroke-miterlimit="10" d="M648.1,470.2h-54.3c-6.6,0-12-5.4-12-12v-8.4
	c0-6.6,5.4-12,12-12h54.3c6.6,0,12,5.4,12,12v8.4C660.1,464.8,654.7,470.2,648.1,470.2z"/>
<path fill="none" stroke="#63E0DC" stroke-width="3" stroke-miterlimit="10" d="M625.6,461.9h-9.2c-4.3,0-7.8-3.5-7.8-7.8v0
	c0-4.3,3.5-7.8,7.8-7.8h9.2c4.3,0,7.8,3.5,7.8,7.8v0C633.4,458.3,629.9,461.9,625.6,461.9z"/>
<path fill="#63E0DC" d="M593.8,436c-7.6,0-13.8,5.9-13.8,13.8v8.4c0,7.9,6.2,14.8,13.8,14.8H605v-37H593.8z M597,456c-3,0-6,0-9,0
	c-2,0-2-3,0-3c3,0,6,0,9,0C599,453,599,456,597,456z"/>
<path fill="#FE9D8A" d="M648.1,436H637v37h11.1c7.6,0,13.9-6.9,13.9-14.8v-8.4C662,441.9,655.8,436,648.1,436z M654,457
	c-1,0-2,0-3,0c0,1,0,2,0,3c0,2-3,2-3,0c0-1,0-2,0-3c-1,0-2,0-3,0c-2,0-2-3,0-3c1,0,2,0,3,0c0-2,0-3,0-4c0-2,3-2,3,0c0,1,0,2,0,4
	c1,0,2,0,3,0C656,454,656,457,654,457z"/>
<line fill="none" stroke="#63E0DC" stroke-width="4" stroke-linecap="round" stroke-linejoin="round" stroke-miterlimit="10" stroke-dasharray="4,14" x1="584" y1="455" x2="543" y2="455"/>
</svg>
