<?xml version="1.0" encoding="utf-8"?>
<!-- Generator: Adobe Illustrator 18.1.1, SVG Export Plug-In . SVG Version: 6.00 Build 0)  -->
<svg version="1.1" id="Layer_1" xmlns="http://www.w3.org/2000/svg" xmlns:xlink="http://www.w3.org/1999/xlink" x="0px" y="0px"
	 viewBox="0 0 800 600" enable-background="new 0 0 800 600" xml:space="preserve">
<path fill="#FE9D8A" d="M263,213c-17.7,0-34.8,2.9-50.7,8.3c1.3,13.7,4.4,32.4,12.2,40.3C242,279.2,275,275,287.8,259
	c7.4-9.3,12.4-27.9,14.4-41.2C289.6,214.6,276.5,213,263,213z M263.3,256.7c-2.1,0.1-4.3,0.2-6.4,0.3c-0.1,2.4-0.2,4.8-0.1,7.1
	c0,1.9-3,1.9-3,0c-0.1-2.3,0-4.7,0.1-7c-2,0.1-4,0.2-6,0.3c-1.9,0.1-1.9-2.9,0-3c2.1-0.1,4.1-0.2,6.2-0.3c0.2-2.1,0.4-4.1,0.8-6.2
	c0.3-1.9,3.2-1.1,2.9,0.8c-0.3,1.8-0.5,3.5-0.7,5.3c2.1-0.1,4.1-0.2,6.2-0.3C265.2,253.6,265.2,256.6,263.3,256.7z M255.5,238.2
	c-5.5,0-10-4.5-10-10s4.5-10,10-10s10,4.5,10,10S261,238.2,255.5,238.2z"/>
<path fill="#F9A41C" d="M333.4,229.4c-5,9.8-9.6,21.1-10.9,31.1c-3,24,15,44,44,42c13-0.9,21.7-10.5,27.3-20.8
	C378.5,259.5,357.7,241.4,333.4,229.4z M351.3,288.9c-1.7-1.3-3.3-2.6-5-3.9c-1.7,1.7-3.3,3.5-4.8,5.4c-1.2,1.5-3.3-0.6-2.1-2.1
	c1.5-1.8,3-3.5,4.6-5.1c-1.6-1.2-3.2-2.5-4.8-3.7c-1.5-1.2,0.6-3.3,2.1-2.1c1.6,1.2,3.2,2.5,4.8,3.7c1.4-1.4,2.9-2.7,4.4-4
	c1.5-1.2,3.6,0.9,2.1,2.1c-1.4,1.2-2.8,2.5-4.2,3.8c1.7,1.3,3.3,2.6,5,3.8C354.9,288,352.8,290.1,351.3,288.9z M369.5,270.9
	c-3.6,4.2-9.9,4.7-14,1.1c-4.2-3.6-4.7-9.9-1.1-14s9.9-4.7,14-1.1C372.6,260.4,373.1,266.7,369.5,270.9z"/>
<path fill="#F9A41C" d="M300.5,477.7c-15.8-15.3-49.7-11.4-60.5,4.6c-6.3,9.3-12.3,29.8-14.8,43.8c12.1,3,24.8,4.5,37.8,4.5
	c20.5,0,40.1-3.9,58.1-11C317,505.7,309.9,486.8,300.5,477.7z M264.7,483.8c2.1-0.1,4.3-0.2,6.4-0.3c0.1-2.4,0.2-4.8,0.1-7.1
	c0-1.9,3-1.9,3,0c0.1,2.3,0,4.7-0.1,7c2-0.1,4-0.2,6-0.3c1.9-0.1,1.9,2.9,0,3c-2.1,0.1-4.1,0.2-6.2,0.3c-0.2,2.1-0.4,4.1-0.8,6.2
	c-0.3,1.9-3.2,1.1-2.9-0.8c0.3-1.8,0.5-3.5,0.7-5.3c-2.1,0.1-4.1,0.2-6.2,0.3C262.8,486.9,262.8,483.9,264.7,483.8z M272.5,522.1
	c-5.5,0-10-4.5-10-10c0-5.5,4.5-10,10-10s10,4.5,10,10C282.4,517.7,278,522.1,272.5,522.1z"/>
<path fill="#63E0DC" d="M358,424.4c-7,0-31.5,2.1-35.8,32.1c-2.7,19,12.6,38.6,24.2,50.4c25.7-15.9,46.5-38.9,59.8-66.3
	C393.1,432.1,370.9,424.4,358,424.4z M354.3,443.7c-3.1,4.1-6.1,8.2-9.2,12.3c-1.1,1.5-3.7,0-2.6-1.5c3.1-4.1,6.1-8.2,9.2-12.3
	C352.8,440.7,355.5,442.2,354.3,443.7z M363.1,474.1c-4.2-3.5-4.8-9.8-1.3-14c3.5-4.2,9.8-4.8,14-1.3c4.2,3.5,4.8,9.8,1.3,14
	S367.4,477.7,363.1,474.1z"/>
<path fill="#FE9D8A" d="M187.6,436.2c-21.1-7.5-47.8,8.9-60.4,18c15.7,25.8,38.5,46.7,65.7,60.1c8.8-11.3,17-26.5,19-36.7
	C213.4,470.7,216.2,446.3,187.6,436.2z M175.6,484.8c-3.5,4.2-9.8,4.8-14,1.3c-4.2-3.5-4.8-9.8-1.3-14c3.5-4.2,9.8-4.8,14-1.3
	C178.5,474.3,179.1,480.6,175.6,484.8z M190.7,463.3c-1.7-1.3-3.4-2.6-5.2-3.9c-1.4,1.4-2.9,2.8-4.4,4.1c-1.5,1.3-3.6-0.9-2.1-2.1
	c1.4-1.2,2.8-2.5,4.1-3.8c-1.6-1.2-3.2-2.4-4.8-3.5c-1.5-1.1,0-3.7,1.5-2.6c1.8,1.3,3.6,2.7,5.3,4c1.7-1.8,3.3-3.6,4.8-5.5
	c1.2-1.5,3.3,0.6,2.1,2.1c-1.4,1.8-2.9,3.5-4.5,5.2c1.5,1.1,3.1,2.3,4.6,3.4C193.7,461.8,192.2,464.4,190.7,463.3z"/>
<path fill="#63E0DC" d="M177.2,238.1c-25,16.1-45.2,39.1-58,66.2c13.2,7.5,32.3,13.7,43.8,13.6c7,0,31.5-2.1,35.8-32.1
	C201.4,268.3,188.3,250.1,177.2,238.1z M164.6,283.3c-3.5,4.2-9.8,4.8-14,1.3c-4.2-3.5-4.8-9.8-1.3-14c3.5-4.2,9.8-4.8,14-1.3
	C167.6,272.8,168.1,279,164.6,283.3z M183.9,288.9c-3.1,4.1-6.1,8.2-9.2,12.3c-1.1,1.5-3.7,0-2.6-1.5c3.1-4.1,6.1-8.2,9.2-12.3
	C182.5,285.8,185.1,287.3,183.9,288.9z"/>
<g>
	<g>
		
			<line fill="none" stroke="#E46644" stroke-width="4" stroke-linecap="round" stroke-linejoin="round" x1="255" y1="213" x2="255" y2="211"/>
		
			<path fill="none" stroke="#E46644" stroke-width="4" stroke-linecap="round" stroke-linejoin="round" stroke-dasharray="3.9949,13.9822" d="
			M255,197V75.5c0-3.6,2.9-6.5,6.5-6.5h439c3.6,0,6.5,2.9,6.5,6.5v196.3c0,3.6-2.9,6.5-6.5,6.5H668"/>
		
			<line fill="none" stroke="#E46644" stroke-width="4" stroke-linecap="round" stroke-linejoin="round" x1="661" y1="278.3" x2="659" y2="278.3"/>
	</g>
</g>
<path fill="none" stroke="#63E0DC" stroke-width="4" stroke-linecap="round" stroke-linejoin="round" stroke-miterlimit="10" stroke-dasharray="4,14" d="
	M380,478h156.5c3.6,0,6.5-2.9,6.5-6.5v-187c0-3.6,2.9-6.5,6.5-6.5H584"/>
<path fill="none" stroke="#63E0DC" stroke-width="4" stroke-miterlimit="10" d="M263,213.8c-74.4,0-136.9,52.2-154.1,121.2H106
	c-6.6,0-14,3.6-14,10.2v55.6c0,6.6,7.4,14.2,14,14.2h3.6c18.1,68,79.9,116.6,153.4,116.6c87.7,0,158.8-71.2,158.8-158.9
	S350.7,213.8,263,213.8z"/>
<path fill="#63E0DC" d="M307.8,324h-8.9c-0.1-7.8-2.4-15.5-6.7-15.5s-6.6,7.7-6.7,15.5h-5.5c-0.1-7.8-2.4-15.5-6.7-15.5
	s-6.6,7.7-6.7,15.5h-9.5c-0.1-7.8-2.4-15.5-6.7-15.5s-6.6,7.7-6.7,15.5h-5.5c-0.1-7.8-2.4-15.5-6.7-15.5s-6.6,7.7-6.7,15.5h-7.9
	c-2.3,0-4.5,1.8-4.5,4.1v89.8c0,2.3,2.2,4.1,4.5,4.1h7.9c0.1,8,2.4,15.9,6.7,15.9s6.7-7.9,6.7-15.9h5.5c0.1,8,2.4,15.9,6.7,15.9
	s6.7-7.9,6.7-15.9h9.5c0.1,8,2.4,15.9,6.7,15.9s6.7-7.9,6.7-15.9h5.5c0.1,8,2.4,15.9,6.7,15.9s6.7-7.9,6.7-15.9h8.9
	c2.3,0,4.2-1.8,4.2-4.1v-89.8C312,325.8,310.1,324,307.8,324z M292.2,311.5c1.3,0,3.6,4.7,3.7,12.5h-7.5
	C288.5,316.2,290.9,311.5,292.2,311.5z M273.2,311.5c1.3,0,3.6,4.7,3.7,12.5h-7.5C269.5,316.2,271.9,311.5,273.2,311.5z
	 M250.2,311.5c1.3,0,3.6,4.7,3.7,12.5h-7.5C246.5,316.2,248.9,311.5,250.2,311.5z M231.2,311.5c1.3,0,3.6,4.7,3.7,12.5h-7.5
	C227.5,316.2,229.9,311.5,231.2,311.5z M231.2,434.9c-1.3,0-3.7-4.9-3.7-12.9h7.5C234.8,430,232.5,434.9,231.2,434.9z M250.2,434.9
	c-1.3,0-3.7-4.9-3.7-12.9h7.5C253.8,430,251.5,434.9,250.2,434.9z M273.2,434.9c-1.3,0-3.7-4.9-3.7-12.9h7.5
	C276.8,430,274.5,434.9,273.2,434.9z M292.2,434.9c-1.3,0-3.7-4.9-3.7-12.9h7.5C295.8,430,293.5,434.9,292.2,434.9z"/>
<path fill="none" stroke="#63E0DC" stroke-width="4" stroke-miterlimit="10" d="M648.1,293.7h-54.3c-6.6,0-12-5.4-12-12v-8.4
	c0-6.6,5.4-12,12-12h54.3c6.6,0,12,5.4,12,12v8.4C660.1,288.3,654.7,293.7,648.1,293.7z"/>
<path fill="none" stroke="#63E0DC" stroke-width="3" stroke-miterlimit="10" d="M625.6,285.4h-9.2c-4.3,0-7.8-3.5-7.8-7.8v0
	c0-4.3,3.5-7.8,7.8-7.8h9.2c4.3,0,7.8,3.5,7.8,7.8v0C633.4,281.8,629.9,285.4,625.6,285.4z"/>
<path fill="#63E0DC" d="M593.8,259c-7.6,0-13.8,6.4-13.8,14.3v8.4c0,7.9,6.2,14.3,13.8,14.3H605v-37H593.8z M597,279c-3,0-6,0-9,0
	c-2,0-2-3,0-3c3,0,6,0,9,0C599,276,599,279,597,279z"/>
<path fill="#FE9D8A" d="M648.1,259H637v37h11.1c7.6,0,13.9-6.4,13.9-14.3v-8.4C662,265.4,655.8,259,648.1,259z M654,280
	c-1,0-1.9,0-3,0c0,1,0,2,0,3c0,2-3,2-3,0c0-1,0-2,0-3c-1.1,0-2,0-3,0c-2,0-2-3,0-3c1,0,1.9,0,3,0c0-2,0-3,0-4c0-2,3-2,3,0
	c0,1,0,2,0,4c1.1,0,2,0,3,0C656,277,656,280,654,280z"/>
<path fill="none" stroke="#63E0DC" stroke-width="4" stroke-miterlimit="10" d="M593.9,438.8h54.3c6.6,0,12,5.4,12,12v8.4
	c0,6.6-5.4,12-12,12h-54.3c-6.6,0-12-5.4-12-12v-8.4C581.9,444.2,587.3,438.8,593.9,438.8z"/>
<path fill="none" stroke="#63E0DC" stroke-width="3" stroke-miterlimit="10" d="M616.4,447.1h9.2c4.3,0,7.8,3.5,7.8,7.8v0
	c0,4.3-3.5,7.8-7.8,7.8h-9.2c-4.3,0-7.8-3.5-7.8-7.8v0C608.6,450.7,612.1,447.1,616.4,447.1z"/>
<path fill="#63E0DC" d="M648.2,473c7.6,0,13.8-5.9,13.8-13.8v-8.4c0-7.9-6.2-14.8-13.8-14.8H637v37H648.2z M645,453c3,0,6,0,9,0
	c2,0,2,3,0,3c-3,0-6,0-9,0C643,456,643,453,645,453z"/>
<path fill="#FE9D8A" d="M593.9,473H605v-37h-11.1c-7.6,0-13.9,6.9-13.9,14.8v8.4C580,467.1,586.2,473,593.9,473z M588,452
	c1,0,1.9,0,3,0c0-1,0-2,0-3c0-2,3-2,3,0c0,1,0,2,0,3c1.1,0,2,0,3,0c2,0,2,3,0,3c-1,0-2,0-3,0c0,2,0,3,0,4c0,2-3,2-3,0c0-1,0-2,0-4
	c-1,0-2,0-3,0C586,455,586,452,588,452z"/>
<path fill="none" stroke="#63E0DC" stroke-width="4" stroke-linecap="round" stroke-linejoin="round" stroke-miterlimit="10" stroke-dasharray="4,14" d="
	M543,328.8L699.1,394c4.8,2,7.9,6.7,7.9,11.8l0.2,35.8c0,7.1-5.7,12.8-12.8,12.8h-34.2"/>
<path fill="none" stroke="#E46644" stroke-width="4" stroke-linecap="round" stroke-linejoin="round" stroke-miterlimit="10" stroke-dasharray="4,14" d="
	M707,272v48.1c0,2.5-1.5,4.8-3.8,5.8l-134.4,74.4c-2.3,1-3.8,3.3-3.8,5.8v41.5c0,3.5,2.8,6.4,6.4,6.4H588"/>
</svg>
