<?xml version="1.0" encoding="utf-8"?>
<!-- Generator: Adobe Illustrator 18.1.1, SVG Export Plug-In . SVG Version: 6.00 Build 0)  -->
<svg version="1.1" id="Layer_1" xmlns="http://www.w3.org/2000/svg" xmlns:xlink="http://www.w3.org/1999/xlink" x="0px" y="0px"
	 viewBox="0 0 800 600" enable-background="new 0 0 800 600" xml:space="preserve">
<rect x="-5.6" y="-7.8" fill="#222222" width="810.2" height="615.8"/>
<g opacity="0.1">
	<g>
		<g>
			<g>
				<path fill="#D7D7F2" d="M55,99.6c8.4,11.7,17.8,22.6,28.3,32.6c1.4,1.3,3.5-0.8,2.1-2.1c-10.3-9.8-19.6-20.4-27.9-32
					C56.5,96.5,53.9,98,55,99.6L55,99.6z"/>
			</g>
		</g>
		<g>
			<g>
				<path fill="#D7D7F2" d="M81.6,97.6c-9.3,10.3-18.6,20.5-27.9,30.8c-1.3,1.4,0.8,3.6,2.1,2.1c9.3-10.3,18.6-20.5,27.9-30.8
					C85,98.3,82.9,96.1,81.6,97.6L81.6,97.6z"/>
			</g>
		</g>
	</g>
	<g>
		<g>
			<path fill="#D7D7F2" d="M158.4,142.3c-11.3,2-22.5,9.8-26.1,21c-3.5,11.1,2.5,19.9,14.1,20.2c11.3,0.3,26.2-2.8,29.8-15.4
				c3.4-12.1-8.4-18.2-17.9-21.5c-1.8-0.6-2.6,2.3-0.8,2.9c8.7,3,20.4,9,14.8,20.2c-4.6,9.2-16.7,11.1-26,10.8
				c-5.5-0.2-10.7-2.1-12-8c-0.9-4.4,0.6-9.1,2.8-12.9c4.8-7.8,13-12.8,21.9-14.4C161.1,144.8,160.3,141.9,158.4,142.3L158.4,142.3z
				"/>
		</g>
	</g>
	<g>
		<g>
			<path fill="#D7D7F2" d="M84,212c-8.4,11.6-15.9,23.8-22.5,36.5c-0.5,1.1,0.1,2.2,1.3,2.3c14.7,1.1,29.3,1,44-0.5
				c1.1-0.1,1.9-1.2,1.3-2.3c-6.5-11.5-13-23-19.5-34.6c-0.9-1.7-3.5-0.2-2.6,1.5c6.5,11.5,13,23,19.5,34.6c0.4-0.8,0.9-1.5,1.3-2.3
				c-14.6,1.5-29.3,1.6-44,0.5c0.4,0.8,0.9,1.5,1.3,2.3c6.6-12.7,14.1-24.9,22.5-36.5C87.7,211.9,85.1,210.4,84,212L84,212z"/>
		</g>
	</g>
	<g>
		<g>
			<g>
				<path fill="#D7D7F2" d="M212,216.6c8.4,11.7,17.8,22.6,28.3,32.6c1.4,1.3,3.5-0.8,2.1-2.1c-10.3-9.8-19.6-20.4-27.9-32
					C213.5,213.5,210.9,215,212,216.6L212,216.6z"/>
			</g>
		</g>
		<g>
			<g>
				<path fill="#D7D7F2" d="M238.6,214.6c-9.3,10.3-18.6,20.5-27.9,30.8c-1.3,1.4,0.8,3.6,2.1,2.1c9.3-10.3,18.6-20.5,27.9-30.8
					C242,215.3,239.9,213.1,238.6,214.6L238.6,214.6z"/>
			</g>
		</g>
	</g>
	<g>
		<g>
			<path fill="#D7D7F2" d="M372.4,46.3c-11.3,2-22.5,9.8-26.1,21c-3.5,11.1,2.5,19.9,14.1,20.2c11.3,0.3,26.2-2.8,29.8-15.4
				c3.4-12.1-8.4-18.2-17.9-21.5c-1.8-0.6-2.6,2.3-0.8,2.9c8.7,3,20.4,9,14.8,20.2c-4.6,9.2-16.7,11.1-26,10.8
				c-5.5-0.2-10.7-2.1-12-8c-0.9-4.4,0.6-9.1,2.8-12.9c4.8-7.8,13-12.8,21.9-14.4C375.1,48.8,374.3,45.9,372.4,46.3L372.4,46.3z"/>
		</g>
	</g>
	<g>
		<g>
			<path fill="#D7D7F2" d="M189,37c-8.4,11.6-15.9,23.8-22.5,36.5c-0.5,1.1,0.1,2.2,1.3,2.3c14.7,1.1,29.3,1,44-0.5
				c1.1-0.1,1.9-1.2,1.3-2.3c-6.5-11.5-13-23-19.5-34.6c-0.9-1.7-3.5-0.2-2.6,1.5c6.5,11.5,13,23,19.5,34.6c0.4-0.8,0.9-1.5,1.3-2.3
				c-14.6,1.5-29.3,1.6-44,0.5c0.4,0.8,0.9,1.5,1.3,2.3c6.6-12.7,14.1-24.9,22.5-36.5C192.7,36.9,190.1,35.4,189,37L189,37z"/>
		</g>
	</g>
	<g>
		<g>
			<g>
				<path fill="#D7D7F2" d="M425,144.6c8.4,11.7,17.8,22.6,28.3,32.6c1.4,1.3,3.5-0.8,2.1-2.1c-10.3-9.8-19.6-20.4-27.9-32
					C426.5,141.5,423.9,143,425,144.6L425,144.6z"/>
			</g>
		</g>
		<g>
			<g>
				<path fill="#D7D7F2" d="M451.6,142.6c-9.3,10.3-18.6,20.5-27.9,30.8c-1.3,1.4,0.8,3.6,2.1,2.1c9.3-10.3,18.6-20.5,27.9-30.8
					C455,143.3,452.9,141.1,451.6,142.6L451.6,142.6z"/>
			</g>
		</g>
	</g>
	<g>
		<g>
			<path fill="#D7D7F2" d="M422.4,229.3c-11.3,2-22.5,9.8-26.1,21c-3.5,11.1,2.5,19.9,14.1,20.2c11.3,0.3,26.2-2.8,29.8-15.4
				c3.4-12.1-8.4-18.2-17.9-21.5c-1.8-0.6-2.6,2.3-0.8,2.9c8.7,3,20.4,9,14.8,20.2c-4.6,9.2-16.7,11.1-26,10.8
				c-5.5-0.2-10.7-2.1-12-8c-0.9-4.4,0.6-9.1,2.8-12.9c4.8-7.8,13-12.8,21.9-14.4C425.1,231.8,424.3,228.9,422.4,229.3L422.4,229.3z
				"/>
		</g>
	</g>
	<g>
		<g>
			<path fill="#D7D7F2" d="M296,130c-8.4,11.6-15.9,23.8-22.5,36.5c-0.5,1.1,0.1,2.2,1.3,2.3c14.7,1.1,29.3,1,44-0.5
				c1.1-0.1,1.9-1.2,1.3-2.3c-6.5-11.5-13-23-19.5-34.6c-0.9-1.7-3.5-0.2-2.6,1.5c6.5,11.5,13,23,19.5,34.6c0.4-0.8,0.9-1.5,1.3-2.3
				c-14.6,1.5-29.3,1.6-44,0.5c0.4,0.8,0.9,1.5,1.3,2.3c6.6-12.7,14.1-24.9,22.5-36.5C299.7,129.9,297.1,128.4,296,130L296,130z"/>
		</g>
	</g>
	<g>
		<g>
			<g>
				<path fill="#D7D7F2" d="M379,396.6c8.4,11.7,17.8,22.6,28.3,32.6c1.4,1.3,3.5-0.8,2.1-2.1c-10.3-9.8-19.6-20.4-27.9-32
					C380.5,393.5,377.9,395,379,396.6L379,396.6z"/>
			</g>
		</g>
		<g>
			<g>
				<path fill="#D7D7F2" d="M405.6,394.6c-9.3,10.3-18.6,20.5-27.9,30.8c-1.3,1.4,0.8,3.6,2.1,2.1c9.3-10.3,18.6-20.5,27.9-30.8
					C409,395.3,406.9,393.1,405.6,394.6L405.6,394.6z"/>
			</g>
		</g>
	</g>
	<g>
		<g>
			<path fill="#D7D7F2" d="M482.4,439.3c-11.3,2-22.5,9.8-26.1,21c-3.5,11.1,2.5,19.9,14.1,20.2c11.3,0.3,26.2-2.8,29.8-15.4
				c3.4-12.1-8.4-18.2-17.9-21.5c-1.8-0.6-2.6,2.3-0.8,2.9c8.7,3,20.4,9,14.8,20.2c-4.6,9.2-16.7,11.1-26,10.8
				c-5.5-0.2-10.7-2.1-12-8c-0.9-4.4,0.6-9.1,2.8-12.9c4.8-7.8,13-12.8,21.9-14.4C485.1,441.8,484.3,438.9,482.4,439.3L482.4,439.3z
				"/>
		</g>
	</g>
	<g>
		<g>
			<path fill="#D7D7F2" d="M408,509c-8.4,11.6-15.9,23.8-22.5,36.5c-0.5,1.1,0.1,2.2,1.3,2.3c14.7,1.1,29.3,1,44-0.5
				c1.1-0.1,1.9-1.2,1.3-2.3c-6.5-11.5-13-23-19.5-34.6c-0.9-1.7-3.5-0.2-2.6,1.5c6.5,11.5,13,23,19.5,34.6c0.4-0.8,0.9-1.5,1.3-2.3
				c-14.6,1.5-29.3,1.6-44,0.5c0.4,0.8,0.9,1.5,1.3,2.3c6.6-12.7,14.1-24.9,22.5-36.5C411.7,508.9,409.1,507.4,408,509L408,509z"/>
		</g>
	</g>
	<g>
		<g>
			<g>
				<path fill="#D7D7F2" d="M63,320.6c8.4,11.7,17.8,22.6,28.3,32.6c1.4,1.3,3.5-0.8,2.1-2.1c-10.3-9.8-19.6-20.4-27.9-32
					C64.5,317.5,61.9,319,63,320.6L63,320.6z"/>
			</g>
		</g>
		<g>
			<g>
				<path fill="#D7D7F2" d="M89.6,318.6c-9.3,10.3-18.6,20.5-27.9,30.8c-1.3,1.4,0.8,3.6,2.1,2.1c9.3-10.3,18.6-20.5,27.9-30.8
					C93,319.3,90.9,317.1,89.6,318.6L89.6,318.6z"/>
			</g>
		</g>
	</g>
	<g>
		<g>
			<path fill="#D7D7F2" d="M166.4,363.3c-11.3,2-22.5,9.8-26.1,21c-3.5,11.1,2.5,19.9,14.1,20.2c11.3,0.3,26.2-2.8,29.8-15.4
				c3.4-12.1-8.4-18.2-17.9-21.5c-1.8-0.6-2.6,2.3-0.8,2.9c8.7,3,20.4,9,14.8,20.2c-4.6,9.2-16.7,11.1-26,10.8
				c-5.5-0.2-10.7-2.1-12-8c-0.9-4.4,0.6-9.1,2.8-12.9c4.8-7.8,13-12.8,21.9-14.4C169.1,365.8,168.3,362.9,166.4,363.3L166.4,363.3z
				"/>
		</g>
	</g>
	<g>
		<g>
			<path fill="#D7D7F2" d="M92,433c-8.4,11.6-15.9,23.8-22.5,36.5c-0.5,1.1,0.1,2.2,1.3,2.3c14.7,1.1,29.3,1,44-0.5
				c1.1-0.1,1.9-1.2,1.3-2.3c-6.5-11.5-13-23-19.5-34.6c-0.9-1.7-3.5-0.2-2.6,1.5c6.5,11.5,13,23,19.5,34.6c0.4-0.8,0.9-1.5,1.3-2.3
				c-14.6,1.5-29.3,1.6-44,0.5c0.4,0.8,0.9,1.5,1.3,2.3c6.6-12.7,14.1-24.9,22.5-36.5C95.7,432.9,93.1,431.4,92,433L92,433z"/>
		</g>
	</g>
	<g>
		<g>
			<g>
				<path fill="#D7D7F2" d="M536,513.6c8.4,11.7,17.8,22.6,28.3,32.6c1.4,1.3,3.5-0.8,2.1-2.1c-10.3-9.8-19.6-20.4-27.9-32
					C537.5,510.5,534.9,512,536,513.6L536,513.6z"/>
			</g>
		</g>
		<g>
			<g>
				<path fill="#D7D7F2" d="M562.6,511.6c-9.3,10.3-18.6,20.5-27.9,30.8c-1.3,1.4,0.8,3.6,2.1,2.1c9.3-10.3,18.6-20.5,27.9-30.8
					C566,512.3,563.9,510.1,562.6,511.6L562.6,511.6z"/>
			</g>
		</g>
	</g>
	<g>
		<g>
			<path fill="#D7D7F2" d="M249.4,445.3c-11.3,2-22.5,9.8-26.1,21c-3.5,11.1,2.5,19.9,14.1,20.2c11.3,0.3,26.2-2.8,29.8-15.4
				c3.4-12.1-8.4-18.2-17.9-21.5c-1.8-0.6-2.6,2.3-0.8,2.9c8.7,3,20.4,9,14.8,20.2c-4.6,9.2-16.7,11.1-26,10.8
				c-5.5-0.2-10.7-2.1-12-8c-0.9-4.4,0.6-9.1,2.8-12.9c4.8-7.8,13-12.8,21.9-14.4C252.1,447.8,251.3,444.9,249.4,445.3L249.4,445.3z
				"/>
		</g>
	</g>
	<g>
		<g>
			<path fill="#D7D7F2" d="M304,309c-8.4,11.6-15.9,23.8-22.5,36.5c-0.5,1.1,0.1,2.2,1.3,2.3c14.7,1.1,29.3,1,44-0.5
				c1.1-0.1,1.9-1.2,1.3-2.3c-6.5-11.5-13-23-19.5-34.6c-0.9-1.7-3.5-0.2-2.6,1.5c6.5,11.5,13,23,19.5,34.6c0.4-0.8,0.9-1.5,1.3-2.3
				c-14.6,1.5-29.3,1.6-44,0.5c0.4,0.8,0.9,1.5,1.3,2.3c6.6-12.7,14.1-24.9,22.5-36.5C307.7,308.9,305.1,307.4,304,309L304,309z"/>
		</g>
	</g>
	<g>
		<g>
			<g>
				<path fill="#D7D7F2" d="M303,519.6c8.4,11.7,17.8,22.6,28.3,32.6c1.4,1.3,3.5-0.8,2.1-2.1c-10.3-9.8-19.6-20.4-27.9-32
					C304.5,516.5,301.9,518,303,519.6L303,519.6z"/>
			</g>
		</g>
		<g>
			<g>
				<path fill="#D7D7F2" d="M329.6,517.6c-9.3,10.3-18.6,20.5-27.9,30.8c-1.3,1.4,0.8,3.6,2.1,2.1c9.3-10.3,18.6-20.5,27.9-30.8
					C333,518.3,330.9,516.1,329.6,517.6L329.6,517.6z"/>
			</g>
		</g>
	</g>
	<g>
		<g>
			<path fill="#D7D7F2" d="M696.4,343.3c-11.3,2-22.5,9.8-26.1,21c-3.5,11.1,2.5,19.9,14.1,20.2c11.3,0.3,26.2-2.8,29.8-15.4
				c3.4-12.1-8.4-18.2-17.9-21.5c-1.8-0.6-2.6,2.3-0.8,2.9c8.7,3,20.4,9,14.8,20.2c-4.6,9.2-16.7,11.1-26,10.8
				c-5.5-0.2-10.7-2.1-12-8c-0.9-4.4,0.6-9.1,2.8-12.9c4.8-7.8,13-12.8,21.9-14.4C699.1,345.8,698.3,342.9,696.4,343.3L696.4,343.3z
				"/>
		</g>
	</g>
	<g>
		<g>
			<path fill="#D7D7F2" d="M513,334c-8.4,11.6-15.9,23.8-22.5,36.5c-0.5,1.1,0.1,2.2,1.3,2.3c14.7,1.1,29.3,1,44-0.5
				c1.1-0.1,1.9-1.2,1.3-2.3c-6.5-11.5-13-23-19.5-34.6c-0.9-1.7-3.5-0.2-2.6,1.5c6.5,11.5,13,23,19.5,34.6c0.4-0.8,0.9-1.5,1.3-2.3
				c-14.6,1.5-29.3,1.6-44,0.5c0.4,0.8,0.9,1.5,1.3,2.3c6.6-12.7,14.1-24.9,22.5-36.5C516.7,333.9,514.1,332.4,513,334L513,334z"/>
		</g>
	</g>
	<g>
		<g>
			<g>
				<path fill="#D7D7F2" d="M528,81.6c8.4,11.7,17.8,22.6,28.3,32.6c1.4,1.3,3.5-0.8,2.1-2.1c-10.3-9.8-19.6-20.4-27.9-32
					C529.5,78.5,526.9,80,528,81.6L528,81.6z"/>
			</g>
		</g>
		<g>
			<g>
				<path fill="#D7D7F2" d="M554.6,79.6c-9.3,10.3-18.6,20.5-27.9,30.8c-1.3,1.4,0.8,3.6,2.1,2.1c9.3-10.3,18.6-20.5,27.9-30.8
					C558,80.3,555.9,78.1,554.6,79.6L554.6,79.6z"/>
			</g>
		</g>
	</g>
	<g>
		<g>
			<path fill="#D7D7F2" d="M631.4,124.3c-11.3,2-22.5,9.8-26.1,21c-3.5,11.1,2.5,19.9,14.1,20.2c11.3,0.3,26.2-2.8,29.8-15.4
				c3.4-12.1-8.4-18.2-17.9-21.5c-1.8-0.6-2.6,2.3-0.8,2.9c8.7,3,20.4,9,14.8,20.2c-4.6,9.2-16.7,11.1-26,10.8
				c-5.5-0.2-10.7-2.1-12-8c-0.9-4.4,0.6-9.1,2.8-12.9c4.8-7.8,13-12.8,21.9-14.4C634.1,126.8,633.3,123.9,631.4,124.3L631.4,124.3z
				"/>
		</g>
	</g>
	<g>
		<g>
			<path fill="#D7D7F2" d="M557,194c-8.4,11.6-15.9,23.8-22.5,36.5c-0.5,1.1,0.1,2.2,1.3,2.3c14.7,1.1,29.3,1,44-0.5
				c1.1-0.1,1.9-1.2,1.3-2.3c-6.5-11.5-13-23-19.5-34.6c-0.9-1.7-3.5-0.2-2.6,1.5c6.5,11.5,13,23,19.5,34.6c0.4-0.8,0.9-1.5,1.3-2.3
				c-14.6,1.5-29.3,1.6-44,0.5c0.4,0.8,0.9,1.5,1.3,2.3c6.6-12.7,14.1-24.9,22.5-36.5C560.7,193.9,558.1,192.4,557,194L557,194z"/>
		</g>
	</g>
	<g>
		<g>
			<g>
				<path fill="#D7D7F2" d="M149,498.6c8.4,11.7,17.8,22.6,28.3,32.6c1.4,1.3,3.5-0.8,2.1-2.1c-10.3-9.8-19.6-20.4-27.9-32
					C150.5,495.5,147.9,497,149,498.6L149,498.6z"/>
			</g>
		</g>
		<g>
			<g>
				<path fill="#D7D7F2" d="M175.6,496.6c-9.3,10.3-18.6,20.5-27.9,30.8c-1.3,1.4,0.8,3.6,2.1,2.1c9.3-10.3,18.6-20.5,27.9-30.8
					C179,497.3,176.9,495.1,175.6,496.6L175.6,496.6z"/>
			</g>
		</g>
	</g>
	<g>
		<g>
			<path fill="#D7D7F2" d="M82.4,545.3c-11.3,2-22.5,9.8-26.1,21c-3.5,11.1,2.5,19.9,14.1,20.2c11.3,0.3,26.2-2.8,29.8-15.4
				c3.4-12.1-8.4-18.2-17.9-21.5c-1.8-0.6-2.6,2.3-0.8,2.9c8.7,3,20.4,9,14.8,20.2c-4.6,9.2-16.7,11.1-26,10.8
				c-5.5-0.2-10.7-2.1-12-8c-0.9-4.4,0.6-9.1,2.8-12.9c4.8-7.8,13-12.8,21.9-14.4C85.1,547.8,84.3,544.9,82.4,545.3L82.4,545.3z"/>
		</g>
	</g>
	<g>
		<g>
			<path fill="#D7D7F2" d="M239,548c-8.4,11.6-15.9,23.8-22.5,36.5c-0.5,1.1,0.1,2.2,1.3,2.3c14.7,1.1,29.3,1,44-0.5
				c1.1-0.1,1.9-1.2,1.3-2.3c-6.5-11.5-13-23-19.5-34.6c-0.9-1.7-3.5-0.2-2.6,1.5c6.5,11.5,13,23,19.5,34.6c0.4-0.8,0.9-1.5,1.3-2.3
				c-14.6,1.5-29.3,1.6-44,0.5c0.4,0.8,0.9,1.5,1.3,2.3c6.6-12.7,14.1-24.9,22.5-36.5C242.7,547.9,240.1,546.4,239,548L239,548z"/>
		</g>
	</g>
	<g>
		<g>
			<g>
				<path fill="#D7D7F2" d="M685,198.6c8.4,11.7,17.8,22.6,28.3,32.6c1.4,1.3,3.5-0.8,2.1-2.1c-10.3-9.8-19.6-20.4-27.9-32
					C686.5,195.5,683.9,197,685,198.6L685,198.6z"/>
			</g>
		</g>
		<g>
			<g>
				<path fill="#D7D7F2" d="M711.6,196.6c-9.3,10.3-18.6,20.5-27.9,30.8c-1.3,1.4,0.8,3.6,2.1,2.1c9.3-10.3,18.6-20.5,27.9-30.8
					C715,197.3,712.9,195.1,711.6,196.6L711.6,196.6z"/>
			</g>
		</g>
	</g>
	<g>
		<g>
			<path fill="#D7D7F2" d="M662,19c-8.4,11.6-15.9,23.8-22.5,36.5c-0.5,1.1,0.1,2.2,1.3,2.3c14.7,1.1,29.3,1,44-0.5
				c1.1-0.1,1.9-1.2,1.3-2.3c-6.5-11.5-13-23-19.5-34.6c-0.9-1.7-3.5-0.2-2.6,1.5c6.5,11.5,13,23,19.5,34.6c0.4-0.8,0.9-1.5,1.3-2.3
				c-14.6,1.5-29.3,1.6-44,0.5c0.4,0.8,0.9,1.5,1.3,2.3c6.6-12.7,14.1-24.9,22.5-36.5C665.7,18.9,663.1,17.4,662,19L662,19z"/>
		</g>
	</g>
	<g>
		<g>
			<g>
				<path fill="#D7D7F2" d="M749,441.6c8.4,11.7,17.8,22.6,28.3,32.6c1.4,1.3,3.5-0.8,2.1-2.1c-10.3-9.8-19.6-20.4-27.9-32
					C750.5,438.5,747.9,440,749,441.6L749,441.6z"/>
			</g>
		</g>
		<g>
			<g>
				<path fill="#D7D7F2" d="M775.6,439.6c-9.3,10.3-18.6,20.5-27.9,30.8c-1.3,1.4,0.8,3.6,2.1,2.1c9.3-10.3,18.6-20.5,27.9-30.8
					C779,440.3,776.9,438.1,775.6,439.6L775.6,439.6z"/>
			</g>
		</g>
	</g>
	<g>
		<g>
			<g>
				<path fill="#D7D7F2" d="M591,291.6c8.4,11.7,17.8,22.6,28.3,32.6c1.4,1.3,3.5-0.8,2.1-2.1c-10.3-9.8-19.6-20.4-27.9-32
					C592.5,288.5,589.9,290,591,291.6L591,291.6z"/>
			</g>
		</g>
		<g>
			<g>
				<path fill="#D7D7F2" d="M617.6,289.6c-9.3,10.3-18.6,20.5-27.9,30.8c-1.3,1.4,0.8,3.6,2.1,2.1c9.3-10.3,18.6-20.5,27.9-30.8
					C621,290.3,618.9,288.1,617.6,289.6L617.6,289.6z"/>
			</g>
		</g>
	</g>
	<g>
		<g>
			<path fill="#D7D7F2" d="M746.4,526.3c-11.3,2-22.5,9.8-26.1,21c-3.5,11.1,2.5,19.9,14.1,20.2c11.3,0.3,26.2-2.8,29.8-15.4
				c3.4-12.1-8.4-18.2-17.9-21.5c-1.8-0.6-2.6,2.3-0.8,2.9c8.7,3,20.4,9,14.8,20.2c-4.6,9.2-16.7,11.1-26,10.8
				c-5.5-0.2-10.7-2.1-12-8c-0.9-4.4,0.6-9.1,2.8-12.9c4.8-7.8,13-12.8,21.9-14.4C749.1,528.8,748.3,525.9,746.4,526.3L746.4,526.3z
				"/>
		</g>
	</g>
	<g>
		<g>
			<path fill="#D7D7F2" d="M620,427c-8.4,11.6-15.9,23.8-22.5,36.5c-0.5,1.1,0.1,2.2,1.3,2.3c14.7,1.1,29.3,1,44-0.5
				c1.1-0.1,1.9-1.2,1.3-2.3c-6.5-11.5-13-23-19.5-34.6c-0.9-1.7-3.5-0.2-2.6,1.5c6.5,11.5,13,23,19.5,34.6c0.4-0.8,0.9-1.5,1.3-2.3
				c-14.6,1.5-29.3,1.6-44,0.5c0.4,0.8,0.9,1.5,1.3,2.3c6.6-12.7,14.1-24.9,22.5-36.5C623.7,426.9,621.1,425.4,620,427L620,427z"/>
		</g>
	</g>
</g>
</svg>
