<?xml version="1.0" encoding="utf-8"?>
<!-- Generator: Adobe Illustrator 18.1.1, SVG Export Plug-In . SVG Version: 6.00 Build 0)  -->
<svg version="1.1" id="Layer_1" xmlns="http://www.w3.org/2000/svg" xmlns:xlink="http://www.w3.org/1999/xlink" x="0px" y="0px"
	 viewBox="0 0 800 600" enable-background="new 0 0 800 600" xml:space="preserve">
<rect x="-5.6" y="-7.8" fill="#273637" width="810.2" height="615.8"/>
<rect x="-39.6" y="-22.8" fill="#273637" width="867.7" height="659.5"/>
<g opacity="5.000000e-02">
	<g>
		<path fill="#D7D7F2" d="M77,47.4c-2.5,0-5.7,0.4-7.9-0.9c-2.1-1.2-3.4-4.3-5.3-6c-2.1-1.9-4.6-2.7-5.5-5.7
			c-1.3-4.2,1.4-10.4-4.5-11.8c-0.1,1-0.3,2-0.4,2.9c0.1,0,0.1,0,0.2,0c-0.1-1-0.3-2-0.4-2.9c-3.2,0.8-3.7,3.1-3.8,6.1
			c0,1.3,0.2,2.8,0,4.1c-0.6,4.6-4.6,5.5-7.4,8.4c-2.3,2.4-3.5,5.3-7.3,5.7c-1.5,0.2-3.1-0.1-4.7,0c-2.9,0.2-5.8,1.9-5.3,5.3
			c0.4,2.8,2.6,3.9,5.1,4c1.6,0.1,3.3-0.2,4.9,0c4,0.4,4.9,3.2,7.3,5.7c2.8,2.9,6.8,3.7,7.4,8.4c0.1,1.2,0,2.5,0,3.7
			c0,3,0.4,5.7,3.8,6.5c0.1-1,0.3-2,0.4-2.9c0,0-0.1,0-0.1,0c0.1,1,0.3,2,0.4,2.9c4.6-1.1,3.7-5.1,3.9-8.8c0-0.5-0.1-1,0-1.5
			c0.4-3.6,2.4-4.3,4.8-6.3c3.2-2.7,5.2-7.2,9.6-7.8c2.8-0.3,6.1,0.9,8.4-1.2c3.5-3.2,0.6-7.5-3.3-8.1c-1.9-0.3-2.7,2.6-0.8,2.9
			c1.8,2.3,2.1,3.4,0.7,3.4c-0.2,0-0.4,0-0.6,0c-0.6,0.2-1.5,0-2.2,0c-1.2,0-2.5-0.1-3.7,0.1c-4.6,0.8-5.6,4.2-8.7,7.1
			c-2.9,2.8-6.4,3.8-7.2,8.3c-0.4,2.1,1,8.2-1.9,8.9c-1.7,0.4-1.3,2.9,0.4,2.9c0,0,0.1,0,0.1,0c1.7,0,2.1-2.5,0.4-2.9
			c-2.8-0.7-1.4-6.6-1.7-8.7c-0.7-3.9-3.1-5.2-6-7.4c-3.6-2.6-4.9-7.2-9.6-8.2c-1.6-0.3-6.4,0.7-7.4-0.2c-0.6-0.6,1-3.1,1.4-3.3
			c0.4-0.2,2.2,0,2.7,0c1.1,0,2.2,0.1,3.3-0.2c4.3-0.9,5.5-4.7,8.6-7.3c3-2.6,6.2-3.7,7-8c0.4-2-1-8.2,1.8-8.9
			c1.7-0.4,1.3-2.9-0.4-2.9c-0.1,0-0.1,0-0.2,0c-1.7,0-2.1,2.6-0.4,2.9c3.1,0.7,1.6,6.5,2,8.7c0.7,4.3,3.7,5.4,6.7,8
			c3,2.6,4,6.2,8.1,7.4c2.3,0.6,4.8,0.4,7.2,0.4C78.9,50.4,78.9,47.4,77,47.4z"/>
	</g>
</g>
<g opacity="5.000000e-02">
	<g>
		<path fill="#D7D7F2" d="M200.4,84.2c-1.7-1.7-4.3-3.7-5-6.2c-0.6-2.5,0.7-5.6,0.5-8.1c-0.3-3.4-1.5-6,0.9-9.1
			c2.5-3.2,7.2-5.4,4.4-10.1c-0.8,0.6-1.6,1.2-2.4,1.8c0.1,0.1,0.1,0.1,0.2,0.2c0.6-0.8,1.2-1.6,1.8-2.4c-2.8-1.7-4.9-0.4-7,1.6
			c-1,0.9-1.8,2.1-2.9,2.9c-3.7,2.9-7.1,0.7-11.1,0.7c-3.4,0.1-6.6,0.6-9.7-1.5c-1.1-0.8-1.9-2.1-3-3c-2.1-1.8-5.3-2.6-7.3-0.1
			c-1.7,2-1.2,4.4,0.3,6.2c1,1.3,2.5,2.2,3.5,3.5c2.4,3.1,1.6,6.2,1.5,9.6c-0.1,4,2.2,7.4-0.7,11.1c-0.8,1.1-2,1.9-2.9,2.9
			c-2,2.1-3.3,4.2-1.6,7c0.8-0.6,1.6-1.2,2.4-1.8c0,0-0.1-0.1-0.1-0.1c-0.6,0.8-1.2,1.6-1.8,2.4c4,2.5,6.2-1,9-3.4
			c3-2.6,5.3-2.6,9.3-2c4.3,0.6,8.2-1.7,12,1.4c2.3,1.8,3.9,5.3,7.3,5c4.3-0.4,4.9-5,2.7-8c-1.1-1.5-3.7,0-2.6,1.5
			c-0.4,2.9-1,3.9-1.9,2.9c-0.1-0.1-0.3-0.3-0.4-0.4c-0.6-0.3-1.1-1.1-1.5-1.5c-0.9-0.9-1.7-1.8-2.7-2.5c-3.8-2.7-6.9-1-11.2-1.1
			c-4.1-0.1-7.2-1.8-10.9,0.7c-1.8,1.2-5.1,6.5-7.6,5c-1.5-0.9-3,1.2-1.8,2.4c0,0,0.1,0.1,0.1,0.1c1.2,1.2,3.3-0.3,2.4-1.8
			c-1.5-2.4,3.7-5.7,4.9-7.3c2-2.8,1.7-5.6,1.1-8.8c-0.8-4.4,1.5-9-1.1-13.1c-0.9-1.4-5.2-4.2-5.2-5.5c0-0.9,2.9-1.5,3.3-1.4
			c0.4,0.1,1.2,1.2,1.6,1.6c0.9,0.9,1.8,1.9,2.8,2.6c4,2.6,8.1,0.3,12.5,1c3.5,0.6,6.3,1.3,9.5-0.9c1.7-1.2,5-6.3,7.3-4.9
			c1.5,0.9,3-1.2,1.8-2.4c-0.1-0.1-0.1-0.1-0.2-0.2c-1.2-1.2-3.3,0.3-2.4,1.8c1.6,2.7-3.5,5.7-4.8,7.5c-2.3,3.2-1.5,6-1.1,9.5
			c0.4,4.4-1.6,8.4,1.1,12.4c1.2,1.8,3,3.2,4.5,4.7C199.6,87.7,201.7,85.5,200.4,84.2z"/>
	</g>
</g>
<g opacity="5.000000e-02">
	<g>
		<path fill="#D7D7F2" d="M64.8,264.1c-1.7-1.7-4.3-3.7-5-6.2c-0.6-2.5,0.7-5.6,0.5-8.1c-0.3-3.4-1.5-6,0.9-9.1
			c2.5-3.2,7.2-5.4,4.4-10.1c-0.8,0.6-1.6,1.2-2.4,1.8c0.1,0.1,0.1,0.1,0.2,0.2c0.6-0.8,1.2-1.6,1.8-2.4c-2.8-1.7-4.9-0.4-7,1.6
			c-1,0.9-1.8,2.1-2.9,2.9c-3.7,2.9-7.1,0.7-11.1,0.7c-3.4,0.1-6.6,0.6-9.7-1.5c-1.1-0.8-1.9-2.1-3-3c-2.1-1.8-5.3-2.6-7.3-0.1
			c-1.7,2-1.2,4.4,0.3,6.2c1,1.3,2.5,2.2,3.5,3.5c2.4,3.1,1.6,6.2,1.5,9.6c-0.1,4,2.2,7.4-0.7,11.1c-0.8,1.1-2,1.9-2.9,2.9
			c-2,2.1-3.3,4.2-1.6,7c0.8-0.6,1.6-1.2,2.4-1.8c0,0-0.1-0.1-0.1-0.1c-0.6,0.8-1.2,1.6-1.8,2.4c4,2.5,6.2-1,9-3.4
			c3-2.6,5.3-2.6,9.3-2c4.3,0.6,8.2-1.7,12,1.4c2.3,1.8,3.9,5.3,7.3,5c4.3-0.4,4.9-5,2.7-8c-1.1-1.5-3.7,0-2.6,1.5
			c-0.4,2.9-1,3.9-1.9,2.9c-0.1-0.1-0.3-0.3-0.4-0.4c-0.6-0.3-1.1-1.1-1.5-1.5c-0.9-0.9-1.7-1.8-2.7-2.5c-3.8-2.7-6.9-1-11.2-1.1
			c-4.1-0.1-7.2-1.8-10.9,0.7c-1.8,1.2-5.1,6.5-7.6,5c-1.5-0.9-3,1.2-1.8,2.4c0,0,0.1,0.1,0.1,0.1c1.2,1.2,3.3-0.3,2.4-1.8
			c-1.5-2.4,3.7-5.7,4.9-7.3c2-2.8,1.7-5.6,1.1-8.8c-0.8-4.4,1.5-9-1.1-13.1c-0.9-1.4-5.2-4.2-5.2-5.5c0-0.9,2.9-1.5,3.3-1.4
			c0.4,0.1,1.2,1.2,1.6,1.6c0.9,0.9,1.8,1.9,2.8,2.6c4,2.6,8.1,0.3,12.5,1c3.5,0.6,6.3,1.3,9.5-0.9c1.7-1.2,5-6.3,7.3-4.9
			c1.5,0.9,3-1.2,1.8-2.4c-0.1-0.1-0.1-0.1-0.2-0.2c-1.2-1.2-3.3,0.3-2.4,1.8c1.6,2.7-3.5,5.7-4.8,7.5c-2.3,3.2-1.5,6-1.1,9.5
			c0.4,4.4-1.6,8.4,1.1,12.4c1.2,1.8,3,3.2,4.5,4.7C64.1,267.6,66.2,265.5,64.8,264.1z"/>
	</g>
</g>
<g opacity="5.000000e-02">
	<g>
		<path fill="#D7D7F2" d="M126.4,144.6c-8.9,0-17.1-3.4-19.8-12.7c-1.1-3.7,1-11.2-4.7-11.5c-6.4-0.3-4.2,7.5-5.3,11.5
			c-1.3,4.4-4.3,8.1-8.2,10.4c-3.8,2.2-7.3,1.8-11.4,2.3c-3.7,0.4-5.9,5.9-2.1,8.1c1.5,0.9,3.8,0.4,5.5,0.5
			c5.4,0.3,10.4,2.8,13.6,7.3c2.5,3.4,3.2,7.2,3.3,11.4c0,2-0.1,4.1,1.9,5.1c1.3,0.7,3.8,0.6,5-0.2c2-1.3,1.6-3.6,1.7-5.7
			c0.2-5.5,2.2-10.4,6.4-13.9c4-3.3,8.1-3.6,13.1-4c2.3-0.2,4-0.6,4.6-3.2c0.6-2.6-0.8-4.7-3.2-5.3c-1.9-0.5-2.7,2.4-0.8,2.9
			c1.7,0.5,1,2.1,0.2,2.7c-0.2,0.1-1.5,0-1.6,0c-1,0.2-2.1,0-3.1,0.1c-2.9,0.3-5.7,1.2-8.2,2.6c-5,2.9-8.7,7.8-9.9,13.5
			c-0.4,1.7,0.4,5.6-0.5,7c-0.9,1.5-2.1,1.1-2.6-0.3c-0.3-0.7,0-2.9,0-3.7c-0.4-5.7-3.1-11-7.6-14.6c-2.1-1.8-4.6-3.1-7.3-3.8
			c-2.4-0.7-5.3-0.1-7.6-0.8c-1.2-0.4-2.2-0.9-1.2-2.1c0.7-0.8,2-0.4,3-0.5c2.9-0.1,5.7-0.6,8.5-1.8c5.1-2.3,9.2-6.6,11.1-11.9
			c0.9-2.5,1-5,1.2-7.6c0.3-3.5,2.3-3.5,2.6,0c1.2,13.6,9.8,21.3,23.5,21.3C128.4,147.6,128.4,144.6,126.4,144.6z"/>
	</g>
</g>
<g opacity="5.000000e-02">
	<g>
		<path fill="#D7D7F2" d="M259.7,253.7c-8.9,0-17.1-3.4-19.8-12.7c-1.1-3.7,1-11.2-4.7-11.5c-6.4-0.3-4.2,7.5-5.3,11.5
			c-1.3,4.4-4.3,8.1-8.2,10.4c-3.8,2.2-7.3,1.8-11.4,2.3c-3.7,0.4-5.9,5.9-2.1,8.1c1.5,0.9,3.8,0.4,5.5,0.5
			c5.4,0.3,10.4,2.8,13.6,7.3c2.5,3.4,3.2,7.2,3.3,11.4c0,2-0.1,4.1,1.9,5.1c1.3,0.7,3.8,0.6,5-0.2c2-1.3,1.6-3.6,1.7-5.7
			c0.2-5.5,2.2-10.4,6.4-13.9c4-3.3,8.1-3.6,13.1-4c2.3-0.2,4-0.6,4.6-3.2c0.6-2.6-0.8-4.7-3.2-5.3c-1.9-0.5-2.7,2.4-0.8,2.9
			c1.7,0.5,1,2.1,0.2,2.7c-0.2,0.1-1.5,0-1.6,0c-1,0.2-2.1,0-3.1,0.1c-2.9,0.3-5.7,1.2-8.2,2.6c-5,2.9-8.7,7.8-9.9,13.5
			c-0.4,1.7,0.4,5.6-0.5,7c-0.9,1.5-2.1,1.1-2.6-0.3c-0.3-0.7,0-2.9,0-3.7c-0.4-5.7-3.1-11-7.6-14.6c-2.1-1.8-4.6-3.1-7.3-3.8
			c-2.4-0.7-5.3-0.1-7.6-0.8c-1.2-0.4-2.2-0.9-1.2-2.1c0.7-0.8,2-0.4,3-0.5c2.9-0.1,5.7-0.6,8.5-1.8c5.1-2.3,9.2-6.6,11.1-11.9
			c0.9-2.5,1-5,1.2-7.6c0.3-3.5,2.3-3.5,2.6,0c1.2,13.6,9.8,21.3,23.5,21.3C261.6,256.7,261.6,253.7,259.7,253.7z"/>
	</g>
</g>
<g opacity="5.000000e-02">
	<g>
		<path fill="#D7D7F2" d="M179.7,201.2c-0.6,10.3-16.1,10.4-16.1,0C163.6,190.8,179.1,190.9,179.7,201.2c0.1,1.9,3.1,1.9,3,0
			c-0.3-6-4.8-11-11-11c-6,0-11.1,5-11,11c0,5.8,4.7,10.7,10.5,11c6.4,0.3,11.2-4.8,11.5-11C182.8,199.3,179.8,199.3,179.7,201.2z"
			/>
	</g>
</g>
<g opacity="5.000000e-02">
	<g>
		<path fill="#D7D7F2" d="M131.8,11.1c-0.6,10.3-16.1,10.4-16.1,0C115.7,0.7,131.2,0.8,131.8,11.1c0.1,1.9,3.1,1.9,3,0
			c-0.3-6-4.8-11-11-11c-6,0-11.1,5-11,11c0,5.8,4.7,10.7,10.5,11c6.4,0.3,11.2-4.8,11.5-11C134.9,9.1,131.9,9.1,131.8,11.1z"/>
	</g>
</g>
<g opacity="5.000000e-02">
	<g>
		<path fill="#D7D7F2" d="M23.3,131.5c-0.6,10.3-16.1,10.4-16.1,0C7.3,121.2,22.8,121.2,23.3,131.5c0.1,1.9,3.1,1.9,3,0
			c-0.3-6-4.8-11-11-11c-6,0-11.1,5-11,11c0,5.8,4.7,10.7,10.5,11c6.4,0.3,11.2-4.8,11.5-11C26.4,129.6,23.4,129.6,23.3,131.5z"/>
	</g>
</g>
<g opacity="5.000000e-02">
	<g>
		<path fill="#D7D7F2" d="M789.9,90.5c0-2.5-0.4-5.7,0.9-7.9c1.2-2.1,4.3-3.4,6-5.3c1.9-2.1,2.7-4.6,5.7-5.5
			c4.2-1.3,10.4,1.4,11.8-4.5c-1-0.1-2-0.3-2.9-0.4c0,0.1,0,0.1,0,0.2c1-0.1,2-0.3,2.9-0.4c-0.8-3.2-3.1-3.7-6.1-3.8
			c-1.3,0-2.8,0.2-4.1,0c-4.6-0.6-5.5-4.6-8.4-7.4c-2.4-2.3-5.3-3.5-5.7-7.3c-0.2-1.5,0.1-3.1,0-4.7c-0.2-2.9-1.9-5.8-5.3-5.3
			c-2.8,0.4-3.9,2.6-4,5.1c-0.1,1.6,0.2,3.3,0,4.9c-0.4,4-3.2,4.9-5.7,7.3c-2.9,2.8-3.7,6.8-8.4,7.4c-1.2,0.1-2.5,0-3.7,0
			c-3,0-5.7,0.4-6.5,3.8c1,0.1,2,0.3,2.9,0.4c0,0,0-0.1,0-0.1c-1,0.1-2,0.3-2.9,0.4c1.1,4.6,5.1,3.7,8.8,3.9c0.5,0,1-0.1,1.5,0
			c3.6,0.4,4.3,2.4,6.3,4.8c2.7,3.2,7.2,5.2,7.8,9.6c0.3,2.8-0.9,6.1,1.2,8.4c3.2,3.5,7.5,0.6,8.1-3.3c0.3-1.9-2.6-2.7-2.9-0.8
			c-2.3,1.8-3.4,2.1-3.4,0.7c0-0.2,0-0.4,0-0.6c-0.2-0.6,0-1.5,0-2.2c0-1.2,0.1-2.5-0.1-3.7c-0.8-4.6-4.2-5.6-7.1-8.7
			c-2.8-2.9-3.8-6.4-8.3-7.2c-2.1-0.4-8.2,1-8.9-1.9c-0.4-1.7-2.9-1.3-2.9,0.4c0,0,0,0.1,0,0.1c0,1.7,2.5,2.1,2.9,0.4
			c0.7-2.8,6.6-1.4,8.7-1.7c3.9-0.7,5.2-3.1,7.4-6c2.6-3.6,7.2-4.9,8.2-9.6c0.3-1.6-0.7-6.4,0.2-7.4c0.6-0.6,3.1,1,3.3,1.4
			c0.2,0.4,0,2.2,0,2.7c0,1.1-0.1,2.2,0.2,3.3c0.9,4.3,4.7,5.5,7.3,8.6c2.6,3,3.7,6.2,8,7c2,0.4,8.2-1,8.9,1.8
			c0.4,1.7,2.9,1.3,2.9-0.4c0-0.1,0-0.1,0-0.2c0-1.7-2.6-2.1-2.9-0.4c-0.7,3.1-6.5,1.6-8.7,2c-4.3,0.7-5.4,3.7-8,6.7
			c-2.6,3-6.2,4-7.4,8.1c-0.6,2.3-0.4,4.8-0.4,7.2C786.9,92.5,789.9,92.5,789.9,90.5z"/>
	</g>
</g>
<g opacity="5.000000e-02">
	<g>
		<path fill="#D7D7F2" d="M753.1,213.9c1.7-1.7,3.7-4.3,6.2-5c2.5-0.6,5.6,0.7,8.1,0.5c3.4-0.3,6-1.5,9.1,0.9
			c3.2,2.5,5.4,7.2,10.1,4.4c-0.6-0.8-1.2-1.6-1.8-2.4c-0.1,0.1-0.1,0.1-0.2,0.2c0.8,0.6,1.6,1.2,2.4,1.8c1.7-2.8,0.4-4.9-1.6-7
			c-0.9-1-2.1-1.8-2.9-2.9c-2.9-3.7-0.7-7.1-0.7-11.1c-0.1-3.4-0.6-6.6,1.5-9.7c0.8-1.1,2.1-1.9,3-3c1.8-2.1,2.6-5.3,0.1-7.3
			c-2-1.7-4.4-1.2-6.2,0.3c-1.3,1-2.2,2.5-3.5,3.5c-3.1,2.4-6.2,1.6-9.6,1.5c-4-0.1-7.4,2.2-11.1-0.7c-1.1-0.8-1.9-2-2.9-2.9
			c-2.1-2-4.2-3.3-7-1.6c0.6,0.8,1.2,1.6,1.8,2.4c0,0,0.1-0.1,0.1-0.1c-0.8-0.6-1.6-1.2-2.4-1.8c-2.5,4,1,6.2,3.4,9
			c2.6,3,2.6,5.3,2,9.3c-0.6,4.3,1.7,8.2-1.4,12c-1.8,2.3-5.3,3.9-5,7.3c0.4,4.3,5,4.9,8,2.7c1.5-1.1,0-3.7-1.5-2.6
			c-2.9-0.4-3.9-1-2.9-1.9c0.1-0.1,0.3-0.3,0.4-0.4c0.3-0.6,1.1-1.1,1.5-1.5c0.9-0.9,1.8-1.7,2.5-2.7c2.7-3.8,1-6.9,1.1-11.2
			c0.1-4.1,1.8-7.2-0.7-10.9c-1.2-1.8-6.5-5.1-5-7.6c0.9-1.5-1.2-3-2.4-1.8c0,0-0.1,0.1-0.1,0.1c-1.2,1.2,0.3,3.3,1.8,2.4
			c2.4-1.5,5.7,3.7,7.3,4.9c2.8,2,5.6,1.7,8.8,1.1c4.4-0.8,9,1.5,13.1-1.1c1.4-0.9,4.2-5.2,5.5-5.2c0.9,0,1.5,2.9,1.4,3.3
			c-0.1,0.4-1.2,1.2-1.6,1.6c-0.9,0.9-1.9,1.8-2.6,2.8c-2.6,4-0.3,8.1-1,12.5c-0.6,3.5-1.3,6.3,0.9,9.5c1.2,1.7,6.3,5,4.9,7.3
			c-0.9,1.5,1.2,3,2.4,1.8c0.1-0.1,0.1-0.1,0.2-0.2c1.2-1.2-0.3-3.3-1.8-2.4c-2.7,1.6-5.7-3.5-7.5-4.8c-3.2-2.3-6-1.5-9.5-1.1
			c-4.4,0.4-8.4-1.6-12.4,1.1c-1.8,1.2-3.2,3-4.7,4.5C749.6,213.2,751.8,215.3,753.1,213.9z"/>
	</g>
</g>
<g opacity="5.000000e-02">
	<g>
		<path fill="#D7D7F2" d="M573.2,78.4c1.7-1.7,3.7-4.3,6.2-5c2.5-0.6,5.6,0.7,8.1,0.5c3.4-0.3,6-1.5,9.1,0.9
			c3.2,2.5,5.4,7.2,10.1,4.4c-0.6-0.8-1.2-1.6-1.8-2.4c-0.1,0.1-0.1,0.1-0.2,0.2c0.8,0.6,1.6,1.2,2.4,1.8c1.7-2.8,0.4-4.9-1.6-7
			c-0.9-1-2.1-1.8-2.9-2.9c-2.9-3.7-0.7-7.1-0.7-11.1c-0.1-3.4-0.6-6.6,1.5-9.7c0.8-1.1,2.1-1.9,3-3c1.8-2.1,2.6-5.3,0.1-7.3
			c-2-1.7-4.4-1.2-6.2,0.3c-1.3,1-2.2,2.5-3.5,3.5c-3.1,2.4-6.2,1.6-9.6,1.5c-4-0.1-7.4,2.2-11.1-0.7c-1.1-0.8-1.9-2-2.9-2.9
			c-2.1-2-4.2-3.3-7-1.6c0.6,0.8,1.2,1.6,1.8,2.4c0,0,0.1-0.1,0.1-0.1c-0.8-0.6-1.6-1.2-2.4-1.8c-2.5,4,1,6.2,3.4,9
			c2.6,3,2.6,5.3,2,9.3c-0.6,4.3,1.7,8.2-1.4,12c-1.8,2.3-5.3,3.9-5,7.3c0.4,4.3,5,4.9,8,2.7c1.5-1.1,0-3.7-1.5-2.6
			c-2.9-0.4-3.9-1-2.9-1.9c0.1-0.1,0.3-0.3,0.4-0.4c0.3-0.6,1.1-1.1,1.5-1.5c0.9-0.9,1.8-1.7,2.5-2.7c2.7-3.8,1-6.9,1.1-11.2
			c0.1-4.1,1.8-7.2-0.7-10.9c-1.2-1.8-6.5-5.1-5-7.6c0.9-1.5-1.2-3-2.4-1.8c0,0-0.1,0.1-0.1,0.1c-1.2,1.2,0.3,3.3,1.8,2.4
			c2.4-1.5,5.7,3.7,7.3,4.9c2.8,2,5.6,1.7,8.8,1.1c4.4-0.8,9,1.5,13.1-1.1c1.4-0.9,4.2-5.2,5.5-5.2c0.9,0,1.5,2.9,1.4,3.3
			c-0.1,0.4-1.2,1.2-1.6,1.6c-0.9,0.9-1.9,1.8-2.6,2.8c-2.6,4-0.3,8.1-1,12.5c-0.6,3.5-1.3,6.3,0.9,9.5c1.2,1.7,6.3,5,4.9,7.3
			c-0.9,1.5,1.2,3,2.4,1.8c0.1-0.1,0.1-0.1,0.2-0.2c1.2-1.2-0.3-3.3-1.8-2.4c-2.7,1.6-5.7-3.5-7.5-4.8c-3.2-2.3-6-1.5-9.5-1.1
			c-4.4,0.4-8.4-1.6-12.4,1.1c-1.8,1.2-3.2,3-4.7,4.5C569.7,77.6,571.8,79.8,573.2,78.4z"/>
	</g>
</g>
<g opacity="5.000000e-02">
	<g>
		<path fill="#D7D7F2" d="M692.7,140c0-8.9,3.4-17.1,12.7-19.8c3.7-1.1,11.2,1,11.5-4.7c0.3-6.4-7.5-4.2-11.5-5.3
			c-4.4-1.3-8.1-4.3-10.4-8.2c-2.2-3.8-1.8-7.3-2.3-11.4c-0.4-3.7-5.9-5.9-8.1-2.1c-0.9,1.5-0.4,3.8-0.5,5.5
			c-0.3,5.4-2.8,10.4-7.3,13.6c-3.4,2.5-7.2,3.2-11.4,3.3c-2,0-4.1-0.1-5.1,1.9c-0.7,1.3-0.6,3.8,0.2,5c1.3,2,3.6,1.6,5.7,1.7
			c5.5,0.2,10.4,2.2,13.9,6.4c3.3,4,3.6,8.1,4,13.1c0.2,2.3,0.6,4,3.2,4.6c2.6,0.6,4.7-0.8,5.3-3.2c0.5-1.9-2.4-2.7-2.9-0.8
			c-0.5,1.7-2.1,1-2.7,0.2c-0.1-0.2,0-1.5,0-1.6c-0.2-1,0-2.1-0.1-3.1c-0.3-2.9-1.2-5.7-2.6-8.2c-2.9-5-7.8-8.7-13.5-9.9
			c-1.7-0.4-5.6,0.4-7-0.5c-1.5-0.9-1.1-2.1,0.3-2.6c0.7-0.3,2.9,0,3.7,0c5.7-0.4,11-3.1,14.6-7.6c1.8-2.1,3.1-4.6,3.8-7.3
			c0.7-2.4,0.1-5.3,0.8-7.6c0.4-1.2,0.9-2.2,2.1-1.2c0.8,0.7,0.4,2,0.5,3c0.1,2.9,0.6,5.7,1.8,8.5c2.3,5.1,6.6,9.2,11.9,11.1
			c2.5,0.9,5,1,7.6,1.2c3.5,0.3,3.5,2.3,0,2.6c-13.6,1.2-21.3,9.8-21.3,23.5C689.7,141.9,692.7,141.9,692.7,140z"/>
	</g>
</g>
<g opacity="5.000000e-02">
	<g>
		<path fill="#D7D7F2" d="M697.3,300.2c0-8.9,3.4-17.1,12.7-19.8c3.7-1.1,11.2,1,11.5-4.7c0.3-6.4-7.5-4.2-11.5-5.3
			c-4.4-1.3-8.1-4.3-10.4-8.2c-2.2-3.8-1.8-7.3-2.3-11.4c-0.4-3.7-5.9-5.9-8.1-2.1c-0.9,1.5-0.4,3.8-0.5,5.5
			c-0.3,5.4-2.8,10.4-7.3,13.6c-3.4,2.5-7.2,3.2-11.4,3.3c-2,0-4.1-0.1-5.1,1.9c-0.7,1.3-0.6,3.8,0.2,5c1.3,2,3.6,1.6,5.7,1.7
			c5.5,0.2,10.4,2.2,13.9,6.4c3.3,4,3.6,8.1,4,13.1c0.2,2.3,0.6,4,3.2,4.6c2.6,0.6,4.7-0.8,5.3-3.2c0.5-1.9-2.4-2.7-2.9-0.8
			c-0.5,1.7-2.1,1-2.7,0.2c-0.1-0.2,0-1.5,0-1.6c-0.2-1,0-2.1-0.1-3.1c-0.3-2.9-1.2-5.7-2.6-8.2c-2.9-5-7.8-8.7-13.5-9.9
			c-1.7-0.4-5.6,0.4-7-0.5c-1.5-0.9-1.1-2.1,0.3-2.6c0.7-0.3,2.9,0,3.7,0c5.7-0.4,11-3.1,14.6-7.6c1.8-2.1,3.1-4.6,3.8-7.3
			c0.7-2.4,0.1-5.3,0.8-7.6c0.4-1.2,0.9-2.2,2.1-1.2c0.8,0.7,0.4,2,0.5,3c0.1,2.9,0.6,5.7,1.8,8.5c2.3,5.1,6.6,9.2,11.9,11.1
			c2.5,0.9,5,1,7.6,1.2c3.5,0.3,3.5,2.3,0,2.6c-13.6,1.2-21.3,9.8-21.3,23.5C694.3,302.2,697.3,302.2,697.3,300.2z"/>
	</g>
</g>
<g opacity="5.000000e-02">
	<g>
		<path fill="#D7D7F2" d="M636.1,193.2c-10.3-0.6-10.4-16.1,0-16.1C646.5,177.2,646.4,192.7,636.1,193.2c-1.9,0.1-1.9,3.1,0,3
			c6-0.3,11-4.8,11-11c0-6-5-11.1-11-11c-5.8,0-10.7,4.7-11,10.5c-0.3,6.4,4.8,11.2,11,11.5C638,196.3,638,193.3,636.1,193.2z"/>
	</g>
</g>
<g opacity="5.000000e-02">
	<g>
		<path fill="#D7D7F2" d="M826.2,145.3c-10.3-0.6-10.4-16.1,0-16.1C836.6,129.3,836.5,144.8,826.2,145.3c-1.9,0.1-1.9,3.1,0,3
			c6-0.3,11-4.8,11-11c0-6-5-11.1-11-11c-5.8,0-10.7,4.7-11,10.5c-0.3,6.4,4.8,11.2,11,11.5C828.2,148.4,828.2,145.4,826.2,145.3z"
			/>
	</g>
</g>
<g opacity="5.000000e-02">
	<g>
		<path fill="#D7D7F2" d="M705.8,36.9c-10.3-0.6-10.4-16.1,0-16.1C716.2,20.8,716.1,36.3,705.8,36.9c-1.9,0.1-1.9,3.1,0,3
			c6-0.3,11-4.8,11-11c0-6-5-11.1-11-11c-5.8,0-10.7,4.7-11,10.5c-0.3,6.4,4.8,11.2,11,11.5C707.7,40,707.7,37,705.8,36.9z"/>
	</g>
</g>
<g opacity="5.000000e-02">
	<g>
		<path fill="#D7D7F2" d="M479,224.1c2.5,0,5.7-0.4,7.9,0.9c2.1,1.2,3.4,4.3,5.3,6c2.1,1.9,4.6,2.7,5.5,5.7
			c1.3,4.2-1.4,10.4,4.5,11.8c0.1-1,0.3-2,0.4-2.9c-0.1,0-0.1,0-0.2,0c0.1,1,0.3,2,0.4,2.9c3.2-0.8,3.7-3.1,3.8-6.1
			c0-1.3-0.2-2.8,0-4.1c0.6-4.6,4.6-5.5,7.4-8.4c2.3-2.4,3.5-5.3,7.3-5.7c1.5-0.2,3.1,0.1,4.7,0c2.9-0.2,5.8-1.9,5.3-5.3
			c-0.4-2.8-2.6-3.9-5.1-4c-1.6-0.1-3.3,0.2-4.9,0c-4-0.4-4.9-3.2-7.3-5.7c-2.8-2.9-6.8-3.7-7.4-8.4c-0.1-1.2,0-2.5,0-3.7
			c0-3-0.4-5.7-3.8-6.5c-0.1,1-0.3,2-0.4,2.9c0,0,0.1,0,0.1,0c-0.1-1-0.3-2-0.4-2.9c-4.6,1.1-3.7,5.1-3.9,8.8c0,0.5,0.1,1,0,1.5
			c-0.4,3.6-2.4,4.3-4.8,6.3c-3.2,2.7-5.2,7.2-9.6,7.8c-2.8,0.3-6.1-0.9-8.4,1.2c-3.5,3.2-0.6,7.5,3.3,8.1c1.9,0.3,2.7-2.6,0.8-2.9
			c-1.8-2.3-2.1-3.4-0.7-3.4c0.2,0,0.4,0,0.6,0c0.6-0.2,1.5,0,2.2,0c1.2,0,2.5,0.1,3.7-0.1c4.6-0.8,5.6-4.2,8.7-7.1
			c2.9-2.8,6.4-3.8,7.2-8.3c0.4-2.1-1-8.2,1.9-8.9c1.7-0.4,1.3-2.9-0.4-2.9c0,0-0.1,0-0.1,0c-1.7,0-2.1,2.5-0.4,2.9
			c2.8,0.7,1.4,6.6,1.7,8.7c0.7,3.9,3.1,5.2,6,7.4c3.6,2.6,4.9,7.2,9.6,8.2c1.6,0.3,6.4-0.7,7.4,0.2c0.6,0.6-1,3.1-1.4,3.3
			c-0.4,0.2-2.2,0-2.7,0c-1.1,0-2.2-0.1-3.3,0.2c-4.3,0.9-5.5,4.7-8.6,7.3c-3,2.6-6.2,3.7-7,8c-0.4,2,1,8.2-1.8,8.9
			c-1.7,0.4-1.3,2.9,0.4,2.9c0.1,0,0.1,0,0.2,0c1.7,0,2.1-2.6,0.4-2.9c-3.1-0.7-1.6-6.5-2-8.7c-0.7-4.3-3.7-5.4-6.7-8
			c-3-2.6-4-6.2-8.1-7.4c-2.3-0.6-4.8-0.4-7.2-0.4C477.1,221.1,477.1,224.1,479,224.1z"/>
	</g>
</g>
<g opacity="5.000000e-02">
	<g>
		<path fill="#D7D7F2" d="M318.3,168.5c1.7,1.7,4.3,3.7,5,6.2c0.6,2.5-0.7,5.6-0.5,8.1c0.3,3.4,1.5,6-0.9,9.1
			c-2.5,3.2-7.2,5.4-4.4,10.1c0.8-0.6,1.6-1.2,2.4-1.8c-0.1-0.1-0.1-0.1-0.2-0.2c-0.6,0.8-1.2,1.6-1.8,2.4c2.8,1.7,4.9,0.4,7-1.6
			c1-0.9,1.8-2.1,2.9-2.9c3.7-2.9,7.1-0.7,11.1-0.7c3.4-0.1,6.6-0.6,9.7,1.5c1.1,0.8,1.9,2.1,3,3c2.1,1.8,5.3,2.6,7.3,0.1
			c1.7-2,1.2-4.4-0.3-6.2c-1-1.3-2.5-2.2-3.5-3.5c-2.4-3.1-1.6-6.2-1.5-9.6c0.1-4-2.2-7.4,0.7-11.1c0.8-1.1,2-1.9,2.9-2.9
			c2-2.1,3.3-4.2,1.6-7c-0.8,0.6-1.6,1.2-2.4,1.8c0,0,0.1,0.1,0.1,0.1c0.6-0.8,1.2-1.6,1.8-2.4c-4-2.5-6.2,1-9,3.4
			c-3,2.6-5.3,2.6-9.3,2c-4.3-0.6-8.2,1.7-12-1.4c-2.3-1.8-3.9-5.3-7.3-5c-4.3,0.4-4.9,5-2.7,8c1.1,1.5,3.7,0,2.6-1.5
			c0.4-2.9,1-3.9,1.9-2.9c0.1,0.1,0.3,0.3,0.4,0.4c0.6,0.3,1.1,1.1,1.5,1.5c0.9,0.9,1.7,1.8,2.7,2.5c3.8,2.7,6.9,1,11.2,1.1
			c4.1,0.1,7.2,1.8,10.9-0.7c1.8-1.2,5.1-6.5,7.6-5c1.5,0.9,3-1.2,1.8-2.4c0,0-0.1-0.1-0.1-0.1c-1.2-1.2-3.3,0.3-2.4,1.8
			c1.5,2.4-3.7,5.7-4.9,7.3c-2,2.8-1.7,5.6-1.1,8.8c0.8,4.4-1.5,9,1.1,13.1c0.9,1.4,5.2,4.2,5.2,5.5c0,0.9-2.9,1.5-3.3,1.4
			c-0.4-0.1-1.2-1.2-1.6-1.6c-0.9-0.9-1.8-1.9-2.8-2.6c-4-2.6-8.1-0.3-12.5-1c-3.5-0.6-6.3-1.3-9.5,0.9c-1.7,1.2-5,6.3-7.3,4.9
			c-1.5-0.9-3,1.2-1.8,2.4c0.1,0.1,0.1,0.1,0.2,0.2c1.2,1.2,3.3-0.3,2.4-1.8c-1.6-2.7,3.5-5.7,4.8-7.5c2.3-3.2,1.5-6,1.1-9.5
			c-0.4-4.4,1.6-8.4-1.1-12.4c-1.2-1.8-3-3.2-4.5-4.7C319,165.1,316.9,167.2,318.3,168.5z"/>
	</g>
</g>
<g opacity="5.000000e-02">
	<g>
		<path fill="#D7D7F2" d="M453.8-11.4c1.7,1.7,4.3,3.7,5,6.2c0.6,2.5-0.7,5.6-0.5,8.1c0.3,3.4,1.5,6-0.9,9.1
			c-2.5,3.2-7.2,5.4-4.4,10.1c0.8-0.6,1.6-1.2,2.4-1.8c-0.1-0.1-0.1-0.1-0.2-0.2c-0.6,0.8-1.2,1.6-1.8,2.4c2.8,1.7,4.9,0.4,7-1.6
			c1-0.9,1.8-2.1,2.9-2.9c3.7-2.9,7.1-0.7,11.1-0.7c3.4-0.1,6.6-0.6,9.7,1.5c1.1,0.8,1.9,2.1,3,3c2.1,1.8,5.3,2.6,7.3,0.1
			c1.7-2,1.2-4.4-0.3-6.2c-1-1.3-2.5-2.2-3.5-3.5c-2.4-3.1-1.6-6.2-1.5-9.6c0.1-4-2.2-7.4,0.7-11.1c0.8-1.1,2-1.9,2.9-2.9
			c2-2.1,3.3-4.2,1.6-7c-0.8,0.6-1.6,1.2-2.4,1.8c0,0,0.1,0.1,0.1,0.1c0.6-0.8,1.2-1.6,1.8-2.4c-4-2.5-6.2,1-9,3.4
			c-3,2.6-5.3,2.6-9.3,2c-4.3-0.6-8.2,1.7-12-1.4c-2.3-1.8-3.9-5.3-7.3-5c-4.3,0.4-4.9,5-2.7,8c1.1,1.5,3.7,0,2.6-1.5
			c0.4-2.9,1-3.9,1.9-2.9c0.1,0.1,0.3,0.3,0.4,0.4c0.6,0.3,1.1,1.1,1.5,1.5c0.9,0.9,1.7,1.8,2.7,2.5c3.8,2.7,6.9,1,11.2,1.1
			c4.1,0.1,7.2,1.8,10.9-0.7c1.8-1.2,5.1-6.5,7.6-5c1.5,0.9,3-1.2,1.8-2.4c0,0-0.1-0.1-0.1-0.1c-1.2-1.2-3.3,0.3-2.4,1.8
			c1.5,2.4-3.7,5.7-4.9,7.3c-2,2.8-1.7,5.6-1.1,8.8c0.8,4.4-1.5,9,1.1,13.1c0.9,1.4,5.2,4.2,5.2,5.5c0,0.9-2.9,1.5-3.3,1.4
			c-0.4-0.1-1.2-1.2-1.6-1.6c-0.9-0.9-1.8-1.9-2.8-2.6c-4-2.6-8.1-0.3-12.5-1c-3.5-0.6-6.3-1.3-9.5,0.9c-1.7,1.2-5,6.3-7.3,4.9
			c-1.5-0.9-3,1.2-1.8,2.4c0.1,0.1,0.1,0.1,0.2,0.2c1.2,1.2,3.3-0.3,2.4-1.8c-1.6-2.7,3.5-5.7,4.8-7.5c2.3-3.2,1.5-6,1.1-9.5
			c-0.4-4.4,1.6-8.4-1.1-12.4c-1.2-1.8-3-3.2-4.5-4.7C454.6-14.9,452.4-12.7,453.8-11.4z"/>
	</g>
</g>
<g opacity="5.000000e-02">
	<g>
		<path fill="#D7D7F2" d="M392.2,108.1c8.9,0,17.1,3.4,19.8,12.7c1.1,3.7-1,11.2,4.7,11.5c6.4,0.3,4.2-7.5,5.3-11.5
			c1.3-4.4,4.3-8.1,8.2-10.4c3.8-2.2,7.3-1.8,11.4-2.3c3.7-0.4,5.9-5.9,2.1-8.1c-1.5-0.9-3.8-0.4-5.5-0.5
			c-5.4-0.3-10.4-2.8-13.6-7.3c-2.5-3.4-3.2-7.2-3.3-11.4c0-2,0.1-4.1-1.9-5.1c-1.3-0.7-3.8-0.6-5,0.2c-2,1.3-1.6,3.6-1.7,5.7
			c-0.2,5.5-2.2,10.4-6.4,13.9c-4,3.3-8.1,3.6-13.1,4c-2.3,0.2-4,0.6-4.6,3.2c-0.6,2.6,0.8,4.7,3.2,5.3c1.9,0.5,2.7-2.4,0.8-2.9
			c-1.7-0.5-1-2.1-0.2-2.7c0.2-0.1,1.5,0,1.6,0c1-0.2,2.1,0,3.1-0.1c2.9-0.3,5.7-1.2,8.2-2.6c5-2.9,8.7-7.8,9.9-13.5
			c0.4-1.7-0.4-5.6,0.5-7c0.9-1.5,2.1-1.1,2.6,0.3c0.3,0.7,0,2.9,0,3.7c0.4,5.7,3.1,11,7.6,14.6c2.1,1.8,4.6,3.1,7.3,3.8
			c2.4,0.7,5.3,0.1,7.6,0.8c1.2,0.4,2.2,0.9,1.2,2.1c-0.7,0.8-2,0.4-3,0.5c-2.9,0.1-5.7,0.6-8.5,1.8c-5.1,2.3-9.2,6.6-11.1,11.9
			c-0.9,2.5-1,5-1.2,7.6c-0.3,3.5-2.3,3.5-2.6,0c-1.2-13.6-9.8-21.3-23.5-21.3C390.3,105.1,390.3,108.1,392.2,108.1z"/>
	</g>
</g>
<g opacity="5.000000e-02">
	<g>
		<path fill="#D7D7F2" d="M259-1c8.9,0,17.1,3.4,19.8,12.7c1.1,3.7-1,11.2,4.7,11.5c6.4,0.3,4.2-7.5,5.3-11.5
			C290,7.3,293,3.6,297,1.3c3.8-2.2,7.3-1.8,11.4-2.3c3.7-0.4,5.9-5.9,2.1-8.1c-1.5-0.9-3.8-0.4-5.5-0.5c-5.4-0.3-10.4-2.8-13.6-7.3
			c-2.5-3.4-3.2-7.2-3.3-11.4c0-2,0.1-4.1-1.9-5.1c-1.3-0.7-3.8-0.6-5,0.2c-2,1.3-1.6,3.6-1.7,5.7c-0.2,5.5-2.2,10.4-6.4,13.9
			c-4,3.3-8.1,3.6-13.1,4c-2.3,0.2-4,0.6-4.6,3.2c-0.6,2.6,0.8,4.7,3.2,5.3c1.9,0.5,2.7-2.4,0.8-2.9c-1.7-0.5-1-2.1-0.2-2.7
			c0.2-0.1,1.5,0,1.6,0c1-0.2,2.1,0,3.1-0.1c2.9-0.3,5.7-1.2,8.2-2.6c5-2.9,8.7-7.8,9.9-13.5c0.4-1.7-0.4-5.6,0.5-7
			c0.9-1.5,2.1-1.1,2.6,0.3c0.3,0.7,0,2.9,0,3.7c0.4,5.7,3.1,11,7.6,14.6c2.1,1.8,4.6,3.1,7.3,3.8c2.4,0.7,5.3,0.1,7.6,0.8
			c1.2,0.4,2.2,0.9,1.2,2.1c-0.7,0.8-2,0.4-3,0.5c-2.9,0.1-5.7,0.6-8.5,1.8c-5.1,2.3-9.2,6.6-11.1,11.9c-0.9,2.5-1,5-1.2,7.6
			c-0.3,3.5-2.3,3.5-2.6,0C281.2,3.7,272.6-4,259-4C257-4,257-1,259-1z"/>
	</g>
</g>
<g opacity="5.000000e-02">
	<g>
		<path fill="#D7D7F2" d="M339,51.5c0.6-10.3,16.1-10.4,16.1,0C355,61.9,339.5,61.8,339,51.5c-0.1-1.9-3.1-1.9-3,0
			c0.3,6,4.8,11,11,11c6,0,11.1-5,11-11c0-5.8-4.7-10.7-10.5-11c-6.4-0.3-11.2,4.8-11.5,11C335.9,53.4,338.9,53.4,339,51.5z"/>
	</g>
</g>
<g opacity="5.000000e-02">
	<g>
		<path fill="#D7D7F2" d="M386.9,241.7c0.6-10.3,16.1-10.4,16.1,0C402.9,252,387.4,252,386.9,241.7c-0.1-1.9-3.1-1.9-3,0
			c0.3,6,4.8,11,11,11c6,0,11.1-5,11-11c0-5.8-4.7-10.7-10.5-11c-6.4-0.3-11.2,4.8-11.5,11C383.8,243.6,386.8,243.6,386.9,241.7z"/>
	</g>
</g>
<g opacity="5.000000e-02">
	<g>
		<path fill="#D7D7F2" d="M495.3,121.2c0.6-10.3,16.1-10.4,16.1,0C511.4,131.6,495.9,131.5,495.3,121.2c-0.1-1.9-3.1-1.9-3,0
			c0.3,6,4.8,11,11,11c6,0,11.1-5,11-11c0-5.8-4.7-10.7-10.5-11c-6.4-0.3-11.2,4.8-11.5,11C492.2,123.1,495.2,123.1,495.3,121.2z"/>
	</g>
</g>
<g opacity="5.000000e-02">
	<g>
		<path fill="#D7D7F2" d="M734,535.2c2.5,0,5.7-0.4,7.9,0.9c2.1,1.2,3.4,4.3,5.3,6c2.1,1.9,4.6,2.7,5.5,5.7
			c1.3,4.2-1.4,10.4,4.5,11.8c0.1-1,0.3-2,0.4-2.9c-0.1,0-0.1,0-0.2,0c0.1,1,0.3,2,0.4,2.9c3.2-0.8,3.7-3.1,3.8-6.1
			c0-1.3-0.2-2.8,0-4.1c0.6-4.6,4.6-5.5,7.4-8.4c2.3-2.4,3.5-5.3,7.3-5.7c1.5-0.2,3.1,0.1,4.7,0c2.9-0.2,5.8-1.9,5.3-5.3
			c-0.4-2.8-2.6-3.9-5.1-4c-1.6-0.1-3.3,0.2-4.9,0c-4-0.4-4.9-3.2-7.3-5.7c-2.8-2.9-6.8-3.7-7.4-8.4c-0.1-1.2,0-2.5,0-3.7
			c0-3-0.4-5.7-3.8-6.5c-0.1,1-0.3,2-0.4,2.9c0,0,0.1,0,0.1,0c-0.1-1-0.3-2-0.4-2.9c-4.6,1.1-3.7,5.1-3.9,8.8c0,0.5,0.1,1,0,1.5
			c-0.4,3.6-2.4,4.3-4.8,6.3c-3.2,2.7-5.2,7.2-9.6,7.8c-2.8,0.3-6.1-0.9-8.4,1.2c-3.5,3.2-0.6,7.5,3.3,8.1c1.9,0.3,2.7-2.6,0.8-2.9
			c-1.8-2.3-2.1-3.4-0.7-3.4c0.2,0,0.4,0,0.6,0c0.6-0.2,1.5,0,2.2,0c1.2,0,2.5,0.1,3.7-0.1c4.6-0.8,5.6-4.2,8.7-7.1
			c2.9-2.8,6.4-3.8,7.2-8.3c0.4-2.1-1-8.2,1.9-8.9c1.7-0.4,1.3-2.9-0.4-2.9c0,0-0.1,0-0.1,0c-1.7,0-2.1,2.5-0.4,2.9
			c2.8,0.7,1.4,6.6,1.7,8.7c0.7,3.9,3.1,5.2,6,7.4c3.6,2.6,4.9,7.2,9.6,8.2c1.6,0.3,6.4-0.7,7.4,0.2c0.6,0.6-1,3.1-1.4,3.3
			c-0.4,0.2-2.2,0-2.7,0c-1.1,0-2.2-0.1-3.3,0.2c-4.3,0.9-5.5,4.7-8.6,7.3c-3,2.6-6.2,3.7-7,8c-0.4,2,1,8.2-1.8,8.9
			c-1.7,0.4-1.3,2.9,0.4,2.9c0.1,0,0.1,0,0.2,0c1.7,0,2.1-2.6,0.4-2.9c-3.1-0.7-1.6-6.5-2-8.7c-0.7-4.3-3.7-5.4-6.7-8
			c-3-2.6-4-6.2-8.1-7.4c-2.3-0.6-4.8-0.4-7.2-0.4C732.1,532.2,732.1,535.2,734,535.2z"/>
	</g>
</g>
<g opacity="5.000000e-02">
	<g>
		<path fill="#D7D7F2" d="M610.7,498.4c1.7,1.7,4.3,3.7,5,6.2c0.6,2.5-0.7,5.6-0.5,8.1c0.3,3.4,1.5,6-0.9,9.1
			c-2.5,3.2-7.2,5.4-4.4,10.1c0.8-0.6,1.6-1.2,2.4-1.8c-0.1-0.1-0.1-0.1-0.2-0.2c-0.6,0.8-1.2,1.6-1.8,2.4c2.8,1.7,4.9,0.4,7-1.6
			c1-0.9,1.8-2.1,2.9-2.9c3.7-2.9,7.1-0.7,11.1-0.7c3.4-0.1,6.6-0.6,9.7,1.5c1.1,0.8,1.9,2.1,3,3c2.1,1.8,5.3,2.6,7.3,0.1
			c1.7-2,1.2-4.4-0.3-6.2c-1-1.3-2.5-2.2-3.5-3.5c-2.4-3.1-1.6-6.2-1.5-9.6c0.1-4-2.2-7.4,0.7-11.1c0.8-1.1,2-1.9,2.9-2.9
			c2-2.1,3.3-4.2,1.6-7c-0.8,0.6-1.6,1.2-2.4,1.8c0,0,0.1,0.1,0.1,0.1c0.6-0.8,1.2-1.6,1.8-2.4c-4-2.5-6.2,1-9,3.4
			c-3,2.6-5.3,2.6-9.3,2c-4.3-0.6-8.2,1.7-12-1.4c-2.3-1.8-3.9-5.3-7.3-5c-4.3,0.4-4.9,5-2.7,8c1.1,1.5,3.7,0,2.6-1.5
			c0.4-2.9,1-3.9,1.9-2.9c0.1,0.1,0.3,0.3,0.4,0.4c0.6,0.3,1.1,1.1,1.5,1.5c0.9,0.9,1.7,1.8,2.7,2.5c3.8,2.7,6.9,1,11.2,1.1
			c4.1,0.1,7.2,1.8,10.9-0.7c1.8-1.2,5.1-6.5,7.6-5c1.5,0.9,3-1.2,1.8-2.4c0,0-0.1-0.1-0.1-0.1c-1.2-1.2-3.3,0.3-2.4,1.8
			c1.5,2.4-3.7,5.7-4.9,7.3c-2,2.8-1.7,5.6-1.1,8.8c0.8,4.4-1.5,9,1.1,13.1c0.9,1.4,5.2,4.2,5.2,5.5c0,0.9-2.9,1.5-3.3,1.4
			c-0.4-0.1-1.2-1.2-1.6-1.6c-0.9-0.9-1.8-1.9-2.8-2.6c-4-2.6-8.1-0.3-12.5-1c-3.5-0.6-6.3-1.3-9.5,0.9c-1.7,1.2-5,6.3-7.3,4.9
			c-1.5-0.9-3,1.2-1.8,2.4c0.1,0.1,0.1,0.1,0.2,0.2c1.2,1.2,3.3-0.3,2.4-1.8c-1.6-2.7,3.5-5.7,4.8-7.5c2.3-3.2,1.5-6,1.1-9.5
			c-0.4-4.4,1.6-8.4-1.1-12.4c-1.2-1.8-3-3.2-4.5-4.7C611.4,494.9,609.3,497,610.7,498.4z"/>
	</g>
</g>
<g opacity="5.000000e-02">
	<g>
		<path fill="#D7D7F2" d="M746.2,318.5c1.7,1.7,4.3,3.7,5,6.2c0.6,2.5-0.7,5.6-0.5,8.1c0.3,3.4,1.5,6-0.9,9.1
			c-2.5,3.2-7.2,5.4-4.4,10.1c0.8-0.6,1.6-1.2,2.4-1.8c-0.1-0.1-0.1-0.1-0.2-0.2c-0.6,0.8-1.2,1.6-1.8,2.4c2.8,1.7,4.9,0.4,7-1.6
			c1-0.9,1.8-2.1,2.9-2.9c3.7-2.9,7.1-0.7,11.1-0.7c3.4-0.1,6.6-0.6,9.7,1.5c1.1,0.8,1.9,2.1,3,3c2.1,1.8,5.3,2.6,7.3,0.1
			c1.7-2,1.2-4.4-0.3-6.2c-1-1.3-2.5-2.2-3.5-3.5c-2.4-3.1-1.6-6.2-1.5-9.6c0.1-4-2.2-7.4,0.7-11.1c0.8-1.1,2-1.9,2.9-2.9
			c2-2.1,3.3-4.2,1.6-7c-0.8,0.6-1.6,1.2-2.4,1.8c0,0,0.1,0.1,0.1,0.1c0.6-0.8,1.2-1.6,1.8-2.4c-4-2.5-6.2,1-9,3.4
			c-3,2.6-5.3,2.6-9.3,2c-4.3-0.6-8.2,1.7-12-1.4c-2.3-1.8-3.9-5.3-7.3-5c-4.3,0.4-4.9,5-2.7,8c1.1,1.5,3.7,0,2.6-1.5
			c0.4-2.9,1-3.9,1.9-2.9c0.1,0.1,0.3,0.3,0.4,0.4c0.6,0.3,1.1,1.1,1.5,1.5c0.9,0.9,1.7,1.8,2.7,2.5c3.8,2.7,6.9,1,11.2,1.1
			c4.1,0.1,7.2,1.8,10.9-0.7c1.8-1.2,5.1-6.5,7.6-5c1.5,0.9,3-1.2,1.8-2.4c0,0-0.1-0.1-0.1-0.1c-1.2-1.2-3.3,0.3-2.4,1.8
			c1.5,2.4-3.7,5.7-4.9,7.3c-2,2.8-1.7,5.6-1.1,8.8c0.8,4.4-1.5,9,1.1,13.1c0.9,1.4,5.2,4.2,5.2,5.5c0,0.9-2.9,1.5-3.3,1.4
			c-0.4-0.1-1.2-1.2-1.6-1.6c-0.9-0.9-1.8-1.9-2.8-2.6c-4-2.6-8.1-0.3-12.5-1c-3.5-0.6-6.3-1.3-9.5,0.9c-1.7,1.2-5,6.3-7.3,4.9
			c-1.5-0.9-3,1.2-1.8,2.4c0.1,0.1,0.1,0.1,0.2,0.2c1.2,1.2,3.3-0.3,2.4-1.8c-1.6-2.7,3.5-5.7,4.8-7.5c2.3-3.2,1.5-6,1.1-9.5
			c-0.4-4.4,1.6-8.4-1.1-12.4c-1.2-1.8-3-3.2-4.5-4.7C746.9,315,744.8,317.1,746.2,318.5z"/>
	</g>
</g>
<g opacity="5.000000e-02">
	<g>
		<path fill="#D7D7F2" d="M684.6,438c8.9,0,17.1,3.4,19.8,12.7c1.1,3.7-1,11.2,4.7,11.5c6.4,0.3,4.2-7.5,5.3-11.5
			c1.3-4.4,4.3-8.1,8.2-10.4c3.8-2.2,7.3-1.8,11.4-2.3c3.7-0.4,5.9-5.9,2.1-8.1c-1.5-0.9-3.8-0.4-5.5-0.5
			c-5.4-0.3-10.4-2.8-13.6-7.3c-2.5-3.4-3.2-7.2-3.3-11.4c0-2,0.1-4.1-1.9-5.1c-1.3-0.7-3.8-0.6-5,0.2c-2,1.3-1.6,3.6-1.7,5.7
			c-0.2,5.5-2.2,10.4-6.4,13.9c-4,3.3-8.1,3.6-13.1,4c-2.3,0.2-4,0.6-4.6,3.2c-0.6,2.6,0.8,4.7,3.2,5.3c1.9,0.5,2.7-2.4,0.8-2.9
			c-1.7-0.5-1-2.1-0.2-2.7c0.2-0.1,1.5,0,1.6,0c1-0.2,2.1,0,3.1-0.1c2.9-0.3,5.7-1.2,8.2-2.6c5-2.9,8.7-7.8,9.9-13.5
			c0.4-1.7-0.4-5.6,0.5-7c0.9-1.5,2.1-1.1,2.6,0.3c0.3,0.7,0,2.9,0,3.7c0.4,5.7,3.1,11,7.6,14.6c2.1,1.8,4.6,3.1,7.3,3.8
			c2.4,0.7,5.3,0.1,7.6,0.8c1.2,0.4,2.2,0.9,1.2,2.1c-0.7,0.8-2,0.4-3,0.5c-2.9,0.1-5.7,0.6-8.5,1.8c-5.1,2.3-9.2,6.6-11.1,11.9
			c-0.9,2.5-1,5-1.2,7.6c-0.3,3.5-2.3,3.5-2.6,0c-1.2-13.6-9.8-21.3-23.5-21.3C682.7,435,682.7,438,684.6,438z"/>
	</g>
</g>
<g opacity="5.000000e-02">
	<g>
		<path fill="#D7D7F2" d="M551.3,328.9c8.9,0,17.1,3.4,19.8,12.7c1.1,3.7-1,11.2,4.7,11.5c6.4,0.3,4.2-7.5,5.3-11.5
			c1.3-4.4,4.3-8.1,8.2-10.4c3.8-2.2,7.3-1.8,11.4-2.3c3.7-0.4,5.9-5.9,2.1-8.1c-1.5-0.9-3.8-0.4-5.5-0.5
			c-5.4-0.3-10.4-2.8-13.6-7.3c-2.5-3.4-3.2-7.2-3.3-11.4c0-2,0.1-4.1-1.9-5.1c-1.3-0.7-3.8-0.6-5,0.2c-2,1.3-1.6,3.6-1.7,5.7
			c-0.2,5.5-2.2,10.4-6.4,13.9c-4,3.3-8.1,3.6-13.1,4c-2.3,0.2-4,0.6-4.6,3.2c-0.6,2.6,0.8,4.7,3.2,5.3c1.9,0.5,2.7-2.4,0.8-2.9
			c-1.7-0.5-1-2.1-0.2-2.7c0.2-0.1,1.5,0,1.6,0c1-0.2,2.1,0,3.1-0.1c2.9-0.3,5.7-1.2,8.2-2.6c5-2.9,8.7-7.8,9.9-13.5
			c0.4-1.7-0.4-5.6,0.5-7c0.9-1.5,2.1-1.1,2.6,0.3c0.3,0.7,0,2.9,0,3.7c0.4,5.7,3.1,11,7.6,14.6c2.1,1.8,4.6,3.1,7.3,3.8
			c2.4,0.7,5.3,0.1,7.6,0.8c1.2,0.4,2.2,0.9,1.2,2.1c-0.7,0.8-2,0.4-3,0.5c-2.9,0.1-5.7,0.6-8.5,1.8c-5.1,2.3-9.2,6.6-11.1,11.9
			c-0.9,2.5-1,5-1.2,7.6c-0.3,3.5-2.3,3.5-2.6,0c-1.2-13.6-9.8-21.3-23.5-21.3C549.4,325.9,549.4,328.9,551.3,328.9z"/>
	</g>
</g>
<g opacity="5.000000e-02">
	<g>
		<path fill="#D7D7F2" d="M631.3,381.4c0.6-10.3,16.1-10.4,16.1,0C647.4,391.7,631.9,391.7,631.3,381.4c-0.1-1.9-3.1-1.9-3,0
			c0.3,6,4.8,11,11,11c6,0,11.1-5,11-11c0-5.8-4.7-10.7-10.5-11c-6.4-0.3-11.2,4.8-11.5,11C628.2,383.3,631.2,383.3,631.3,381.4z"/>
	</g>
</g>
<g opacity="5.000000e-02">
	<g>
		<path fill="#D7D7F2" d="M679.2,571.5c0.6-10.3,16.1-10.4,16.1,0C695.3,581.9,679.8,581.8,679.2,571.5c-0.1-1.9-3.1-1.9-3,0
			c0.3,6,4.8,11,11,11c6,0,11.1-5,11-11c0-5.8-4.7-10.7-10.5-11c-6.4-0.3-11.2,4.8-11.5,11C676.1,573.4,679.1,573.4,679.2,571.5z"/>
	</g>
</g>
<g opacity="5.000000e-02">
	<g>
		<path fill="#D7D7F2" d="M787.7,451c0.6-10.3,16.1-10.4,16.1,0C803.8,461.4,788.3,461.3,787.7,451c-0.1-1.9-3.1-1.9-3,0
			c0.3,6,4.8,11,11,11c6,0,11.1-5,11-11c0-5.8-4.7-10.7-10.5-11c-6.4-0.3-11.2,4.8-11.5,11C784.6,453,787.6,453,787.7,451z"/>
	</g>
</g>
<g opacity="5.000000e-02">
	<g>
		<path fill="#D7D7F2" d="M21.1,492c0,2.5,0.4,5.7-0.9,7.9c-1.2,2.1-4.3,3.4-6,5.3c-1.9,2.1-2.7,4.6-5.7,5.5
			c-4.2,1.3-10.4-1.4-11.8,4.5c1,0.1,2,0.3,2.9,0.4c0-0.1,0-0.1,0-0.2c-1,0.1-2,0.3-2.9,0.4c0.8,3.2,3.1,3.7,6.1,3.8
			c1.3,0,2.8-0.2,4.1,0c4.6,0.6,5.5,4.6,8.4,7.4c2.4,2.3,5.3,3.5,5.7,7.3c0.2,1.5-0.1,3.1,0,4.7c0.2,2.9,1.9,5.8,5.3,5.3
			c2.8-0.4,3.9-2.6,4-5.1c0.1-1.6-0.2-3.3,0-4.9c0.4-4,3.2-4.9,5.7-7.3c2.9-2.8,3.7-6.8,8.4-7.4c1.2-0.1,2.5,0,3.7,0
			c3,0,5.7-0.4,6.5-3.8c-1-0.1-2-0.3-2.9-0.4c0,0,0,0.1,0,0.1c1-0.1,2-0.3,2.9-0.4c-1.1-4.6-5.1-3.7-8.8-3.9c-0.5,0-1,0.1-1.5,0
			c-3.6-0.4-4.3-2.4-6.3-4.8c-2.7-3.2-7.2-5.2-7.8-9.6c-0.3-2.8,0.9-6.1-1.2-8.4c-3.2-3.5-7.5-0.6-8.1,3.3c-0.3,1.9,2.6,2.7,2.9,0.8
			c2.3-1.8,3.4-2.1,3.4-0.7c0,0.2,0,0.4,0,0.6c0.2,0.6,0,1.5,0,2.2c0,1.2-0.1,2.5,0.1,3.7c0.8,4.6,4.2,5.6,7.1,8.7
			c2.8,2.9,3.8,6.4,8.3,7.2c2.1,0.4,8.2-1,8.9,1.9c0.4,1.7,2.9,1.3,2.9-0.4c0,0,0-0.1,0-0.1c0-1.7-2.5-2.1-2.9-0.4
			c-0.7,2.8-6.6,1.4-8.7,1.7c-3.9,0.7-5.2,3.1-7.4,6c-2.6,3.6-7.2,4.9-8.2,9.6c-0.3,1.6,0.7,6.4-0.2,7.4c-0.6,0.6-3.1-1-3.3-1.4
			c-0.2-0.4,0-2.2,0-2.7c0-1.1,0.1-2.2-0.2-3.3c-0.9-4.3-4.7-5.5-7.3-8.6c-2.6-3-3.7-6.2-8-7c-2-0.4-8.2,1-8.9-1.8
			c-0.4-1.7-2.9-1.3-2.9,0.4c0,0.1,0,0.1,0,0.2c0,1.7,2.6,2.1,2.9,0.4c0.7-3.1,6.5-1.6,8.7-2c4.3-0.7,5.4-3.7,8-6.7
			c2.6-3,6.2-4,7.4-8.1c0.6-2.3,0.4-4.8,0.4-7.2C24.1,490.1,21.1,490.1,21.1,492z"/>
	</g>
</g>
<g opacity="5.000000e-02">
	<g>
		<path fill="#D7D7F2" d="M146.6,307.1c-1.7,1.7-3.7,4.3-6.2,5c-2.5,0.6-5.6-0.7-8.1-0.5c-3.4,0.3-6,1.5-9.1-0.9
			c-3.2-2.5-5.4-7.2-10.1-4.4c0.6,0.8,1.2,1.6,1.8,2.4c0.1-0.1,0.1-0.1,0.2-0.2c-0.8-0.6-1.6-1.2-2.4-1.8c-1.7,2.8-0.4,4.9,1.6,7
			c0.9,1,2.1,1.8,2.9,2.9c2.9,3.7,0.7,7.1,0.7,11.1c0.1,3.4,0.6,6.6-1.5,9.7c-0.8,1.1-2.1,1.9-3,3c-1.8,2.1-2.6,5.3-0.1,7.3
			c2,1.7,4.4,1.2,6.2-0.3c1.3-1,2.2-2.5,3.5-3.5c3.1-2.4,6.2-1.6,9.6-1.5c4,0.1,7.4-2.2,11.1,0.7c1.1,0.8,1.9,2,2.9,2.9
			c2.1,2,4.2,3.3,7,1.6c-0.6-0.8-1.2-1.6-1.8-2.4c0,0-0.1,0.1-0.1,0.1c0.8,0.6,1.6,1.2,2.4,1.8c2.5-4-1-6.2-3.4-9
			c-2.6-3-2.6-5.3-2-9.3c0.6-4.3-1.7-8.2,1.4-12c1.8-2.3,5.3-3.9,5-7.3c-0.4-4.3-5-4.9-8-2.7c-1.5,1.1,0,3.7,1.5,2.6
			c2.9,0.4,3.9,1,2.9,1.9c-0.1,0.1-0.3,0.3-0.4,0.4c-0.3,0.6-1.1,1.1-1.5,1.5c-0.9,0.9-1.8,1.7-2.5,2.7c-2.7,3.8-1,6.9-1.1,11.2
			c-0.1,4.1-1.8,7.2,0.7,10.9c1.2,1.8,6.5,5.1,5,7.6c-0.9,1.5,1.2,3,2.4,1.8c0,0,0.1-0.1,0.1-0.1c1.2-1.2-0.3-3.3-1.8-2.4
			c-2.4,1.5-5.7-3.7-7.3-4.9c-2.8-2-5.6-1.7-8.8-1.1c-4.4,0.8-9-1.5-13.1,1.1c-1.4,0.9-4.2,5.2-5.5,5.2c-0.9,0-1.5-2.9-1.4-3.3
			c0.1-0.4,1.2-1.2,1.6-1.6c0.9-0.9,1.9-1.8,2.6-2.8c2.6-4,0.3-8.1,1-12.5c0.6-3.5,1.3-6.3-0.9-9.5c-1.2-1.7-6.3-5-4.9-7.3
			c0.9-1.5-1.2-3-2.4-1.8c-0.1,0.1-0.1,0.1-0.2,0.2c-1.2,1.2,0.3,3.3,1.8,2.4c2.7-1.6,5.7,3.5,7.5,4.8c3.2,2.3,6,1.5,9.5,1.1
			c4.4-0.4,8.4,1.6,12.4-1.1c1.8-1.2,3.2-3,4.7-4.5C150.1,307.9,148,305.8,146.6,307.1z"/>
	</g>
</g>
<g opacity="5.000000e-02">
	<g>
		<path fill="#D7D7F2" d="M223.5,483c-1.7,1.7-3.7,4.3-6.2,5c-2.5,0.6-5.6-0.7-8.1-0.5c-3.4,0.3-6,1.5-9.1-0.9
			c-3.2-2.5-5.4-7.2-10.1-4.4c0.6,0.8,1.2,1.6,1.8,2.4c0.1-0.1,0.1-0.1,0.2-0.2c-0.8-0.6-1.6-1.2-2.4-1.8c-1.7,2.8-0.4,4.9,1.6,7
			c0.9,1,2.1,1.8,2.9,2.9c2.9,3.7,0.7,7.1,0.7,11.1c0.1,3.4,0.6,6.6-1.5,9.7c-0.8,1.1-2.1,1.9-3,3c-1.8,2.1-2.6,5.3-0.1,7.3
			c2,1.7,4.4,1.2,6.2-0.3c1.3-1,2.2-2.5,3.5-3.5c3.1-2.4,6.2-1.6,9.6-1.5c4,0.1,7.4-2.2,11.1,0.7c1.1,0.8,1.9,2,2.9,2.9
			c2.1,2,4.2,3.3,7,1.6c-0.6-0.8-1.2-1.6-1.8-2.4c0,0-0.1,0.1-0.1,0.1c0.8,0.6,1.6,1.2,2.4,1.8c2.5-4-1-6.2-3.4-9
			c-2.6-3-2.6-5.3-2-9.3c0.6-4.3-1.7-8.2,1.4-12c1.8-2.3,5.3-3.9,5-7.3c-0.4-4.3-5-4.9-8-2.7c-1.5,1.1,0,3.7,1.5,2.6
			c2.9,0.4,3.9,1,2.9,1.9c-0.1,0.1-0.3,0.3-0.4,0.4c-0.3,0.6-1.1,1.1-1.5,1.5c-0.9,0.9-1.8,1.7-2.5,2.7c-2.7,3.8-1,6.9-1.1,11.2
			c-0.1,4.1-1.8,7.2,0.7,10.9c1.2,1.8,6.5,5.1,5,7.6c-0.9,1.5,1.2,3,2.4,1.8c0,0,0.1-0.1,0.1-0.1c1.2-1.2-0.3-3.3-1.8-2.4
			c-2.4,1.5-5.7-3.7-7.3-4.9c-2.8-2-5.6-1.7-8.8-1.1c-4.4,0.8-9-1.5-13.1,1.1c-1.4,0.9-4.2,5.2-5.5,5.2c-0.9,0-1.5-2.9-1.4-3.3
			c0.1-0.4,1.2-1.2,1.6-1.6c0.9-0.9,1.9-1.8,2.6-2.8c2.6-4,0.3-8.1,1-12.5c0.6-3.5,1.3-6.3-0.9-9.5c-1.2-1.7-6.3-5-4.9-7.3
			c0.9-1.5-1.2-3-2.4-1.8c-0.1,0.1-0.1,0.1-0.2,0.2c-1.2,1.2,0.3,3.3,1.8,2.4c2.7-1.6,5.7,3.5,7.5,4.8c3.2,2.3,6,1.5,9.5,1.1
			c4.4-0.4,8.4,1.6,12.4-1.1c1.8-1.2,3.2-3,4.7-4.5C227,483.8,224.8,481.7,223.5,483z"/>
	</g>
</g>
<g opacity="5.000000e-02">
	<g>
		<path fill="#D7D7F2" d="M116,408.9c0,8.9-3.4,17.1-12.7,19.8c-3.7,1.1-11.2-1-11.5,4.7c-0.3,6.4,7.5,4.2,11.5,5.3
			c4.4,1.3,8.1,4.3,10.4,8.2c2.2,3.8,1.8,7.3,2.3,11.4c0.4,3.7,5.9,5.9,8.1,2.1c0.9-1.5,0.4-3.8,0.5-5.5c0.3-5.4,2.8-10.4,7.3-13.6
			c3.4-2.5,7.2-3.2,11.4-3.3c2,0,4.1,0.1,5.1-1.9c0.7-1.3,0.6-3.8-0.2-5c-1.3-2-3.6-1.6-5.7-1.7c-5.5-0.2-10.4-2.2-13.9-6.4
			c-3.3-4-3.6-8.1-4-13.1c-0.2-2.3-0.6-4-3.2-4.6c-2.6-0.6-4.7,0.8-5.3,3.2c-0.5,1.9,2.4,2.7,2.9,0.8c0.5-1.7,2.1-1,2.7-0.2
			c0.1,0.2,0,1.5,0,1.6c0.2,1,0,2.1,0.1,3.1c0.3,2.9,1.2,5.7,2.6,8.2c2.9,5,7.8,8.7,13.5,9.9c1.7,0.4,5.6-0.4,7,0.5
			c1.5,0.9,1.1,2.1-0.3,2.6c-0.7,0.3-2.9,0-3.7,0c-5.7,0.4-11,3.1-14.6,7.6c-1.8,2.1-3.1,4.6-3.8,7.3c-0.7,2.4-0.1,5.3-0.8,7.6
			c-0.4,1.2-0.9,2.2-2.1,1.2c-0.8-0.7-0.4-2-0.5-3c-0.1-2.9-0.6-5.7-1.8-8.5c-2.3-5.1-6.6-9.2-11.9-11.1c-2.5-0.9-5-1-7.6-1.2
			c-3.5-0.3-3.5-2.3,0-2.6c13.6-1.2,21.3-9.8,21.3-23.5C119,407,116,407,116,408.9z"/>
	</g>
</g>
<g opacity="5.000000e-02">
	<g>
		<path fill="#D7D7F2" d="M227.4,309.3c0,8.9-3.4,17.1-12.7,19.8c-3.7,1.1-11.2-1-11.5,4.7c-0.3,6.4,7.5,4.2,11.5,5.3
			c4.4,1.3,8.1,4.3,10.4,8.2c2.2,3.8,1.8,7.3,2.3,11.4c0.4,3.7,5.9,5.9,8.1,2.1c0.9-1.5,0.4-3.8,0.5-5.5c0.3-5.4,2.8-10.4,7.3-13.6
			c3.4-2.5,7.2-3.2,11.4-3.3c2,0,4.1,0.1,5.1-1.9c0.7-1.3,0.6-3.8-0.2-5c-1.3-2-3.6-1.6-5.7-1.7c-5.5-0.2-10.4-2.2-13.9-6.4
			c-3.3-4-3.6-8.1-4-13.1c-0.2-2.3-0.6-4-3.2-4.6c-2.6-0.6-4.7,0.8-5.3,3.2c-0.5,1.9,2.4,2.7,2.9,0.8c0.5-1.7,2.1-1,2.7-0.2
			c0.1,0.2,0,1.5,0,1.6c0.2,1,0,2.1,0.1,3.1c0.3,2.9,1.2,5.7,2.6,8.2c2.9,5,7.8,8.7,13.5,9.9c1.7,0.4,5.6-0.4,7,0.5
			c1.5,0.9,1.1,2.1-0.3,2.6c-0.7,0.3-2.9,0-3.7,0c-5.7,0.4-11,3.1-14.6,7.6c-1.8,2.1-3.1,4.6-3.8,7.3c-0.7,2.4-0.1,5.3-0.8,7.6
			c-0.4,1.2-0.9,2.2-2.1,1.2c-0.8-0.7-0.4-2-0.5-3c-0.1-2.9-0.6-5.7-1.8-8.5c-2.3-5.1-6.6-9.2-11.9-11.1c-2.5-0.9-5-1-7.6-1.2
			c-3.5-0.3-3.5-2.3,0-2.6c13.6-1.2,21.3-9.8,21.3-23.5C230.4,307.4,227.4,307.4,227.4,309.3z"/>
	</g>
</g>
<g opacity="5.000000e-02">
	<g>
		<path fill="#D7D7F2" d="M34.4,346.4c10.3,0.6,10.4,16.1,0,16.1C24,362.5,24.1,347,34.4,346.4c1.9-0.1,1.9-3.1,0-3
			c-6,0.3-11,4.8-11,11c0,6,5,11.1,11,11c5.8,0,10.7-4.7,11-10.5c0.3-6.4-4.8-11.2-11-11.5C32.4,343.3,32.4,346.3,34.4,346.4z"/>
	</g>
</g>
<g opacity="5.000000e-02">
	<g>
		<path fill="#D7D7F2" d="M-15.2,437.2c10.3,0.6,10.4,16.1,0,16.1C-25.6,453.3-25.5,437.8-15.2,437.2c1.9-0.1,1.9-3.1,0-3
			c-6,0.3-11,4.8-11,11c0,6,5,11.1,11,11c5.8,0,10.7-4.7,11-10.5c0.3-6.4-4.8-11.2-11-11.5C-17.2,434.1-17.1,437.1-15.2,437.2z"/>
	</g>
</g>
<g opacity="5.000000e-02">
	<g>
		<path fill="#D7D7F2" d="M105.2,545.7c10.3,0.6,10.4,16.1,0,16.1C94.9,561.8,95,546.3,105.2,545.7c1.9-0.1,1.9-3.1,0-3
			c-6,0.3-11,4.8-11,11c0,6,5,11.1,11,11c5.8,0,10.7-4.7,11-10.5c0.3-6.4-4.8-11.2-11-11.5C103.3,542.6,103.3,545.6,105.2,545.7z"/>
	</g>
</g>
<g opacity="5.000000e-02">
	<g>
		<path fill="#D7D7F2" d="M369.4,377.3c-2.5,0-5.7,0.4-7.9-0.9c-2.1-1.2-3.4-4.3-5.3-6c-2.1-1.9-4.6-2.7-5.5-5.7
			c-1.3-4.2,1.4-10.4-4.5-11.8c-0.1,1-0.3,2-0.4,2.9c0.1,0,0.1,0,0.2,0c-0.1-1-0.3-2-0.4-2.9c-3.2,0.8-3.7,3.1-3.8,6.1
			c0,1.3,0.2,2.8,0,4.1c-0.6,4.6-4.6,5.5-7.4,8.4c-2.3,2.4-3.5,5.3-7.3,5.7c-1.5,0.2-3.1-0.1-4.7,0c-2.9,0.2-5.8,1.9-5.3,5.3
			c0.4,2.8,2.6,3.9,5.1,4c1.6,0.1,3.3-0.2,4.9,0c4,0.4,4.9,3.2,7.3,5.7c2.8,2.9,6.8,3.7,7.4,8.4c0.1,1.2,0,2.5,0,3.7
			c0,3,0.4,5.7,3.8,6.5c0.1-1,0.3-2,0.4-2.9c0,0-0.1,0-0.1,0c0.1,1,0.3,2,0.4,2.9c4.6-1.1,3.7-5.1,3.9-8.8c0-0.5-0.1-1,0-1.5
			c0.4-3.6,2.4-4.3,4.8-6.3c3.2-2.7,5.2-7.2,9.6-7.8c2.8-0.3,6.1,0.9,8.4-1.2c3.5-3.2,0.6-7.5-3.3-8.1c-1.9-0.3-2.7,2.6-0.8,2.9
			c1.8,2.3,2.1,3.4,0.7,3.4c-0.2,0-0.4,0-0.6,0c-0.6,0.2-1.5,0-2.2,0c-1.2,0-2.5-0.1-3.7,0.1c-4.6,0.8-5.6,4.2-8.7,7.1
			c-2.9,2.8-6.4,3.8-7.2,8.3c-0.4,2.1,1,8.2-1.9,8.9c-1.7,0.4-1.3,2.9,0.4,2.9c0,0,0.1,0,0.1,0c1.7,0,2.1-2.5,0.4-2.9
			c-2.8-0.7-1.4-6.6-1.7-8.7c-0.7-3.9-3.1-5.2-6-7.4c-3.6-2.6-4.9-7.2-9.6-8.2c-1.6-0.3-6.4,0.7-7.4-0.2c-0.6-0.6,1-3.1,1.4-3.3
			c0.4-0.2,2.2,0,2.7,0c1.1,0,2.2,0.1,3.3-0.2c4.3-0.9,5.5-4.7,8.6-7.3c3-2.6,6.2-3.7,7-8c0.4-2-1-8.2,1.8-8.9
			c1.7-0.4,1.3-2.9-0.4-2.9c-0.1,0-0.1,0-0.2,0c-1.7,0-2.1,2.6-0.4,2.9c3.1,0.7,1.6,6.5,2,8.7c0.7,4.3,3.7,5.4,6.7,8
			c3,2.6,4,6.2,8.1,7.4c2.3,0.6,4.8,0.4,7.2,0.4C371.3,380.3,371.3,377.3,369.4,377.3z"/>
	</g>
</g>
<g opacity="5.000000e-02">
	<g>
		<path fill="#D7D7F2" d="M492.7,414c-1.7-1.7-4.3-3.7-5-6.2c-0.6-2.5,0.7-5.6,0.5-8.1c-0.3-3.4-1.5-6,0.9-9.1
			c2.5-3.2,7.2-5.4,4.4-10.1c-0.8,0.6-1.6,1.2-2.4,1.8c0.1,0.1,0.1,0.1,0.2,0.2c0.6-0.8,1.2-1.6,1.8-2.4c-2.8-1.7-4.9-0.4-7,1.6
			c-1,0.9-1.8,2.1-2.9,2.9c-3.7,2.9-7.1,0.7-11.1,0.7c-3.4,0.1-6.6,0.6-9.7-1.5c-1.1-0.8-1.9-2.1-3-3c-2.1-1.8-5.3-2.6-7.3-0.1
			c-1.7,2-1.2,4.4,0.3,6.2c1,1.3,2.5,2.2,3.5,3.5c2.4,3.1,1.6,6.2,1.5,9.6c-0.1,4,2.2,7.4-0.7,11.1c-0.8,1.1-2,1.9-2.9,2.9
			c-2,2.1-3.3,4.2-1.6,7c0.8-0.6,1.6-1.2,2.4-1.8c0,0-0.1-0.1-0.1-0.1c-0.6,0.8-1.2,1.6-1.8,2.4c4,2.5,6.2-1,9-3.4
			c3-2.6,5.3-2.6,9.3-2c4.3,0.6,8.2-1.7,12,1.4c2.3,1.8,3.9,5.3,7.3,5c4.3-0.4,4.9-5,2.7-8c-1.1-1.5-3.7,0-2.6,1.5
			c-0.4,2.9-1,3.9-1.9,2.9c-0.1-0.1-0.3-0.3-0.4-0.4c-0.6-0.3-1.1-1.1-1.5-1.5c-0.9-0.9-1.7-1.8-2.7-2.5c-3.8-2.7-6.9-1-11.2-1.1
			c-4.1-0.1-7.2-1.8-10.9,0.7c-1.8,1.2-5.1,6.5-7.6,5c-1.5-0.9-3,1.2-1.8,2.4c0,0,0.1,0.1,0.1,0.1c1.2,1.2,3.3-0.3,2.4-1.8
			c-1.5-2.4,3.7-5.7,4.9-7.3c2-2.8,1.7-5.6,1.1-8.8c-0.8-4.4,1.5-9-1.1-13.1c-0.9-1.4-5.2-4.2-5.2-5.5c0-0.9,2.9-1.5,3.3-1.4
			c0.4,0.1,1.2,1.2,1.6,1.6c0.9,0.9,1.8,1.9,2.8,2.6c4,2.6,8.1,0.3,12.5,1c3.5,0.6,6.3,1.3,9.5-0.9c1.7-1.2,5-6.3,7.3-4.9
			c1.5,0.9,3-1.2,1.8-2.4c-0.1-0.1-0.1-0.1-0.2-0.2c-1.2-1.2-3.3,0.3-2.4,1.8c1.6,2.7-3.5,5.7-4.8,7.5c-2.3,3.2-1.5,6-1.1,9.5
			c0.4,4.4-1.6,8.4,1.1,12.4c1.2,1.8,3,3.2,4.5,4.7C492,417.5,494.1,415.4,492.7,414z"/>
	</g>
</g>
<g opacity="5.000000e-02">
	<g>
		<path fill="#D7D7F2" d="M357.2,593.9c-1.7-1.7-4.3-3.7-5-6.2c-0.6-2.5,0.7-5.6,0.5-8.1c-0.3-3.4-1.5-6,0.9-9.1
			c2.5-3.2,7.2-5.4,4.4-10.1c-0.8,0.6-1.6,1.2-2.4,1.8c0.1,0.1,0.1,0.1,0.2,0.2c0.6-0.8,1.2-1.6,1.8-2.4c-2.8-1.7-4.9-0.4-7,1.6
			c-1,0.9-1.8,2.1-2.9,2.9c-3.7,2.9-7.1,0.7-11.1,0.7c-3.4,0.1-6.6,0.6-9.7-1.5c-1.1-0.8-1.9-2.1-3-3c-2.1-1.8-5.3-2.6-7.3-0.1
			c-1.7,2-1.2,4.4,0.3,6.2c1,1.3,2.5,2.2,3.5,3.5c2.4,3.1,1.6,6.2,1.5,9.6c-0.1,4,2.2,7.4-0.7,11.1c-0.8,1.1-2,1.9-2.9,2.9
			c-2,2.1-3.3,4.2-1.6,7c0.8-0.6,1.6-1.2,2.4-1.8c0,0-0.1-0.1-0.1-0.1c-0.6,0.8-1.2,1.6-1.8,2.4c4,2.5,6.2-1,9-3.4
			c3-2.6,5.3-2.6,9.3-2c4.3,0.6,8.2-1.7,12,1.4c2.3,1.8,3.9,5.3,7.3,5c4.3-0.4,4.9-5,2.7-8c-1.1-1.5-3.7,0-2.6,1.5
			c-0.4,2.9-1,3.9-1.9,2.9c-0.1-0.1-0.3-0.3-0.4-0.4c-0.6-0.3-1.1-1.1-1.5-1.5c-0.9-0.9-1.7-1.8-2.7-2.5c-3.8-2.7-6.9-1-11.2-1.1
			c-4.1-0.1-7.2-1.8-10.9,0.7c-1.8,1.2-5.1,6.5-7.6,5c-1.5-0.9-3,1.2-1.8,2.4c0,0,0.1,0.1,0.1,0.1c1.2,1.2,3.3-0.3,2.4-1.8
			c-1.5-2.4,3.7-5.7,4.9-7.3c2-2.8,1.7-5.6,1.1-8.8c-0.8-4.4,1.5-9-1.1-13.1c-0.9-1.4-5.2-4.2-5.2-5.5c0-0.9,2.9-1.5,3.3-1.4
			c0.4,0.1,1.2,1.2,1.6,1.6c0.9,0.9,1.8,1.9,2.8,2.6c4,2.6,8.1,0.3,12.5,1c3.5,0.6,6.3,1.3,9.5-0.9c1.7-1.2,5-6.3,7.3-4.9
			c1.5,0.9,3-1.2,1.8-2.4c-0.1-0.1-0.1-0.1-0.2-0.2c-1.2-1.2-3.3,0.3-2.4,1.8c1.6,2.7-3.5,5.7-4.8,7.5c-2.3,3.2-1.5,6-1.1,9.5
			c0.4,4.4-1.6,8.4,1.1,12.4c1.2,1.8,3,3.2,4.5,4.7C356.5,597.4,358.6,595.3,357.2,593.9z"/>
	</g>
</g>
<g opacity="5.000000e-02">
	<g>
		<path fill="#D7D7F2" d="M418.8,474.4c-8.9,0-17.1-3.4-19.8-12.7c-1.1-3.7,1-11.2-4.7-11.5c-6.4-0.3-4.2,7.5-5.3,11.5
			c-1.3,4.4-4.3,8.1-8.2,10.4c-3.8,2.2-7.3,1.8-11.4,2.3c-3.7,0.4-5.9,5.9-2.1,8.1c1.5,0.9,3.8,0.4,5.5,0.5
			c5.4,0.3,10.4,2.8,13.6,7.3c2.5,3.4,3.2,7.2,3.3,11.4c0,2-0.1,4.1,1.9,5.1c1.3,0.7,3.8,0.6,5-0.2c2-1.3,1.6-3.6,1.7-5.7
			c0.2-5.5,2.2-10.4,6.4-13.9c4-3.3,8.1-3.6,13.1-4c2.3-0.2,4-0.6,4.6-3.2c0.6-2.6-0.8-4.7-3.2-5.3c-1.9-0.5-2.7,2.4-0.8,2.9
			c1.7,0.5,1,2.1,0.2,2.7c-0.2,0.1-1.5,0-1.6,0c-1,0.2-2.1,0-3.1,0.1c-2.9,0.3-5.7,1.2-8.2,2.6c-5,2.9-8.7,7.8-9.9,13.5
			c-0.4,1.7,0.4,5.6-0.5,7c-0.9,1.5-2.1,1.1-2.6-0.3c-0.3-0.7,0-2.9,0-3.7c-0.4-5.7-3.1-11-7.6-14.6c-2.1-1.8-4.6-3.1-7.3-3.8
			c-2.4-0.7-5.3-0.1-7.6-0.8c-1.2-0.4-2.2-0.9-1.2-2.1c0.7-0.8,2-0.4,3-0.5c2.9-0.1,5.7-0.6,8.5-1.8c5.1-2.3,9.2-6.6,11.1-11.9
			c0.9-2.5,1-5,1.2-7.6c0.3-3.5,2.3-3.5,2.6,0c1.2,13.6,9.8,21.3,23.5,21.3C420.7,477.4,420.7,474.4,418.8,474.4z"/>
	</g>
</g>
<g opacity="5.000000e-02">
	<g>
		<path fill="#D7D7F2" d="M552.1,583.6c-8.9,0-17.1-3.4-19.8-12.7c-1.1-3.7,1-11.2-4.7-11.5c-6.4-0.3-4.2,7.5-5.3,11.5
			c-1.3,4.4-4.3,8.1-8.2,10.4c-3.8,2.2-7.3,1.8-11.4,2.3c-3.7,0.4-5.9,5.9-2.1,8.1c1.5,0.9,3.8,0.4,5.5,0.5
			c5.4,0.3,10.4,2.8,13.6,7.3c2.5,3.4,3.2,7.2,3.3,11.4c0,2-0.1,4.1,1.9,5.1c1.3,0.7,3.8,0.6,5-0.2c2-1.3,1.6-3.6,1.7-5.7
			c0.2-5.5,2.2-10.4,6.4-13.9c4-3.3,8.1-3.6,13.1-4c2.3-0.2,4-0.6,4.6-3.2c0.6-2.6-0.8-4.7-3.2-5.3c-1.9-0.5-2.7,2.4-0.8,2.9
			c1.7,0.5,1,2.1,0.2,2.7c-0.2,0.1-1.5,0-1.6,0c-1,0.2-2.1,0-3.1,0.1c-2.9,0.3-5.7,1.2-8.2,2.6c-5,2.9-8.7,7.8-9.9,13.5
			c-0.4,1.7,0.4,5.6-0.5,7c-0.9,1.5-2.1,1.1-2.6-0.3c-0.3-0.7,0-2.9,0-3.7c-0.4-5.7-3.1-11-7.6-14.6c-2.1-1.8-4.6-3.1-7.3-3.8
			c-2.4-0.7-5.3-0.1-7.6-0.8c-1.2-0.4-2.2-0.9-1.2-2.1c0.7-0.8,2-0.4,3-0.5c2.9-0.1,5.7-0.6,8.5-1.8c5.1-2.3,9.2-6.6,11.1-11.9
			c0.9-2.5,1-5,1.2-7.6c0.3-3.5,2.3-3.5,2.6,0c1.2,13.6,9.8,21.3,23.5,21.3C554,586.6,554,583.6,552.1,583.6z"/>
	</g>
</g>
<g opacity="5.000000e-02">
	<g>
		<path fill="#D7D7F2" d="M472.1,531.1c-0.6,10.3-16.1,10.4-16.1,0C456,520.7,471.5,520.8,472.1,531.1c0.1,1.9,3.1,1.9,3,0
			c-0.3-6-4.8-11-11-11c-6,0-11.1,5-11,11c0,5.8,4.7,10.7,10.5,11c6.4,0.3,11.2-4.8,11.5-11C475.2,529.1,472.2,529.1,472.1,531.1z"
			/>
	</g>
</g>
<g opacity="5.000000e-02">
	<g>
		<path fill="#D7D7F2" d="M424.2,340.9c-0.6,10.3-16.1,10.4-16.1,0C408.1,330.5,423.6,330.6,424.2,340.9c0.1,1.9,3.1,1.9,3,0
			c-0.3-6-4.8-11-11-11c-6,0-11.1,5-11,11c0,5.8,4.7,10.7,10.5,11c6.4,0.3,11.2-4.8,11.5-11C427.3,339,424.3,339,424.2,340.9z"/>
	</g>
</g>
<g opacity="5.000000e-02">
	<g>
		<path fill="#D7D7F2" d="M315.7,461.4c-0.6,10.3-16.1,10.4-16.1,0C299.6,451,315.1,451.1,315.7,461.4c0.1,1.9,3.1,1.9,3,0
			c-0.3-6-4.8-11-11-11c-6,0-11.1,5-11,11c0,5.8,4.7,10.7,10.5,11c6.4,0.3,11.2-4.8,11.5-11C318.8,459.5,315.8,459.5,315.7,461.4z"
			/>
	</g>
</g>
</svg>
