<?xml version="1.0" encoding="utf-8"?>
<!-- Generator: Adobe Illustrator 18.1.1, SVG Export Plug-In . SVG Version: 6.00 Build 0)  -->
<svg version="1.1" id="Layer_1" xmlns="http://www.w3.org/2000/svg" xmlns:xlink="http://www.w3.org/1999/xlink" x="0px" y="0px"
	 viewBox="0 0 1402 2103" enable-background="new 0 0 1402 2103" xml:space="preserve">
<line fill="none" stroke="#E46644" stroke-width="7" stroke-linecap="round" stroke-linejoin="round" stroke-miterlimit="10" stroke-dasharray="7,32" x1="1124.5" y1="648.5" x2="1124.5" y2="726.5"/>
<g>
	
		<polyline fill="none" stroke="#E8A833" stroke-width="7" stroke-linecap="round" stroke-linejoin="round" stroke-miterlimit="10" stroke-dasharray="9.1686,32.0901" points="
		978,863 1060.5,863 1060.5,1269 408,1269 	"/>
	
		<polyline fill="none" stroke="#E8A833" stroke-width="7" stroke-linecap="round" stroke-linejoin="round" stroke-miterlimit="10" stroke-dasharray="9.1686,32.0901" points="
		280,1138 514.5,1138 514.5,1267.5 	"/>
	
		<line fill="none" stroke="#E8A833" stroke-width="7" stroke-linecap="round" stroke-linejoin="round" stroke-miterlimit="10" stroke-dasharray="7,29" x1="261" y1="1206" x2="511" y2="1206"/>
	
		<polyline fill="none" stroke="#E8A833" stroke-width="7" stroke-linecap="round" stroke-linejoin="round" stroke-miterlimit="10" stroke-dasharray="9.1686,32.0901" points="
		500,1347 657.5,1347 657.5,1267.5 	"/>
	
		<polyline fill="none" stroke="#E8A833" stroke-width="7" stroke-linecap="round" stroke-linejoin="round" stroke-miterlimit="10" stroke-dasharray="9.1686,32.0901" points="
		771,1070 852.5,1070 852.5,995 1060,995 	"/>
	
		<polyline fill="none" stroke="#E8A833" stroke-width="7" stroke-linecap="round" stroke-linejoin="round" stroke-miterlimit="10" stroke-dasharray="9.1686,32.0901" points="
		303.5,1136.5 303.5,504 625.5,504 625.5,576.5 	"/>
	
		<polyline fill="none" stroke="#E8A833" stroke-width="7" stroke-linecap="round" stroke-linejoin="round" stroke-miterlimit="10" stroke-dasharray="9.1686,32.0901" points="
		1175,504 1263.5,504 1263.5,1557 1182,1557 	"/>
	
		<polyline fill="none" stroke="#E8A833" stroke-width="7" stroke-linecap="round" stroke-linejoin="round" stroke-miterlimit="10" stroke-dasharray="9.1686,32.0901" points="
		1314,343 1352.5,343 1352.5,870 1267,870 	"/>
	
		<line fill="none" stroke="#E8A833" stroke-width="7" stroke-linecap="round" stroke-linejoin="round" stroke-miterlimit="10" stroke-dasharray="7,32" x1="1060" y1="1070" x2="1267" y2="1070"/>
</g>
<g>
	
		<polyline fill="none" stroke="#63E0DC" stroke-width="7" stroke-linecap="round" stroke-linejoin="round" stroke-miterlimit="10" stroke-dasharray="9.1686,32.0901" points="
		1010,619 985.5,619 985.5,504 1060.5,504 1060.5,418 1192.5,418 1192.5,257 339.5,257 339.5,357 50.5,357 50.5,1740 736,1740 	"/>
	
		<line fill="none" stroke="#63E0DC" stroke-width="7" stroke-linecap="round" stroke-linejoin="round" stroke-miterlimit="10" stroke-dasharray="7,32" x1="778" y1="863" x2="52" y2="863"/>
	
		<line fill="none" stroke="#63E0DC" stroke-width="7" stroke-linecap="round" stroke-linejoin="round" stroke-miterlimit="10" stroke-dasharray="7,32" x1="132.5" y1="648.5" x2="132.5" y2="861.5"/>
	
		<line fill="none" stroke="#63E0DC" stroke-width="7" stroke-linecap="round" stroke-linejoin="round" stroke-miterlimit="10" stroke-dasharray="7,32" x1="494.5" y1="576.5" x2="494.5" y2="861.5"/>
	
		<line fill="none" stroke="#63E0DC" stroke-width="7" stroke-linecap="round" stroke-linejoin="round" stroke-miterlimit="10" stroke-dasharray="7,32" x1="561.5" y1="648.5" x2="561.5" y2="861.5"/>
	
		<polyline fill="none" stroke="#63E0DC" stroke-width="7" stroke-linecap="round" stroke-linejoin="round" stroke-miterlimit="10" stroke-dasharray="9.1686,32.0901" points="
		639.5,861.5 639.5,1206 927.5,1206 927.5,1069.5 	"/>
	
		<polyline fill="none" stroke="#63E0DC" stroke-width="7" stroke-linecap="round" stroke-linejoin="round" stroke-miterlimit="10" stroke-dasharray="9.1686,32.0901" points="
		516.5,1742.5 516.5,1847 1060.5,1847 1060.5,1547.5 	"/>
	
		<line fill="none" stroke="#63E0DC" stroke-width="7" stroke-linecap="round" stroke-linejoin="round" stroke-miterlimit="10" stroke-dasharray="7,32" x1="994.5" y1="1464.5" x2="994.5" y2="1846.5"/>
	
		<line fill="none" stroke="#63E0DC" stroke-width="7" stroke-linecap="round" stroke-linejoin="round" stroke-miterlimit="10" stroke-dasharray="7,32" x1="52" y1="1414" x2="526" y2="1414"/>
	
		<line fill="none" stroke="#63E0DC" stroke-width="7" stroke-linecap="round" stroke-linejoin="round" stroke-miterlimit="10" stroke-dasharray="7,32" x1="52" y1="1347" x2="394" y2="1347"/>
	
		<line fill="none" stroke="#63E0DC" stroke-width="7" stroke-linecap="round" stroke-linejoin="round" stroke-miterlimit="10" stroke-dasharray="7,32" x1="52" y1="1269" x2="291" y2="1269"/>
	
		<line fill="none" stroke="#63E0DC" stroke-width="7" stroke-linecap="round" stroke-linejoin="round" stroke-miterlimit="10" stroke-dasharray="7,32" x1="52" y1="1206" x2="136" y2="1206"/>
	
		<line fill="none" stroke="#63E0DC" stroke-width="7" stroke-linecap="round" stroke-linejoin="round" stroke-miterlimit="10" stroke-dasharray="7,32" x1="52" y1="1138" x2="168" y2="1138"/>
</g>
<g>
	
		<polyline fill="none" stroke="#E46644" stroke-width="7" stroke-linecap="round" stroke-linejoin="round" stroke-miterlimit="10" stroke-dasharray="9.1686,32.0901" points="
		504,357 702.5,357 702.5,723 1124.5,723 1124.5,1464.5 	"/>
	
		<line fill="none" stroke="#E46644" stroke-width="7" stroke-linecap="round" stroke-linejoin="round" stroke-miterlimit="10" stroke-dasharray="7,32" x1="661" y1="1414" x2="1126" y2="1414"/>
	
		<line fill="none" stroke="#E46644" stroke-width="7" stroke-linecap="round" stroke-linejoin="round" stroke-miterlimit="10" stroke-dasharray="7,34" x1="862.5" y1="1744.5" x2="862.5" y2="1419.5"/>
	
		<line fill="none" stroke="#E46644" stroke-width="7" stroke-linecap="round" stroke-linejoin="round" stroke-miterlimit="10" stroke-dasharray="7,25" x1="882.5" y1="738.5" x2="882.5" y2="763.5"/>
	<circle fill="#FE9D8A" stroke="#FE9D8A" stroke-width="9.1686" stroke-miterlimit="10" cx="305" cy="861.5" r="36.5"/>
	<circle fill="#FE9D8A" stroke="#FE9D8A" stroke-width="9.1686" stroke-miterlimit="10" cx="1125.3" cy="1071.3" r="36.5"/>
</g>
<g>
	<g>
		<g>
			<path fill="#63E0DC" d="M824.3,1763.7h-60.1c-11.8,0-21.4-9.6-21.4-21.4v-3.4c0-11.8,9.6-21.4,21.4-21.4h60.1
				c11.8,0,21.4,9.6,21.4,21.4v3.4C845.8,1754.1,836.2,1763.7,824.3,1763.7z M764.2,1723.8c-8.3,0-15.1,6.8-15.1,15.1v3.4
				c0,8.3,6.8,15.1,15.1,15.1h60.1c8.3,0,15.1-6.8,15.1-15.1v-3.4c0-8.3-6.8-15.1-15.1-15.1H764.2z"/>
		</g>
		<g>
			<path fill="#63E0DC" d="M800.8,1752.6h-13c-6.2,0-11.2-5-11.2-11.2v-1.6c0-6.2,5-11.2,11.2-11.2h13c6.2,0,11.2,5,11.2,11.2v1.6
				C812,1747.6,807,1752.6,800.8,1752.6z M787.8,1733.3c-3.6,0-6.5,2.9-6.5,6.5v1.6c0,3.6,2.9,6.5,6.5,6.5h13c3.6,0,6.5-2.9,6.5-6.5
				v-1.6c0-3.6-2.9-6.5-6.5-6.5H787.8z"/>
		</g>
		<path fill="#63E0DC" d="M764.2,1717.5c-11.8,0-21.2,10.7-21.2,22.5v3.4c0,11.8,9.4,20.1,21.2,20.1h7.8v-1.6v-3.1V1725v-3.1v-4.4
			H764.2z M766,1742.5c-3,0-8,0-12,0c-2,0-2-4,0-4c4,0,9,0,12,0S769,1742.5,766,1742.5z"/>
		<path fill="#FE9D8A" d="M824.3,1717.5H817v4.4v3.1v33.8v3.1v1.6h7.3c11.8,0,21.7-8.3,21.7-20.1v-3.4
			C846,1728.2,836.2,1717.5,824.3,1717.5z M836,1742.5c-1,0-2,0-3,0c0,1,0,3,0,3c0,3-4,3-4,0c0,0,0-2,0-3c-2,0-3,0-4,0c-2,0-2-4,0-4
			c1,0,2,0,4,0c0-1,0-2,0-3c0-3,4-3,4,0c0,1,0,2,0,3c1,0,2,0,3,0C839,1738.5,839,1742.5,836,1742.5z"/>
	</g>
	<g>
		<g>
			<path fill="#63E0DC" d="M445.2,376h-60.1c-11.8,0-21.4-9.6-21.4-21.4v-3.4c0-11.8,9.6-21.4,21.4-21.4h60.1
				c11.8,0,21.4,9.6,21.4,21.4v3.4C466.7,366.4,457,376,445.2,376z M385.1,336.1c-8.3,0-15.1,6.8-15.1,15.1v3.4
				c0,8.3,6.8,15.1,15.1,15.1h60.1c8.3,0,15.1-6.8,15.1-15.1v-3.4c0-8.3-6.8-15.1-15.1-15.1H385.1z"/>
		</g>
		<g>
			<path fill="#63E0DC" d="M421.7,365.3h-13c-6.2,0-11.2-5-11.2-11.2v-1.6c0-6.2,5-11.2,11.2-11.2h13c6.2,0,11.2,5,11.2,11.2v1.6
				C432.9,360.3,427.9,365.3,421.7,365.3z M408.6,346c-3.6,0-6.5,2.9-6.5,6.5v1.6c0,3.6,2.9,6.5,6.5,6.5h13c3.6,0,6.5-2.9,6.5-6.5
				v-1.6c0-3.6-2.9-6.5-6.5-6.5H408.6z"/>
		</g>
		<path fill="#63E0DC" d="M385.1,329.5c-11.8,0-22.1,10-22.1,21.8v3.4c0,11.8,10.3,20.8,22.1,20.8h6.9v-2.2v-3.1v-33.8v-3.1v-3.8
			H385.1z M386,354.5c-3,0-8,0-12,0c-2,0-2-4,0-4c4,0,9,0,12,0S389,354.5,386,354.5z"/>
		<path fill="#FE9D8A" d="M445.2,329.5H437v3.8v3.1v33.8v3.1v2.2h8.2c11.8,0,20.8-9,20.8-20.8v-3.4C466,339.5,457,329.5,445.2,329.5
			z M456,354.5c-1,0-2,0-3,0c0,1,0,3,0,3c0,3-4,3-4,0c0,0,0-2,0-3c-2,0-3,0-4,0c-2,0-2-4,0-4c1,0,2,0,4,0c0-1,0-2,0-3c0-3,4-3,4,0
			c0,1,0,2,0,3c1,0,2,0,3,0C459,350.5,459,354.5,456,354.5z"/>
	</g>
	<g>
		<g>
			<path fill="#63E0DC" d="M659.8,668h-60.1c-11.8,0-21.4-9.6-21.4-21.4v-3.4c0-11.8,9.6-21.4,21.4-21.4h60.1
				c11.8,0,21.4,9.6,21.4,21.4v3.4C681.2,658.4,671.6,668,659.8,668z M599.7,628c-8.3,0-15.1,6.8-15.1,15.1v3.4
				c0,8.3,6.8,15.1,15.1,15.1h60.1c8.3,0,15.1-6.8,15.1-15.1v-3.4c0-8.3-6.8-15.1-15.1-15.1H599.7z"/>
		</g>
		<g>
			<path fill="#63E0DC" d="M636.2,657.3h-13c-6.2,0-11.2-5-11.2-11.2v-1.6c0-6.2,5-11.2,11.2-11.2h13c6.2,0,11.2,5,11.2,11.2v1.6
				C647.5,652.3,642.4,657.3,636.2,657.3z M623.2,637.9c-3.6,0-6.5,2.9-6.5,6.5v1.6c0,3.6,2.9,6.5,6.5,6.5h13c3.6,0,6.5-2.9,6.5-6.5
				v-1.6c0-3.6-2.9-6.5-6.5-6.5H623.2z"/>
		</g>
		<path fill="#63E0DC" d="M599.7,621.5c-11.8,0-21.7,10-21.7,21.8v3.4c0,11.8,9.9,20.8,21.7,20.8h7.3v-2.2v-3.1v-33.8v-3.1v-3.8
			H599.7z M601,646.5c-3,0-8,0-12,0c-2,0-2-4,0-4c4,0,9,0,12,0S604,646.5,601,646.5z"/>
		<path fill="#FE9D8A" d="M659.8,621.5H652v3.8v3.1v33.8v3.1v2.2h7.8c11.8,0,21.2-9,21.2-20.8v-3.4
			C681,631.5,671.6,621.5,659.8,621.5z M671,646.5c-1,0-2,0-3,0c0,1,0,3,0,3c0,3-4,3-4,0c0,0,0-2,0-3c-2,0-3,0-4,0c-2,0-2-4,0-4
			c1,0,2,0,4,0c0-1,0-2,0-3c0-3,4-3,4,0c0,1,0,2,0,3c1,0,2,0,3,0C674,642.5,674,646.5,671,646.5z"/>
	</g>
	<g>
		<g>
			<path fill="#63E0DC" d="M623.8,1437.5h-60.1c-11.8,0-21.4-9.6-21.4-21.4v-3.4c0-11.8,9.6-21.4,21.4-21.4h60.1
				c11.8,0,21.4,9.6,21.4,21.4v3.4C645.2,1427.9,635.6,1437.5,623.8,1437.5z M563.7,1397.5c-8.3,0-15.1,6.8-15.1,15.1v3.4
				c0,8.3,6.8,15.1,15.1,15.1h60.1c8.3,0,15.1-6.8,15.1-15.1v-3.4c0-8.3-6.8-15.1-15.1-15.1H563.7z"/>
		</g>
		<g>
			<path fill="#63E0DC" d="M600.2,1426.4h-13c-6.2,0-11.2-5-11.2-11.2v-1.6c0-6.2,5-11.2,11.2-11.2h13c6.2,0,11.2,5,11.2,11.2v1.6
				C611.5,1421.4,606.4,1426.4,600.2,1426.4z M587.2,1407c-3.6,0-6.5,2.9-6.5,6.5v1.6c0,3.6,2.9,6.5,6.5,6.5h13
				c3.6,0,6.5-2.9,6.5-6.5v-1.6c0-3.6-2.9-6.5-6.5-6.5H587.2z"/>
		</g>
		<path fill="#63E0DC" d="M563.7,1391.5c-11.8,0-21.7,10.3-21.7,22.1v3.4c0,11.8,9.9,20.5,21.7,20.5h7.3v-2v-3.1v-33.8v-3.1v-4
			H563.7z M565,1416.5c-3,0-8,0-12,0c-2,0-2-4,0-4c4,0,9,0,12,0S568,1416.5,565,1416.5z"/>
		<path fill="#FE9D8A" d="M623.8,1391.5H616v4v3.1v33.8v3.1v2h7.8c11.8,0,21.2-8.7,21.2-20.5v-3.4
			C645,1401.8,635.6,1391.5,623.8,1391.5z M635,1416.5c-1,0-2,0-3,0c0,1,0,3,0,3c0,3-4,3-4,0c0,0,0-2,0-3c-2,0-3,0-4,0c-2,0-2-4,0-4
			c1,0,2,0,4,0c0-1,0-2,0-3c0-3,4-3,4,0c0,1,0,2,0,3c1,0,2,0,3,0C638,1412.5,638,1416.5,635,1416.5z"/>
	</g>
	<g>
		<g>
			<path fill="#63E0DC" d="M1090,1487.7h-60.1c-11.8,0-21.4-9.6-21.4-21.4v-3.4c0-11.8,9.6-21.4,21.4-21.4h60.1
				c11.8,0,21.4,9.6,21.4,21.4v3.4C1111.4,1478.1,1101.8,1487.7,1090,1487.7z M1029.9,1447.8c-8.3,0-15.1,6.8-15.1,15.1v3.4
				c0,8.3,6.8,15.1,15.1,15.1h60.1c8.3,0,15.1-6.8,15.1-15.1v-3.4c0-8.3-6.8-15.1-15.1-15.1H1029.9z"/>
		</g>
		<g>
			<path fill="#63E0DC" d="M1066.5,1476.7h-13c-6.2,0-11.2-5-11.2-11.2v-1.6c0-6.2,5-11.2,11.2-11.2h13c6.2,0,11.2,5,11.2,11.2v1.6
				C1077.7,1471.6,1072.7,1476.7,1066.5,1476.7z M1053.4,1457.3c-3.6,0-6.5,2.9-6.5,6.5v1.6c0,3.6,2.9,6.5,6.5,6.5h13
				c3.6,0,6.5-2.9,6.5-6.5v-1.6c0-3.6-2.9-6.5-6.5-6.5H1053.4z"/>
		</g>
		<path fill="#63E0DC" d="M1029.9,1441.5c-11.8,0-20.9,10.7-20.9,22.6v3.4c0,11.8,9.1,20,20.9,20h8.1v-1.5v-3.1v-33.8v-3.1v-4.5
			H1029.9z M1032,1466.5c-3,0-8,0-12,0c-2,0-2-4,0-4c4,0,9,0,12,0S1035,1466.5,1032,1466.5z"/>
		<path fill="#FE9D8A" d="M1090,1441.5h-7v4.5v3.1v33.8v3.1v1.5h7c11.8,0,22-8.2,22-20v-3.4C1112,1452.2,1101.8,1441.5,1090,1441.5z
			 M1102,1466.5c-1,0-2,0-3,0c0,1,0,3,0,3c0,3-4,3-4,0c0,0,0-2,0-3c-2,0-3,0-4,0c-2,0-2-4,0-4c1,0,2,0,4,0c0-1,0-2,0-3c0-3,4-3,4,0
			c0,1,0,2,0,3c1,0,2,0,3,0C1105,1462.5,1105,1466.5,1102,1466.5z"/>
	</g>
	<g>
		<g>
			<path fill="#63E0DC" d="M1106.6,641.7h-60.1c-11.8,0-21.4-9.6-21.4-21.4v-3.4c0-11.8,9.6-21.4,21.4-21.4h60.1
				c11.8,0,21.4,9.6,21.4,21.4v3.4C1128,632.1,1118.4,641.7,1106.6,641.7z M1046.5,601.7c-8.3,0-15.1,6.8-15.1,15.1v3.4
				c0,8.3,6.8,15.1,15.1,15.1h60.1c8.3,0,15.1-6.8,15.1-15.1v-3.4c0-8.3-6.8-15.1-15.1-15.1H1046.5z"/>
		</g>
		<g>
			<path fill="#63E0DC" d="M1083.1,630.6h-13c-6.2,0-11.2-5-11.2-11.2v-1.6c0-6.2,5-11.2,11.2-11.2h13c6.2,0,11.2,5,11.2,11.2v1.6
				C1094.3,625.6,1089.3,630.6,1083.1,630.6z M1070,611.2c-3.6,0-6.5,2.9-6.5,6.5v1.6c0,3.6,2.9,6.5,6.5,6.5h13
				c3.6,0,6.5-2.9,6.5-6.5v-1.6c0-3.6-2.9-6.5-6.5-6.5H1070z"/>
		</g>
		<path fill="#63E0DC" d="M1046.5,595.5c-11.8,0-20.5,10.7-20.5,22.5v3.4c0,11.8,8.7,20.1,20.5,20.1h8.5v-1.6v-3.1V603v-3.1v-4.4
			H1046.5z M1049,620.5c-4,0-8,0-12,0c-2,0-2-4,0-4c4,0,8,0,12,0C1052,616.5,1052,620.5,1049,620.5z"/>
		<path fill="#FE9D8A" d="M1106.6,595.5h-7.6v4.4v3.1v33.8v3.1v1.6h7.6c11.8,0,22.4-8.3,22.4-20.1V618
			C1129,606.2,1118.4,595.5,1106.6,595.5z M1119,620.5c-1,0-2,0-3,0c0,1,0,3,0,3c0,3-4,3-4,0c0,0,0-2,0-3c-2,0-3,0-4,0c-2,0-2-4,0-4
			c1,0,2,0,4,0c0-1,0-2,0-3c0-3,4-3,4,0c0,1,0,2,0,3c1,0,2,0,3,0C1122,616.5,1122,620.5,1119,620.5z"/>
	</g>
</g>
<g>
	<g>
		<g>
			<path fill="#63E0DC" d="M248.9,660.3h-60.1c-11.8,0-21.4-9.6-21.4-21.4v-3.4c0-11.8,9.6-21.4,21.4-21.4h60.1
				c11.8,0,21.4,9.6,21.4,21.4v3.4C270.3,650.7,260.7,660.3,248.9,660.3z M188.8,620.3c-8.3,0-15.1,6.8-15.1,15.1v3.4
				c0,8.3,6.8,15.1,15.1,15.1h60.1c8.3,0,15.1-6.8,15.1-15.1v-3.4c0-8.3-6.8-15.1-15.1-15.1H188.8z"/>
		</g>
		<g>
			<path fill="#63E0DC" d="M225.4,649.2h-13c-6.2,0-11.2-5-11.2-11.2v-1.6c0-6.2,5-11.2,11.2-11.2h13c6.2,0,11.2,5,11.2,11.2v1.6
				C236.6,644.2,231.6,649.2,225.4,649.2z M212.3,629.8c-3.6,0-6.5,2.9-6.5,6.5v1.6c0,3.6,2.9,6.5,6.5,6.5h13c3.6,0,6.5-2.9,6.5-6.5
				v-1.6c0-3.6-2.9-6.5-6.5-6.5H212.3z"/>
		</g>
		<path fill="#63E0DC" d="M188.8,614.5c-11.8,0-22.8,8.9-22.8,20.7v3.4c0,11.8,11,21.9,22.8,21.9h6.2v-3.3v-3.1v-33.8v-3.1v-2.7
			H188.8z M189,639.5c-3,0-8,0-12,0c-2,0-2-4,0-4c4,0,9,0,12,0S192,639.5,189,639.5z"/>
		<path fill="#F9A41C" d="M249.8,614.5H240v2.7v3.1v33.8v3.1v3.3h9.8c11.8,0,20.2-10.1,20.2-21.9v-3.4
			C270,623.4,261.6,614.5,249.8,614.5z M260,639.5c-1,0-2,0-3,0c0,1,0,2,0,3c0,3-4,3-4,0c0-1,0-2,0-3c-2,0-3,0-4,0c-2,0-2-4,0-4
			c1,0,2,0,4,0c0-1,0-3,0-3c0-3,4-3,4,0c0,0,0,2,0,3c1,0,2,0,3,0C263,635.5,263,639.5,260,639.5z"/>
	</g>
	<g>
		<g>
			<path fill="#63E0DC" d="M228.7,1229.2h-60.1c-11.8,0-21.4-9.6-21.4-21.4v-3.4c0-11.8,9.6-21.4,21.4-21.4h60.1
				c11.8,0,21.4,9.6,21.4,21.4v3.4C250.1,1219.6,240.5,1229.2,228.7,1229.2z M168.6,1189.3c-8.3,0-15.1,6.8-15.1,15.1v3.4
				c0,8.3,6.8,15.1,15.1,15.1h60.1c8.3,0,15.1-6.8,15.1-15.1v-3.4c0-8.3-6.8-15.1-15.1-15.1H168.6z"/>
		</g>
		<g>
			<path fill="#63E0DC" d="M205.1,1218.2h-13c-6.2,0-11.2-5-11.2-11.2v-1.6c0-6.2,5-11.2,11.2-11.2h13c6.2,0,11.2,5,11.2,11.2v1.6
				C216.4,1213.1,211.3,1218.2,205.1,1218.2z M192.1,1198.8c-3.6,0-6.5,2.9-6.5,6.5v1.6c0,3.6,2.9,6.5,6.5,6.5h13
				c3.6,0,6.5-2.9,6.5-6.5v-1.6c0-3.6-2.9-6.5-6.5-6.5H192.1z"/>
		</g>
		<path fill="#63E0DC" d="M168.6,1183.5c-11.8,0-21.6,10.1-21.6,21.9v3.4c0,11.8,9.8,20.7,21.6,20.7h7.4v-2.2v-3.1v-33.8v-3.1v-3.8
			H168.6z M170,1208.5c-3,0-8,0-12,0c-2,0-2-4,0-4c4,0,9,0,12,0S173,1208.5,170,1208.5z"/>
		<path fill="#F9A41C" d="M228.7,1183.5H221v3.8v3.1v33.8v3.1v2.2h7.7c11.8,0,21.3-8.9,21.3-20.7v-3.4
			C250,1193.6,240.5,1183.5,228.7,1183.5z M240,1208.5c-1,0-2,0-3,0c0,1,0,2,0,3c0,3-4,3-4,0c0-1,0-2,0-3c-2,0-3,0-4,0c-2,0-2-4,0-4
			c1,0,2,0,4,0c0-1,0-3,0-3c0-3,4-3,4,0c0,0,0,2,0,3c1,0,2,0,3,0C243,1204.5,243,1208.5,240,1208.5z"/>
	</g>
	<g>
		<g>
			<path fill="#63E0DC" d="M391.3,1292.5h-60.1c-11.8,0-21.4-9.6-21.4-21.4v-3.4c0-11.8,9.6-21.4,21.4-21.4h60.1
				c11.8,0,21.4,9.6,21.4,21.4v3.4C412.7,1282.9,403.1,1292.5,391.3,1292.5z M331.2,1252.6c-8.3,0-15.1,6.8-15.1,15.1v3.4
				c0,8.3,6.8,15.1,15.1,15.1h60.1c8.3,0,15.1-6.8,15.1-15.1v-3.4c0-8.3-6.8-15.1-15.1-15.1H331.2z"/>
		</g>
		<g>
			<path fill="#63E0DC" d="M367.7,1281.4h-13c-6.2,0-11.2-5-11.2-11.2v-1.6c0-6.2,5-11.2,11.2-11.2h13c6.2,0,11.2,5,11.2,11.2v1.6
				C379,1276.4,373.9,1281.4,367.7,1281.4z M354.7,1262.1c-3.6,0-6.5,2.9-6.5,6.5v1.6c0,3.6,2.9,6.5,6.5,6.5h13
				c3.6,0,6.5-2.9,6.5-6.5v-1.6c0-3.6-2.9-6.5-6.5-6.5H354.7z"/>
		</g>
		<path fill="#63E0DC" d="M331.2,1246.5c-11.8,0-22.2,10.3-22.2,22.1v3.4c0,11.8,10.3,20.5,22.2,20.5h6.8v-1.9v-3.1v-33.8v-3.1v-4.1
			H331.2z M332,1271.5c-3,0-8,0-12,0c-2,0-2-4,0-4c4,0,9,0,12,0S335,1271.5,332,1271.5z"/>
		<path fill="#F9A41C" d="M391.3,1246.5H383v4.1v3.1v33.8v3.1v1.9h8.3c11.8,0,20.7-8.7,20.7-20.5v-3.4
			C412,1256.8,403.1,1246.5,391.3,1246.5z M402,1271.5c-1,0-2,0-3,0c0,1,0,3,0,3c0,3-4,3-4,0c0,0,0-2,0-3c-2,0-3,0-4,0c-2,0-2-4,0-4
			c1,0,2,0,4,0c0-1,0-2,0-3c0-3,4-3,4,0c0,1,0,2,0,3c1,0,2,0,3,0C405,1267.5,405,1271.5,402,1271.5z"/>
	</g>
	<g>
		<g>
			<path fill="#63E0DC" d="M468.9,1370.7h-60.1c-11.8,0-21.4-9.6-21.4-21.4v-3.4c0-11.8,9.6-21.4,21.4-21.4h60.1
				c11.8,0,21.4,9.6,21.4,21.4v3.4C490.4,1361.1,480.7,1370.7,468.9,1370.7z M408.8,1330.8c-8.3,0-15.1,6.8-15.1,15.1v3.4
				c0,8.3,6.8,15.1,15.1,15.1h60.1c8.3,0,15.1-6.8,15.1-15.1v-3.4c0-8.3-6.8-15.1-15.1-15.1H408.8z"/>
		</g>
		<g>
			<path fill="#63E0DC" d="M445.4,1359.6h-13c-6.2,0-11.2-5-11.2-11.2v-1.6c0-6.2,5-11.2,11.2-11.2h13c6.2,0,11.2,5,11.2,11.2v1.6
				C456.6,1354.6,451.6,1359.6,445.4,1359.6z M432.3,1340.3c-3.6,0-6.5,2.9-6.5,6.5v1.6c0,3.6,2.9,6.5,6.5,6.5h13
				c3.6,0,6.5-2.9,6.5-6.5v-1.6c0-3.6-2.9-6.5-6.5-6.5H432.3z"/>
		</g>
		<path fill="#63E0DC" d="M408.8,1324.5c-11.8,0-21.8,10.7-21.8,22.5v3.4c0,11.8,10,20.1,21.8,20.1h7.2v-1.6v-3.1V1332v-3.1v-4.4
			H408.8z M410,1349.5c-3,0-8,0-12,0c-2,0-2-4,0-4c4,0,9,0,12,0S413,1349.5,410,1349.5z"/>
		<path fill="#F9A41C" d="M468.9,1324.5H461v4.4v3.1v33.8v3.1v1.6h7.9c11.8,0,21.1-8.3,21.1-20.1v-3.4
			C490,1335.2,480.7,1324.5,468.9,1324.5z M480,1349.5c-1,0-2,0-3,0c0,1,0,3,0,3c0,3-4,3-4,0c0,0,0-2,0-3c-2,0-3,0-4,0c-2,0-2-4,0-4
			c1,0,2,0,4,0c0-1,0-2,0-3c0-3,4-3,4,0c0,1,0,2,0,3c1,0,2,0,3,0C483,1345.5,483,1349.5,480,1349.5z"/>
	</g>
	<g>
		<g>
			<path fill="#63E0DC" d="M241.8,1161.5h-60.1c-11.8,0-21.4-9.6-21.4-21.4v-3.4c0-11.8,9.6-21.4,21.4-21.4h60.1
				c11.8,0,21.4,9.6,21.4,21.4v3.4C263.2,1151.9,253.6,1161.5,241.8,1161.5z M181.7,1121.5c-8.3,0-15.1,6.8-15.1,15.1v3.4
				c0,8.3,6.8,15.1,15.1,15.1h60.1c8.3,0,15.1-6.8,15.1-15.1v-3.4c0-8.3-6.8-15.1-15.1-15.1H181.7z"/>
		</g>
		<g>
			<path fill="#63E0DC" d="M218.3,1150.4h-13c-6.2,0-11.2-5-11.2-11.2v-1.6c0-6.2,5-11.2,11.2-11.2h13c6.2,0,11.2,5,11.2,11.2v1.6
				C229.5,1145.4,224.5,1150.4,218.3,1150.4z M205.2,1131c-3.6,0-6.5,2.9-6.5,6.5v1.6c0,3.6,2.9,6.5,6.5,6.5h13
				c3.6,0,6.5-2.9,6.5-6.5v-1.6c0-3.6-2.9-6.5-6.5-6.5H205.2z"/>
		</g>
		<path fill="#63E0DC" d="M181.7,1115.5c-11.8,0-21.7,10.2-21.7,22.1v3.4c0,11.8,9.9,20.6,21.7,20.6h7.3v-2v-3.1v-33.8v-3.1v-4
			H181.7z M183,1140.5c-3,0-8,0-12,0c-2,0-2-4,0-4c4,0,9,0,12,0S186,1140.5,183,1140.5z"/>
		<path fill="#F9A41C" d="M241.8,1115.5H234v4v3.1v33.8v3.1v2h7.8c11.8,0,21.2-8.7,21.2-20.6v-3.4
			C263,1125.7,253.6,1115.5,241.8,1115.5z M253,1140.5c-1,0-2,0-3,0c0,1,0,3,0,3c0,3-4,3-4,0c0,0,0-2,0-3c-2,0-3,0-4,0c-2,0-2-4,0-4
			c1,0,2,0,4,0c0-1,0-2,0-3c0-3,4-3,4,0c0,1,0,2,0,3c1,0,2,0,3,0C256,1136.5,256,1140.5,253,1140.5z"/>
	</g>
	<g>
		<g>
			<path fill="#63E0DC" d="M737.6,1094.3h-60.1c-11.8,0-21.4-9.6-21.4-21.4v-3.4c0-11.8,9.6-21.4,21.4-21.4h60.1
				c11.8,0,21.4,9.6,21.4,21.4v3.4C759,1084.6,749.4,1094.3,737.6,1094.3z M677.5,1054.3c-8.3,0-15.1,6.8-15.1,15.1v3.4
				c0,8.3,6.8,15.1,15.1,15.1h60.1c8.3,0,15.1-6.8,15.1-15.1v-3.4c0-8.3-6.8-15.1-15.1-15.1H677.5z"/>
		</g>
		<g>
			<path fill="#63E0DC" d="M714.1,1083.2h-13c-6.2,0-11.2-5-11.2-11.2v-1.6c0-6.2,5-11.2,11.2-11.2h13c6.2,0,11.2,5,11.2,11.2v1.6
				C725.3,1078.1,720.3,1083.2,714.1,1083.2z M701,1063.8c-3.6,0-6.5,2.9-6.5,6.5v1.6c0,3.6,2.9,6.5,6.5,6.5h13
				c3.6,0,6.5-2.9,6.5-6.5v-1.6c0-3.6-2.9-6.5-6.5-6.5H701z"/>
		</g>
		<path fill="#63E0DC" d="M677.5,1048.5c-11.8,0-21.5,10-21.5,21.8v3.4c0,11.8,9.7,20.8,21.5,20.8h7.5v-2.2v-3.1v-33.8v-3.1v-3.8
			H677.5z M679,1073.5c-3,0-8,0-12,0c-2,0-2-4,0-4c4,0,9,0,12,0S682,1073.5,679,1073.5z"/>
		<path fill="#F9A41C" d="M737.6,1048.5H730v3.8v3.1v33.8v3.1v2.2h7.6c11.8,0,21.4-9,21.4-20.8v-3.4
			C759,1058.5,749.4,1048.5,737.6,1048.5z M749,1073.5c-1,0-2,0-3,0c0,1,0,2,0,3c0,3-4,3-4,0c0-1,0-2,0-3c-2,0-3,0-4,0c-2,0-2-4,0-4
			c1,0,2,0,4,0c0-1,0-3,0-3c0-3,4-3,4,0c0,0,0,2,0,3c1,0,2,0,3,0C752,1069.5,752,1073.5,749,1073.5z"/>
	</g>
	<g>
		<g>
			<path fill="#63E0DC" d="M1023.8,1107.3h-60.1c-11.8,0-21.4-9.6-21.4-21.4v-3.4c0-11.8,9.6-21.4,21.4-21.4h60.1
				c11.8,0,21.4,9.6,21.4,21.4v3.4C1045.3,1097.7,1035.7,1107.3,1023.8,1107.3z M963.7,1067.3c-8.3,0-15.1,6.8-15.1,15.1v3.4
				c0,8.3,6.8,15.1,15.1,15.1h60.1c8.3,0,15.1-6.8,15.1-15.1v-3.4c0-8.3-6.8-15.1-15.1-15.1H963.7z"/>
		</g>
		<g>
			<path fill="#63E0DC" d="M1000.3,1096.2h-13c-6.2,0-11.2-5-11.2-11.2v-1.6c0-6.2,5-11.2,11.2-11.2h13c6.2,0,11.2,5,11.2,11.2v1.6
				C1011.5,1091.2,1006.5,1096.2,1000.3,1096.2z M987.3,1076.8c-3.6,0-6.5,2.9-6.5,6.5v1.6c0,3.6,2.9,6.5,6.5,6.5h13
				c3.6,0,6.5-2.9,6.5-6.5v-1.6c0-3.6-2.9-6.5-6.5-6.5H987.3z"/>
		</g>
		<path fill="#63E0DC" d="M963.7,1061.5c-11.8,0-21.7,10.1-21.7,21.9v3.4c0,11.8,9.9,20.7,21.7,20.7h7.3v-2.2v-3.1v-33.8v-3.1v-3.8
			H963.7z M965,1086.5c-3,0-8,0-12,0c-2,0-2-4,0-4c4,0,9,0,12,0S968,1086.5,965,1086.5z"/>
		<path fill="#F9A41C" d="M1023.8,1061.5h-7.8v3.8v3.1v33.8v3.1v2.2h7.8c11.8,0,21.2-8.9,21.2-20.7v-3.4
			C1045,1071.6,1035.7,1061.5,1023.8,1061.5z M1035,1086.5c-1,0-2,0-3,0c0,1,0,2,0,3c0,3-4,3-4,0c0-1,0-2,0-3c-2,0-3,0-4,0
			c-2,0-2-4,0-4c1,0,2,0,4,0c0-1,0-3,0-3c0-3,4-3,4,0c0,0,0,2,0,3c1,0,2,0,3,0C1038,1082.5,1038,1086.5,1035,1086.5z"/>
	</g>
	<g>
		<g>
			<path fill="#63E0DC" d="M1154.8,526.8h-60.1c-11.8,0-21.4-9.6-21.4-21.4V502c0-11.8,9.6-21.4,21.4-21.4h60.1
				c11.8,0,21.4,9.6,21.4,21.4v3.4C1176.3,517.2,1166.7,526.8,1154.8,526.8z M1094.7,486.8c-8.3,0-15.1,6.8-15.1,15.1v3.4
				c0,8.3,6.8,15.1,15.1,15.1h60.1c8.3,0,15.1-6.8,15.1-15.1V502c0-8.3-6.8-15.1-15.1-15.1H1094.7z"/>
		</g>
		<g>
			<path fill="#63E0DC" d="M1131.3,515.7h-13c-6.2,0-11.2-5-11.2-11.2v-1.6c0-6.2,5-11.2,11.2-11.2h13c6.2,0,11.2,5,11.2,11.2v1.6
				C1142.5,510.7,1137.5,515.7,1131.3,515.7z M1118.3,496.3c-3.6,0-6.5,2.9-6.5,6.5v1.6c0,3.6,2.9,6.5,6.5,6.5h13
				c3.6,0,6.5-2.9,6.5-6.5v-1.6c0-3.6-2.9-6.5-6.5-6.5H1118.3z"/>
		</g>
		<path fill="#63E0DC" d="M1094.7,480.5c-11.8,0-21.7,9.8-21.7,21.6v3.4c0,11.8,9.9,21,21.7,21h7.3V524V521v-33.8V484v-3.5H1094.7z
			 M1096,505.5c-3,0-8,0-12,0c-2,0-2-4,0-4c4,0,9,0,12,0S1099,505.5,1096,505.5z"/>
		<path fill="#F9A41C" d="M1154.8,480.5h-7.8v3.5v3.1V521v3.1v2.5h7.8c11.8,0,21.2-9.2,21.2-21v-3.4
			C1176,490.3,1166.7,480.5,1154.8,480.5z M1166,505.5c-1,0-2,0-3,0c0,1,0,3,0,3c0,3-4,3-4,0c0,0,0-2,0-3c-2,0-3,0-4,0c-2,0-2-4,0-4
			c1,0,2,0,4,0c0-1,0-2,0-3c0-3,4-3,4,0c0,1,0,2,0,3c1,0,2,0,3,0C1169,501.5,1169,505.5,1166,505.5z"/>
	</g>
	<g>
		<g>
			<path fill="#63E0DC" d="M1290.7,365.6h-60.1c-11.8,0-21.4-9.6-21.4-21.4v-3.4c0-11.8,9.6-21.4,21.4-21.4h60.1
				c11.8,0,21.4,9.6,21.4,21.4v3.4C1312.1,355.9,1302.5,365.6,1290.7,365.6z M1230.6,325.6c-8.3,0-15.1,6.8-15.1,15.1v3.4
				c0,8.3,6.8,15.1,15.1,15.1h60.1c8.3,0,15.1-6.8,15.1-15.1v-3.4c0-8.3-6.8-15.1-15.1-15.1H1230.6z"/>
		</g>
		<g>
			<path fill="#63E0DC" d="M1267.1,354.5h-13c-6.2,0-11.2-5-11.2-11.2v-1.6c0-6.2,5-11.2,11.2-11.2h13c6.2,0,11.2,5,11.2,11.2v1.6
				C1278.4,349.4,1273.3,354.5,1267.1,354.5z M1254.1,335.1c-3.6,0-6.5,2.9-6.5,6.5v1.6c0,3.6,2.9,6.5,6.5,6.5h13
				c3.6,0,6.5-2.9,6.5-6.5v-1.6c0-3.6-2.9-6.5-6.5-6.5H1254.1z"/>
		</g>
		<path fill="#63E0DC" d="M1230.6,319.5c-11.8,0-21.6,9.4-21.6,21.2v3.4c0,11.8,9.8,21.4,21.6,21.4h7.4v-2.9v-3.1v-33.8v-3.1v-3.1
			H1230.6z M1232,344.5c-3,0-8,0-12,0c-2,0-2-4,0-4c4,0,9,0,12,0S1235,344.5,1232,344.5z"/>
		<path fill="#F9A41C" d="M1290.7,319.5h-7.7v3.1v3.1v33.8v3.1v2.9h7.7c11.8,0,21.3-9.6,21.3-21.4v-3.4
			C1312,328.9,1302.5,319.5,1290.7,319.5z M1302,344.5c-1,0-2,0-3,0c0,1,0,3,0,3c0,3-4,3-4,0c0,0,0-2,0-3c-2,0-3,0-4,0c-2,0-2-4,0-4
			c1,0,2,0,4,0c0-1,0-2,0-3c0-3,4-3,4,0c0,1,0,2,0,3c1,0,2,0,3,0C1305,340.5,1305,344.5,1302,344.5z"/>
	</g>
	<g>
		<g>
			<path fill="#63E0DC" d="M1157.3,1586.3h-60.1c-11.8,0-21.4-9.6-21.4-21.4v-3.4c0-11.8,9.6-21.4,21.4-21.4h60.1
				c11.8,0,21.4,9.6,21.4,21.4v3.4C1178.7,1576.7,1169.1,1586.3,1157.3,1586.3z M1097.2,1546.4c-8.3,0-15.1,6.8-15.1,15.1v3.4
				c0,8.3,6.8,15.1,15.1,15.1h60.1c8.3,0,15.1-6.8,15.1-15.1v-3.4c0-8.3-6.8-15.1-15.1-15.1H1097.2z"/>
		</g>
		<g>
			<path fill="#63E0DC" d="M1133.8,1575.2h-13c-6.2,0-11.2-5-11.2-11.2v-1.6c0-6.2,5-11.2,11.2-11.2h13c6.2,0,11.2,5,11.2,11.2v1.6
				C1145,1570.2,1140,1575.2,1133.8,1575.2z M1120.7,1555.9c-3.6,0-6.5,2.9-6.5,6.5v1.6c0,3.6,2.9,6.5,6.5,6.5h13
				c3.6,0,6.5-2.9,6.5-6.5v-1.6c0-3.6-2.9-6.5-6.5-6.5H1120.7z"/>
		</g>
		<path fill="#63E0DC" d="M1097.2,1540.5c-11.8,0-22.2,10.1-22.2,21.9v3.4c0,11.8,10.4,20.7,22.2,20.7h6.8v-2.2v-3.1v-33.8v-3.1
			v-3.8H1097.2z M1098,1565.5c-3,0-8,0-12,0c-2,0-2-4,0-4c4,0,9,0,12,0S1101,1565.5,1098,1565.5z"/>
		<path fill="#F9A41C" d="M1157.3,1540.5h-8.3v3.8v3.1v33.8v3.1v2.2h8.3c11.8,0,20.7-8.9,20.7-20.7v-3.4
			C1178,1550.6,1169.1,1540.5,1157.3,1540.5z M1168,1565.5c-1,0-2,0-3,0c0,1,0,2,0,3c0,3-4,3-4,0c0-1,0-2,0-3c-2,0-3,0-4,0
			c-2,0-2-4,0-4c1,0,2,0,4,0c0-1,0-3,0-3c0-3,4-3,4,0c0,0,0,2,0,3c1,0,2,0,3,0C1171,1561.5,1171,1565.5,1168,1565.5z"/>
	</g>
	<g>
		<g>
			<path fill="#63E0DC" d="M592.2,586.6h-60.1c-11.8,0-21.4-9.6-21.4-21.4v-3.4c0-11.8,9.6-21.4,21.4-21.4h60.1
				c11.8,0,21.4,9.6,21.4,21.4v3.4C613.6,577,604,586.6,592.2,586.6z M532.1,546.7c-8.3,0-15.1,6.8-15.1,15.1v3.4
				c0,8.3,6.8,15.1,15.1,15.1h60.1c8.3,0,15.1-6.8,15.1-15.1v-3.4c0-8.3-6.8-15.1-15.1-15.1H532.1z"/>
		</g>
		<g>
			<path fill="#63E0DC" d="M568.7,575.5h-13c-6.2,0-11.2-5-11.2-11.2v-1.6c0-6.2,5-11.2,11.2-11.2h13c6.2,0,11.2,5,11.2,11.2v1.6
				C579.9,570.5,574.9,575.5,568.7,575.5z M555.6,556.2c-3.6,0-6.5,2.9-6.5,6.5v1.6c0,3.6,2.9,6.5,6.5,6.5h13c3.6,0,6.5-2.9,6.5-6.5
				v-1.6c0-3.6-2.9-6.5-6.5-6.5H555.6z"/>
		</g>
		<path fill="#63E0DC" d="M532.1,540.5c-11.8,0-22.1,10.5-22.1,22.3v3.4c0,11.8,10.3,20.3,22.1,20.3h6.9v-1.7v-3.1v-33.8v-3.1v-4.3
			H532.1z M533,565.5c-3,0-8,0-12,0c-2,0-2-4,0-4c4,0,9,0,12,0S536,565.5,533,565.5z"/>
		<path fill="#F9A41C" d="M592.2,540.5H584v4.3v3.1v33.8v3.1v1.7h8.2c11.8,0,20.8-8.5,20.8-20.3v-3.4C613,551,604,540.5,592.2,540.5
			z M603,565.5c-1,0-2,0-3,0c0,1,0,3,0,3c0,3-4,3-4,0c0,0,0-2,0-3c-2,0-3,0-4,0c-2,0-2-4,0-4c1,0,2,0,4,0c0-1,0-2,0-3c0-3,4-3,4,0
			c0,1,0,2,0,3c1,0,2,0,3,0C606,561.5,606,565.5,603,565.5z"/>
	</g>
</g>
<g>
	<path fill="#FE9D8A" d="M888,766.2c-14.4-1.2-28.4,0.1-41.7,3.4c0.1,11.2,1.4,26.6,7.2,33.6c13.1,15.6,40.2,14.3,51.6,2.1
		c6.7-7.1,11.9-21.9,14.4-32.5C909.5,769.4,898.9,767.1,888,766.2z M894.3,790.5H885v8c0,1.1-0.9,2-2,2s-2-0.9-2-2v-8h-9.7
		c-1.1,0-2-0.9-2-2s0.9-2,2-2h9.7v-9c0-1.1,0.9-2,2-2s2,0.9,2,2v9h9.3c1.1,0,2,0.9,2,2S895.4,790.5,894.3,790.5z"/>
	<path fill="#E8A833" d="M971.1,828c-11.2,0.3-26.6,1.8-33.4,7.7c-15.4,13.3-13.7,40.4-1.4,51.6c7.2,6.6,22,11.6,32.7,13.9
		c3.3-10,5.3-20.6,6.1-31.6C976,855.3,974.6,841.2,971.1,828z M961.3,865.5H952v8c0,1.1-0.9,2-2,2s-2-0.9-2-2v-8h-9.7
		c-1.1,0-2-0.9-2-2s0.9-2,2-2h9.7v-9c0-1.1,0.9-2,2-2s2,0.9,2,2v9h9.3c1.1,0,2,0.9,2,2S962.4,865.5,961.3,865.5z"/>
	<path fill="#63E0DC" d="M822.8,842c-7.6-6.1-22.8-10.2-33.6-11.8c-2.6,10.2-4,20.9-4,31.9c0,14.5,2.3,28.4,6.7,41.3
		c11.2-1,26.4-3.5,32.9-9.9C839.2,879.3,835.8,852.4,822.8,842z M821.3,868.5h-23c-1.1,0-2-0.9-2-2s0.9-2,2-2h23c1.1,0,2,0.9,2,2
		S822.4,868.5,821.3,868.5z"/>
	
		<circle fill="none" stroke="#63E0DC" stroke-width="6.8765" stroke-linecap="round" stroke-miterlimit="10" cx="881.1" cy="861.5" r="96"/>
</g>
</svg>
