<?xml version="1.0" encoding="utf-8"?>
<!-- Generator: Adobe Illustrator 18.1.1, SVG Export Plug-In . SVG Version: 6.00 Build 0)  -->
<svg version="1.1" xmlns="http://www.w3.org/2000/svg" xmlns:xlink="http://www.w3.org/1999/xlink" x="0px" y="0px"
	 viewBox="0 0 1402 2103" enable-background="new 0 0 1402 2103" xml:space="preserve">
<g id="Layer_1">
</g>
<g id="Layer_2">
	<g>
		<line fill="none" stroke="#DB9700" stroke-miterlimit="10" x1="823.1" y1="1712.7" x2="1040.1" y2="1489.9"/>
		<line fill="none" stroke="#DB9700" stroke-miterlimit="10" x1="1079" y1="1489.3" x2="1112.4" y2="1536.1"/>
		<line fill="none" stroke="#DB9700" stroke-miterlimit="10" x1="1015.3" y1="1110.5" x2="1042.4" y2="1448.2"/>
		<line fill="none" stroke="#DB9700" stroke-miterlimit="10" x1="739.4" y1="1075.2" x2="951.6" y2="1080.2"/>
		<line fill="none" stroke="#DB9700" stroke-miterlimit="10" x1="692.8" y1="1087.4" x2="617.4" y2="1380.5"/>
		<line fill="none" stroke="#DB9700" stroke-miterlimit="10" x1="457.4" y1="1356.3" x2="578.4" y2="1392.2"/>
		<line fill="none" stroke="#DB9700" stroke-miterlimit="10" x1="374.4" y1="1279.3" x2="430.4" y2="1323.8"/>
		<line fill="none" stroke="#DB9700" stroke-miterlimit="10" x1="232.4" y1="1153.4" x2="345.9" y2="1249.2"/>
		<line fill="none" stroke="#DB9700" stroke-miterlimit="10" x1="649.4" y1="667.3" x2="709.1" y2="1052.4"/>
		<line fill="none" stroke="#DB9700" stroke-miterlimit="10" x1="1064.4" y1="637" x2="1015.3" y2="1052"/>
		<line fill="none" stroke="#DB9700" stroke-miterlimit="10" x1="655.1" y1="617.4" x2="1048.4" y2="606.7"/>
		<line fill="none" stroke="#DB9700" stroke-miterlimit="10" x1="1085.4" y1="584.9" x2="1107.4" y2="523.2"/>
		<line fill="none" stroke="#DB9700" stroke-miterlimit="10" x1="1141.7" y1="483.2" x2="1241.4" y2="355.2"/>
		<line fill="none" stroke="#DB9700" stroke-miterlimit="10" x1="575.4" y1="598.1" x2="609.4" y2="617.4"/>
		<line fill="none" stroke="#DB9700" stroke-miterlimit="10" x1="545.4" y1="581.4" x2="238.4" y2="617.4"/>
		<line fill="none" stroke="#DB9700" stroke-miterlimit="10" x1="214.2" y1="598.1" x2="397.4" y2="369.2"/>
	</g>
	<g>
		<path fill="#DB9700" d="M1285.8,335.7h-3.3c-11.8,0-21.5-9.6-21.5-21.5v-3.3c0-1.3-1.1-2.4-2.4-2.4h-1.5c-1.3,0-2.4,1.1-2.4,2.4
			v3.3c0,11.8-9.6,21.5-21.5,21.5h-3.4c-1.3,0-2.3,1-2.3,2.3v1.6c0,1.3,1,2.3,2.3,2.3h3.4c11.8,0,21.5,9.6,21.5,21.5v3.4
			c0,1.3,1,2.3,2.3,2.3h1.6c1.3,0,2.4-1.1,2.4-2.4v-3.3c0-11.8,9.6-21.5,21.5-21.5h3.3c1.3,0,2.4-1.1,2.4-2.4v-1.5
			C1288.2,336.8,1287.1,335.7,1285.8,335.7z"/>
		<path fill="#DB9700" d="M1152,502.2h-3.3c-11.8,0-21.5-9.6-21.5-21.5v-3.3c0-1.3-1.1-2.4-2.4-2.4h-1.5c-1.3,0-2.4,1.1-2.4,2.4v3.3
			c0,11.8-9.6,21.5-21.5,21.5h-3.4c-1.3,0-2.3,1-2.3,2.3v1.6c0,1.3,1,2.3,2.3,2.3h3.4c11.8,0,21.5,9.6,21.5,21.5v3.4
			c0,1.3,1,2.3,2.3,2.3h1.6c1.3,0,2.4-1.1,2.4-2.4v-3.3c0-11.8,9.6-21.5,21.5-21.5h3.3c1.3,0,2.4-1.1,2.4-2.4v-1.5
			C1154.5,503.3,1153.3,502.2,1152,502.2z"/>
		<path fill="#DB9700" d="M593.1,558h-3.3c-11.8,0-21.5-9.6-21.5-21.5v-3.3c0-1.3-1.1-2.4-2.4-2.4h-1.5c-1.3,0-2.4,1.1-2.4,2.4v3.3
			c0,11.8-9.6,21.5-21.5,21.5h-3.4c-1.3,0-2.3,1-2.3,2.3v1.6c0,1.3,1,2.3,2.3,2.3h3.4c11.8,0,21.5,9.6,21.5,21.5v3.4
			c0,1.3,1,2.3,2.3,2.3h1.6c1.3,0,2.4-1.1,2.4-2.4v-3.3c0-11.8,9.6-21.5,21.5-21.5h3.3c1.3,0,2.4-1.1,2.4-2.4v-1.5
			C595.6,559.1,594.5,558,593.1,558z"/>
		<path fill="#DB9700" d="M242.1,633.9h-3.3c-11.8,0-21.5-9.6-21.5-21.5v-3.3c0-1.3-1.1-2.4-2.4-2.4h-1.5c-1.3,0-2.4,1.1-2.4,2.4
			v3.3c0,11.8-9.6,21.5-21.5,21.5h-3.4c-1.3,0-2.3,1-2.3,2.3v1.6c0,1.3,1,2.3,2.3,2.3h3.4c11.8,0,21.5,9.6,21.5,21.5v3.4
			c0,1.3,1,2.3,2.3,2.3h1.6c1.3,0,2.4-1.1,2.4-2.4v-3.3c0-11.8,9.6-21.5,21.5-21.5h3.3c1.3,0,2.4-1.1,2.4-2.4v-1.5
			C244.5,635,243.4,633.9,242.1,633.9z"/>
		<path fill="#DB9700" d="M1157.2,1554h-3.3c-11.8,0-21.5-9.6-21.5-21.5v-3.3c0-1.3-1.1-2.4-2.4-2.4h-1.5c-1.3,0-2.4,1.1-2.4,2.4
			v3.3c0,11.8-9.6,21.5-21.5,21.5h-3.4c-1.3,0-2.3,1-2.3,2.3v1.6c0,1.3,1,2.3,2.3,2.3h3.4c11.8,0,21.5,9.6,21.5,21.5v3.4
			c0,1.3,1,2.3,2.3,2.3h1.6c1.3,0,2.4-1.1,2.4-2.4v-3.3c0-11.8,9.6-21.5,21.5-21.5h3.3c1.3,0,2.4-1.1,2.4-2.4v-1.5
			C1159.7,1555.1,1158.6,1554,1157.2,1554z"/>
		<path fill="#DB9700" d="M459.5,1340.1h-2c-7.1,0-12.9-5.8-12.9-12.9v-2c0-0.8-0.6-1.4-1.4-1.4h-0.9c-0.8,0-1.4,0.6-1.4,1.4v2
			c0,7.1-5.8,12.9-12.9,12.9h-2c-0.8,0-1.4,0.6-1.4,1.4v1c0,0.8,0.6,1.4,1.4,1.4h2c7.1,0,12.9,5.8,12.9,12.9v2
			c0,0.8,0.6,1.4,1.4,1.4h0.9c0.8,0,1.5-0.7,1.5-1.5v-2c0-7.1,5.8-12.9,12.9-12.9h2c0.8,0,1.4-0.6,1.4-1.4v-0.9
			C461,1340.7,460.3,1340.1,459.5,1340.1z"/>
		<path fill="#DB9700" d="M727.7,1067.3h-2c-7.1,0-12.9-5.8-12.9-12.9v-2c0-0.8-0.6-1.4-1.4-1.4h-0.9c-0.8,0-1.4,0.6-1.4,1.4v2
			c0,7.1-5.8,12.9-12.9,12.9h-2c-0.8,0-1.4,0.6-1.4,1.4v1c0,0.8,0.6,1.4,1.4,1.4h2c7.1,0,12.9,5.8,12.9,12.9v2
			c0,0.8,0.6,1.4,1.4,1.4h0.9c0.8,0,1.5-0.7,1.5-1.5v-2c0-7.1,5.8-12.9,12.9-12.9h2c0.8,0,1.4-0.6,1.4-1.4v-0.9
			C729.1,1068,728.5,1067.3,727.7,1067.3z"/>
		<path fill="#DB9700" d="M1025.7,1077h-3.3c-11.8,0-21.5-9.6-21.5-21.5v-3.3c0-1.3-1.1-2.4-2.4-2.4h-1.5c-1.3,0-2.4,1.1-2.4,2.4
			v3.3c0,11.8-9.6,21.5-21.5,21.5h-3.4c-1.3,0-2.3,1-2.3,2.3v1.6c0,1.3,1,2.3,2.3,2.3h3.4c11.8,0,21.5,9.6,21.5,21.5v3.4
			c0,1.3,1,2.3,2.3,2.3h1.6c1.3,0,2.4-1.1,2.4-2.4v-3.3c0-11.8,9.6-21.5,21.5-21.5h3.3c1.3,0,2.4-1.1,2.4-2.4v-1.5
			C1028.2,1078.1,1027.1,1077,1025.7,1077z"/>
		<path fill="#DB9700" d="M387.9,1264h-3.3c-11.8,0-21.5-9.6-21.5-21.5v-3.3c0-1.3-1.1-2.4-2.4-2.4h-1.5c-1.3,0-2.4,1.1-2.4,2.4v3.3
			c0,11.8-9.6,21.5-21.5,21.5h-3.4c-1.3,0-2.3,1-2.3,2.3v1.6c0,1.3,1,2.3,2.3,2.3h3.4c11.8,0,21.5,9.6,21.5,21.5v3.4
			c0,1.3,1,2.3,2.3,2.3h1.6c1.3,0,2.4-1.1,2.4-2.4v-3.3c0-11.8,9.6-21.5,21.5-21.5h3.3c1.3,0,2.4-1.1,2.4-2.4v-1.5
			C390.4,1265.1,389.3,1264,387.9,1264z"/>
		<path fill="#DB9700" d="M230,1198.5h-3.3c-11.8,0-21.5-9.6-21.5-21.5v-3.3c0-1.3-1.1-2.4-2.4-2.4h-1.5c-1.3,0-2.4,1.1-2.4,2.4v3.3
			c0,11.8-9.6,21.5-21.5,21.5h-3.4c-1.3,0-2.3,1-2.3,2.3v1.6c0,1.3,1,2.3,2.3,2.3h3.4c11.8,0,21.5,9.6,21.5,21.5v3.4
			c0,1.3,1,2.3,2.3,2.3h1.6c1.3,0,2.4-1.1,2.4-2.4v-3.3c0-11.8,9.6-21.5,21.5-21.5h3.3c1.3,0,2.4-1.1,2.4-2.4v-1.5
			C232.4,1199.6,231.3,1198.5,230,1198.5z"/>
		<path fill="#DB9700" d="M235.1,1133.3h-2c-7.1,0-12.9-5.8-12.9-12.9v-2c0-0.8-0.6-1.4-1.4-1.4h-0.9c-0.8,0-1.4,0.6-1.4,1.4v2
			c0,7.1-5.8,12.9-12.9,12.9h-2c-0.8,0-1.4,0.6-1.4,1.4v1c0,0.8,0.6,1.4,1.4,1.4h2c7.1,0,12.9,5.8,12.9,12.9v2
			c0,0.8,0.6,1.4,1.4,1.4h0.9c0.8,0,1.5-0.7,1.5-1.5v-2c0-7.1,5.8-12.9,12.9-12.9h2c0.8,0,1.4-0.6,1.4-1.4v-0.9
			C236.5,1134,235.9,1133.3,235.1,1133.3z"/>
	</g>
	<g>
		<path fill="#DB9700" d="M451.9,344.5l-6.7,0c-4,0-7.6-2.2-9.6-5.6c-1.7-3-4.2-5.4-7.3-7c-3.4-1.9-5.7-5.4-5.7-9.4v-7.9
			c0-2.3-1.9-4.5-4.1-4.5h0.3c-2.3,0-3.8,2.2-3.8,4.5v7.9c0,4-2.3,7.6-5.8,9.4c-3.3,1.7-6,4.2-7.8,7.4c-1.9,3.2-5.2,5.3-8.9,5.3
			h-7.2c-1.3,0-2.5,0.4-3.5,1.1c-3.6,2.8-1,7.8,2.4,7.8l8.3,0c3.7,0,7.1,2.1,8.9,5.3c1.8,3.1,4.6,5.6,7.8,7.4
			c3.5,1.9,5.8,5.4,5.8,9.4v7.9c0,2.3,1.6,4.5,3.8,4.5h-0.2c2.3,0,4-2.2,4-4.5v-7.9c0-3.9,2.2-7.5,5.7-9.4c3-1.7,5.5-4.1,7.3-7
			c2-3.4,5.6-5.6,9.6-5.6h7.8c3.5,0,6-5.1,2.4-7.8C454.5,344.8,453.2,344.5,451.9,344.5z"/>
		<path fill="#DB9700" d="M666.5,636.5h-6.7c-4,0-7.6-2.2-9.6-5.6c-1.7-3-4.2-5.4-7.3-7c-3.4-1.9-5.7-5.4-5.7-9.4v-7.9
			c0-2.3-1.9-4.5-4.1-4.5h0.3c-2.3,0-3.8,2.2-3.8,4.5v7.9c0,4-2.3,7.6-5.8,9.4c-3.3,1.7-6,4.2-7.8,7.4c-1.9,3.2-5.2,5.3-8.9,5.3
			h-7.2c-1.3,0-2.5,0.4-3.5,1.1c-3.6,2.8-1,7.8,2.4,7.8h8.3c3.7,0,7.1,2.1,8.9,5.3c1.8,3.1,4.6,5.6,7.8,7.4c3.5,1.9,5.8,5.4,5.8,9.4
			v7.9c0,2.3,1.6,4.5,3.8,4.5h-0.2c2.3,0,4-2.2,4-4.5v-7.9c0-3.9,2.2-7.5,5.7-9.4c3-1.7,5.5-4.1,7.3-7c2-3.4,5.6-5.6,9.6-5.6h7.8
			c3.5,0,6-5.1,2.4-7.8C669,636.8,667.7,636.5,666.5,636.5z"/>
		<path fill="#DB9700" d="M1098.4,614.8l-4,0c-2.4,0-4.5-1.3-5.7-3.4c-1-1.8-2.5-3.2-4.4-4.2c-2.1-1.1-3.4-3.3-3.4-5.6v-4.8
			c0-1.4-1.1-2.7-2.5-2.7h0.2c-1.4,0-2.3,1.3-2.3,2.7v4.7c0,2.4-1.4,4.5-3.5,5.7c-2,1-3.6,2.5-4.7,4.4c-1.1,1.9-3.1,3.2-5.4,3.2
			h-4.3c-0.8,0-1.5,0.2-2.1,0.7c-2.1,1.7-0.6,4.7,1.5,4.7l5,0c2.2,0,4.2,1.3,5.4,3.2c1.1,1.9,2.8,3.4,4.7,4.4
			c2.1,1.1,3.5,3.3,3.5,5.7v4.7c0,1.4,0.9,2.7,2.3,2.7h-0.1c1.4,0,2.4-1.3,2.4-2.7v-4.8c0-2.4,1.3-4.5,3.4-5.6
			c1.8-1,3.3-2.4,4.4-4.2c1.2-2.1,3.3-3.4,5.7-3.4l4.7,0c2.1,0,3.6-3,1.5-4.7C1099.9,615,1099.1,614.8,1098.4,614.8z"/>
		<path fill="#DB9700" d="M1083.6,1465.1h-5.1c-3,0-5.7-1.7-7.2-4.2c-1.3-2.2-3.2-4-5.5-5.3c-2.6-1.4-4.3-4.1-4.3-7v-6
			c0-1.7-1.4-3.4-3.1-3.4h0.2c-1.7,0-2.9,1.6-2.9,3.4v5.9c0,3-1.7,5.7-4.4,7.1c-2.4,1.3-4.5,3.2-5.9,5.5c-1.4,2.4-3.9,4-6.7,4h-5.4
			c-0.9,0-1.9,0.3-2.6,0.8c-2.7,2.1-0.8,5.9,1.8,5.9h6.3c2.8,0,5.3,1.6,6.7,4c1.4,2.3,3.4,4.2,5.9,5.5c2.6,1.4,4.4,4.1,4.4,7.1v5.9
			c0,1.7,1.2,3.4,2.9,3.4h-0.1c1.7,0,3-1.7,3-3.4v-6c0-3,1.7-5.6,4.3-7c2.3-1.2,4.2-3.1,5.5-5.3c1.5-2.6,4.2-4.2,7.2-4.2h5.9
			c2.6,0,4.5-3.8,1.8-5.9C1085.5,1465.3,1084.5,1465.1,1083.6,1465.1z"/>
		<path fill="#DB9700" d="M822.7,1732.3h-5.1c-3,0-5.7-1.7-7.2-4.2c-1.3-2.2-3.2-4-5.5-5.3c-2.6-1.4-4.3-4.1-4.3-7v-6
			c0-1.7-1.4-3.4-3.1-3.4h0.2c-1.7,0-2.9,1.6-2.9,3.4v5.9c0,3-1.7,5.7-4.4,7.1c-2.4,1.3-4.5,3.2-5.9,5.5c-1.4,2.4-3.9,4-6.7,4h-5.4
			c-0.9,0-1.9,0.3-2.6,0.8c-2.7,2.1-0.8,5.9,1.8,5.9h6.3c2.8,0,5.3,1.6,6.7,4c1.4,2.3,3.4,4.2,5.9,5.5c2.6,1.4,4.4,4.1,4.4,7.1v5.9
			c0,1.7,1.2,3.4,2.9,3.4h-0.1c1.7,0,3-1.7,3-3.4v-6c0-3,1.7-5.6,4.3-7c2.3-1.2,4.2-3.1,5.5-5.3c1.5-2.6,4.2-4.2,7.2-4.2h5.9
			c2.6,0,4.5-3.8,1.8-5.9C824.6,1732.6,823.7,1732.3,822.7,1732.3z"/>
		<path fill="#DB9700" d="M621.9,1406.3h-5.1c-3,0-5.7-1.7-7.2-4.2c-1.3-2.2-3.2-4-5.5-5.3c-2.6-1.4-4.3-4.1-4.3-7v-6
			c0-1.7-1.4-3.4-3.1-3.4h0.2c-1.7,0-2.9,1.6-2.9,3.4v5.9c0,3-1.7,5.7-4.4,7.1c-2.4,1.3-4.5,3.2-5.9,5.5c-1.4,2.4-3.9,4-6.7,4h-5.4
			c-0.9,0-1.9,0.3-2.6,0.8c-2.7,2.1-0.8,5.9,1.8,5.9h6.3c2.8,0,5.3,1.6,6.7,4c1.4,2.3,3.4,4.2,5.9,5.5c2.6,1.4,4.4,4.1,4.4,7.1v5.9
			c0,1.7,1.2,3.4,2.9,3.4H597c1.7,0,3-1.7,3-3.4v-6c0-3,1.7-5.6,4.3-7c2.3-1.2,4.2-3.1,5.5-5.3c1.5-2.6,4.2-4.2,7.2-4.2h5.9
			c2.6,0,4.5-3.8,1.8-5.9C623.8,1406.6,622.9,1406.3,621.9,1406.3z"/>
	</g>
</g>
</svg>
