<?xml version="1.0" encoding="utf-8"?>
<!-- Generator: Adobe Illustrator 18.1.1, SVG Export Plug-In . SVG Version: 6.00 Build 0)  -->
<svg version="1.1" id="Layer_1" xmlns="http://www.w3.org/2000/svg" xmlns:xlink="http://www.w3.org/1999/xlink" x="0px" y="0px"
	 viewBox="0 0 226.6 205.9" enable-background="new 0 0 226.6 205.9" xml:space="preserve">
<path fill="#DB9700" d="M127,46.8h-1.6c-5.8,0-10.6-4.7-10.6-10.6v-1.6c0-0.7-0.5-1.2-1.2-1.2h-0.7c-0.6,0-1.2,0.5-1.2,1.2v1.6
	c0,5.8-4.7,10.6-10.6,10.6h-1.7c-0.6,0-1.1,0.5-1.1,1.1v0.8c0,0.6,0.5,1.2,1.2,1.2h1.7c5.8,0,10.6,4.7,10.6,10.6v1.7
	c0,0.6,0.5,1.1,1.1,1.1h0.8c0.7,0,1.2-0.5,1.2-1.2v-1.6c0-5.8,4.7-10.6,10.6-10.6h1.6c0.6,0,1.2-0.5,1.2-1.2V48
	C128.2,47.3,127.6,46.8,127,46.8z"/>
<path fill="#DB9700" d="M126.3,161.6h-1.1c-4,0-7.3-3.3-7.3-7.3v-1.1c0-0.4-0.4-0.8-0.8-0.8h-0.5c-0.4,0-0.8,0.4-0.8,0.8v1.1
	c0,4-3.3,7.3-7.3,7.3h-1.1c-0.4,0-0.8,0.4-0.8,0.8v0.6c0,0.4,0.4,0.8,0.8,0.8h1.1c4,0,7.3,3.3,7.3,7.3v1.2c0,0.4,0.4,0.8,0.8,0.8
	h0.5c0.5,0,0.8-0.4,0.8-0.8v-1.1c0-4,3.3-7.3,7.3-7.3h1.1c0.4,0,0.8-0.4,0.8-0.8v-0.5C127.1,162,126.7,161.6,126.3,161.6z"/>
<circle fill="#DB9700" cx="163.6" cy="80.7" r="6.8"/>
<path fill="#DB9700" d="M152.6,116.6l-2.2,0c-1.3,0-2.4-0.7-3.1-1.8c-0.6-1-1.4-1.7-2.4-2.3c-1.1-0.6-1.8-1.8-1.8-3v-2.6
	c0-0.7-0.6-1.4-1.3-1.4h0.1c-0.7,0-1.2,0.7-1.2,1.4v2.6c0,1.3-0.7,2.4-1.9,3.1c-1.1,0.6-1.9,1.4-2.5,2.4c-0.6,1-1.7,1.7-2.9,1.7H131
	c-0.4,0-0.8,0.1-1.1,0.4c-1.2,0.9-0.3,2.5,0.8,2.5l2.7,0c1.2,0,2.3,0.7,2.9,1.7c0.6,1,1.5,1.8,2.5,2.4c1.1,0.6,1.9,1.8,1.9,3.1v2.6
	c0,0.7,0.5,1.4,1.2,1.4h-0.1c0.7,0,1.3-0.7,1.3-1.4v-2.6c0-1.3,0.7-2.4,1.8-3c1-0.5,1.8-1.3,2.4-2.3c0.6-1.1,1.8-1.8,3.1-1.8l2.5,0
	c1.1,0,1.9-1.6,0.8-2.5C153.4,116.7,153,116.6,152.6,116.6z"/>
<circle fill="#DB9700" cx="88.9" cy="84.1" r="3.4"/>
<circle fill="#DB9700" cx="59.1" cy="45" r="3.3"/>
<circle fill="#DB9700" cx="81.8" cy="137.2" r="10.4"/>
</svg>
