<?xml version="1.0" encoding="utf-8"?>
<!-- Generator: Adobe Illustrator 18.1.1, SVG Export Plug-In . SVG Version: 6.00 Build 0)  -->
<svg version="1.1" id="Layer_1" xmlns="http://www.w3.org/2000/svg" xmlns:xlink="http://www.w3.org/1999/xlink" x="0px" y="0px"
	 viewBox="0 0 226.6 205.9" enable-background="new 0 0 226.6 205.9" xml:space="preserve">
<path fill="#DB9700" d="M157.5,44.8h-1.6c-5.8,0-10.6-4.7-10.6-10.6v-1.6c0-0.7-0.5-1.2-1.2-1.2h-0.7c-0.6,0-1.2,0.5-1.2,1.2v1.6
	c0,5.8-4.7,10.6-10.6,10.6h-1.7c-0.6,0-1.1,0.5-1.1,1.1v0.8c0,0.6,0.5,1.2,1.2,1.2h1.7c5.8,0,10.6,4.7,10.6,10.6v1.7
	c0,0.6,0.5,1.1,1.1,1.1h0.8c0.7,0,1.2-0.5,1.2-1.2v-1.6c0-5.8,4.7-10.6,10.6-10.6h1.6c0.6,0,1.2-0.5,1.2-1.2V46
	C158.7,45.4,158.1,44.8,157.5,44.8z"/>
<path fill="#DB9700" d="M135.1,157.5h-1.6c-5.8,0-10.6-4.7-10.6-10.6v-1.6c0-0.7-0.5-1.2-1.2-1.2h-0.7c-0.6,0-1.2,0.5-1.2,1.2v1.6
	c0,5.8-4.7,10.6-10.6,10.6h-1.7c-0.6,0-1.1,0.5-1.1,1.1v0.8c0,0.6,0.5,1.2,1.2,1.2h1.7c5.8,0,10.6,4.7,10.6,10.6v1.7
	c0,0.6,0.5,1.1,1.1,1.1h0.8c0.7,0,1.2-0.5,1.2-1.2v-1.6c0-5.8,4.7-10.6,10.6-10.6h1.6c0.6,0,1.2-0.5,1.2-1.2v-0.7
	C136.3,158.1,135.7,157.5,135.1,157.5z"/>
<path fill="#DB9700" d="M85.8,115.4l-2.2,0c-1.3,0-2.4-0.7-3.1-1.8c-0.6-1-1.4-1.7-2.4-2.3c-1.1-0.6-1.8-1.8-1.8-3v-2.6
	c0-0.7-0.6-1.4-1.3-1.4h0.1c-0.7,0-1.2,0.7-1.2,1.4l0,2.6c0,1.3-0.7,2.4-1.9,3.1c-1.1,0.6-1.9,1.4-2.5,2.4c-0.6,1-1.7,1.7-2.9,1.7
	h-2.3c-0.4,0-0.8,0.1-1.1,0.4c-1.2,0.9-0.3,2.5,0.8,2.5h2.7c1.2,0,2.3,0.7,2.9,1.7c0.6,1,1.5,1.8,2.5,2.4c1.1,0.6,1.9,1.8,1.9,3.1
	l0,2.6c0,0.7,0.5,1.4,1.2,1.4H75c0.7,0,1.3-0.7,1.3-1.4v-2.6c0-1.3,0.7-2.4,1.8-3c1-0.5,1.8-1.3,2.4-2.3c0.6-1.1,1.8-1.8,3.1-1.8
	h2.5c1.1,0,1.9-1.6,0.8-2.5C86.6,115.5,86.2,115.4,85.8,115.4z"/>
<circle fill="#DB9700" cx="128.8" cy="109.3" r="7.5"/>
<circle fill="#DB9700" cx="78.8" cy="155.3" r="3.8"/>
<circle fill="#DB9700" cx="99.7" cy="61.8" r="4.1"/>
<circle fill="#DB9700" cx="106.6" cy="97.6" r="2.6"/>
<circle fill="#DB9700" cx="155.6" cy="85.6" r="2.6"/>
</svg>
